<?xml version="1.0" encoding="utf-8"?>
<!-- Generator: Adobe Illustrator 17.1.0, SVG Export Plug-In . SVG Version: 6.00 Build 0)  -->
<!DOCTYPE svg PUBLIC "-//W3C//DTD SVG 1.1//EN" "http://www.w3.org/Graphics/SVG/1.1/DTD/svg11.dtd">
<svg version="1.1" id="Layer_1" xmlns="http://www.w3.org/2000/svg" xmlns:xlink="http://www.w3.org/1999/xlink" x="0px" y="0px"
	 viewBox="0 0 365 275" enable-background="new 0 0 365 275" xml:space="preserve">
<path fill="#015EAF" d="M130.3,112.8c0-5.6-3.2-8.7-8.8-8.7l-32.6,0.1c-6.3,0-11.4,5.1-11.4,11.4V140h2.7v-24.5
	c0-4.8,3.9-8.6,8.6-8.6H114c-1.5,2.1-1.5,5-1.5,8.6V140h2.7v-19.5H127c0.5,0,1.3-0.1,2-0.7c0.5-0.4,1.1-1.3,1.1-2.7
	C130.4,114.8,130.3,113.1,130.3,112.8z M127.7,117c0,0.4-0.1,0.7-0.2,0.8c-0.1,0.1-0.4,0.1-0.4,0.1h-11.8v-2.4c0-2.1,0-3.7,0.2-4.9
	c0.7-2.7,2.6-4,6-4c4.2,0,6.2,2,6.2,6.2v0.1C127.7,112.9,127.8,114.6,127.7,117z"/>
<path fill="#015EAF" d="M123.7,127.6v16.8H68v-16.8c-4.9,0.6-8.6,4-8.6,8V208c0,4.5,4.6,8.1,10.3,8.1H122c5.7,0,10.3-3.6,10.3-8.1
	v-72.4C132.3,131.5,128.6,128.2,123.7,127.6z M67.5,154.8v-4.1H123v4.1H67.5z"/>
<rect x="86" y="119" fill="#015EAF" width="20" height="2"/>
<rect x="86" y="124" fill="#015EAF" width="20" height="2"/>
<path fill="#015EAF" d="M181.5,107c-2.5-6.8-8.9-7.6-18.1-9.5c-7.3-1.6-16.7-8.7-21.2-14.5c-6.2-8.1-1.7-20.3,7.1-23.9
	c9-3.7,20.3-2.6,29.7-1.6c16.8,1.8,32.1,9.2,46.8,17c5.5,2.9,16.6,6.1,18.3,13c0.9,3.7-3.3,7.1-5.6,9.3c-1.1,1-8.5,5.9-8.4,6.8
	c1.9,14.2,1.4,29.4,0.7,43.6c-0.4,9-1,18.2-2.6,27.3c-1.1,6-37.9,0.6-37.9,0c-0.6-8.4,0.2-16.9-0.3-25.4c-0.2-3.4,0.1-10.4-2-13.2
	c-2.2-3.1-4.9-1.9-8.6-1.9c-3.5,0,3-17.7,3-19C182.7,111.7,182.3,109.1,181.5,107z M195.1,67.1h-42.7c-2.2,0-4,1.8-4,4v8.1
	c0,2.2,1.8,4,4,4h42.7c2.2,0,4-1.8,4-4v-8.1C199.1,68.9,197.3,67.1,195.1,67.1z M195.4,114.8c-4.3,0-7.8,3.5-7.8,7.8
	s3.5,7.8,7.8,7.8s7.8-3.5,7.8-7.8S199.7,114.8,195.4,114.8z"/>
<path fill="#3A7FBC" d="M267.9,138.6v36h-5.7v-36c-2.2-0.7-3.7-2.3-3.7-4.1c0-2.5,3-4.6,6.6-4.6s6.6,2.1,6.6,4.6
	C271.6,136.3,270.1,137.8,267.9,138.6z M303.7,174.6H124c-1.1,0-2,0.9-2,2v34.8c0,1.1,0.9,2,2,2h9.7c1.1,0,2,0.9,2,2v0.7
	c0,1.1,0.9,2,2,2h18.9c1.1,0,2-0.9,2-2v-0.7c0-1.1,0.9-2,2-2h105.7c1.1,0,2,0.9,2,2v1.2c0,1.1,0.9,2,2,2h18.9c1.1,0,2-0.9,2-2v-1.2
	c0-1.1,0.9-2,2-2h10.5c1.1,0,2-0.9,2-2v-34.8C305.7,175.5,304.8,174.6,303.7,174.6z M277.7,207.3H149.5c-1.1,0-2-0.9-2-2v-22.4
	c0-1.1,0.9-2,2-2h128.1c1.1,0,2,0.9,2,2v22.4C279.7,206.4,278.8,207.3,277.7,207.3z M165.2,194.1c0,1.7-1.4,3.1-3.1,3.1
	c-1.7,0-3.1-1.4-3.1-3.1c0-1.7,1.4-3.1,3.1-3.1S165.2,192.4,165.2,194.1z M179.9,194.1c0,1.7-1.4,3.1-3.1,3.1s-3.1-1.4-3.1-3.1
	c0-1.7,1.4-3.1,3.1-3.1S179.9,192.4,179.9,194.1z M194.6,194.1c0,1.7-1.4,3.1-3.1,3.1c-1.7,0-3.1-1.4-3.1-3.1c0-1.7,1.4-3.1,3.1-3.1
	C193.2,191,194.6,192.4,194.6,194.1z M209.3,194.1c0,1.7-1.4,3.1-3.1,3.1s-3.1-1.4-3.1-3.1c0-1.7,1.4-3.1,3.1-3.1
	S209.3,192.4,209.3,194.1z M224.1,194.1c0,1.7-1.4,3.1-3.1,3.1c-1.7,0-3.1-1.4-3.1-3.1c0-1.7,1.4-3.1,3.1-3.1
	C222.7,191,224.1,192.4,224.1,194.1z M238.8,194.1c0,1.7-1.4,3.1-3.1,3.1s-3.1-1.4-3.1-3.1c0-1.7,1.4-3.1,3.1-3.1
	S238.8,192.4,238.8,194.1z M253.5,194.1c0,1.7-1.4,3.1-3.1,3.1s-3.1-1.4-3.1-3.1c0-1.7,1.4-3.1,3.1-3.1S253.5,192.4,253.5,194.1z
	 M268.2,194.1c0,1.7-1.4,3.1-3.1,3.1s-3.1-1.4-3.1-3.1c0-1.7,1.4-3.1,3.1-3.1S268.2,192.4,268.2,194.1z"/>
</svg>
