<?xml version="1.0" encoding="utf-8"?>
<!-- Generator: Adobe Illustrator 17.1.0, SVG Export Plug-In . SVG Version: 6.00 Build 0)  -->
<!DOCTYPE svg PUBLIC "-//W3C//DTD SVG 1.1//EN" "http://www.w3.org/Graphics/SVG/1.1/DTD/svg11.dtd">
<svg version="1.1" id="Layer_1" xmlns="http://www.w3.org/2000/svg" xmlns:xlink="http://www.w3.org/1999/xlink" x="0px" y="0px"
	 viewBox="0 0 200 200" enable-background="new 0 0 200 200" xml:space="preserve">
<polygon fill="#0FC7F2" points="176,143.9 100,187.8 23.9,143.9 24,56.1 100,12.2 176.1,56.1 "/>
<polygon fill="#1481EF" points="171.4,141.3 100,182.5 28.5,141.2 28.6,58.7 100,17.5 171.5,58.8 "/>
<polygon fill="#3F51D1" points="165.4,137.8 100,175.5 34.6,137.7 34.6,62.2 100,24.5 165.4,62.3 "/>
<rect x="17.9" y="71.6" fill="#36DD4A" width="6" height="6"/>
<rect x="17.9" y="77.6" fill="#059E1B" width="6" height="6"/>
<rect x="11.9" y="77.6" fill="#059E1B" width="6" height="6"/>
<rect x="11.9" y="71.6" fill="#3ED12F" width="6" height="6"/>
<rect x="28.5" y="77.6" fill="#36DD4A" width="6" height="6"/>
<rect x="34.5" y="71.3" fill="#3ED12F" width="6" height="6"/>
<rect x="17.9" y="108.9" fill="#059E1B" width="6" height="6"/>
<rect x="165.5" y="105.9" fill="#36DD4A" width="6" height="6"/>
<rect x="165.5" y="83.6" fill="#059E1B" width="6" height="6"/>
<rect x="176.1" y="89.6" fill="#3ED12F" width="6" height="6"/>
<rect x="182.1" y="95.6" fill="#36DD4A" width="6" height="6"/>
<rect x="176.1" y="101.6" fill="#059E1B" width="6" height="6"/>
<g>
	<rect x="70" y="67.5" fill="#333333" width="80" height="65"/>
	<rect x="73.1" y="70" fill="#FFFFFF" width="73.9" height="60"/>
</g>
<linearGradient id="SVGID_1_" gradientUnits="userSpaceOnUse" x1="34.6151" y1="100" x2="70" y2="100">
	<stop  offset="0" style="stop-color:#2E3D3C"/>
	<stop  offset="1" style="stop-color:#000000"/>
</linearGradient>
<polygon opacity="0.82" fill="url(#SVGID_1_)" points="70,67.5 70,132.5 34.6,100 "/>
<g opacity="0.35">
	<line fill="none" stroke="#1AC911" stroke-width="2" stroke-miterlimit="10" x1="79" y1="80.7" x2="92.5" y2="80.7"/>
	<line fill="none" stroke="#8CF464" stroke-width="2" stroke-miterlimit="10" x1="97.6" y1="80.7" x2="104.1" y2="80.7"/>
	<line fill="none" stroke="#70E580" stroke-width="2" stroke-miterlimit="10" x1="108.2" y1="80.7" x2="114.6" y2="80.7"/>
	<line fill="none" stroke="#8CF464" stroke-width="2" stroke-miterlimit="10" x1="123.9" y1="80.7" x2="131" y2="80.7"/>
	<line fill="none" stroke="#1AC911" stroke-width="2" stroke-miterlimit="10" x1="134.2" y1="80.7" x2="138.7" y2="80.7"/>
	<line fill="none" stroke="#8CEF0A" stroke-width="2" stroke-miterlimit="10" x1="120.4" y1="80.7" x2="117.8" y2="80.7"/>
	<line fill="none" stroke="#8CF464" stroke-width="2" stroke-miterlimit="10" x1="79" y1="92.7" x2="114.6" y2="92.7"/>
	<line fill="none" stroke="#41E533" stroke-width="2" stroke-miterlimit="10" x1="121.1" y1="92.7" x2="141" y2="92.7"/>
	<line fill="none" stroke="#41E533" stroke-width="2" stroke-miterlimit="10" x1="79" y1="105.7" x2="114.6" y2="105.7"/>
	<line fill="none" stroke="#1AC911" stroke-width="2" stroke-miterlimit="10" x1="121.1" y1="105.7" x2="141" y2="105.7"/>
	<line fill="none" stroke="#41E533" stroke-width="2" stroke-miterlimit="10" x1="140" y1="122.6" x2="130" y2="122.6"/>
</g>
</svg>
