<?xml version="1.0" encoding="utf-8"?>
<!-- Generator: Adobe Illustrator 17.1.0, SVG Export Plug-In . SVG Version: 6.00 Build 0)  -->
<!DOCTYPE svg PUBLIC "-//W3C//DTD SVG 1.1//EN" "http://www.w3.org/Graphics/SVG/1.1/DTD/svg11.dtd">
<svg version="1.1" id="Layer_1" xmlns="http://www.w3.org/2000/svg" xmlns:xlink="http://www.w3.org/1999/xlink" x="0px" y="0px"
	 viewBox="0 0 16 16" enable-background="new 0 0 16 16" xml:space="preserve">
<g display="none">
	<path display="inline" fill="#3A7FBC" d="M3.345,15.5c-0.505,0-0.913-0.387-0.913-0.867V1.367c0-0.48,0.408-0.867,0.913-0.867
		h10.173c0.505,0,0.913,0.387,0.913,0.867v13.266c0,0.48-0.408,0.867-0.913,0.867C13.518,15.5,3.345,15.5,3.345,15.5z"/>
</g>
<g>
	<path fill="#3D78E5" d="M5.258,11.067c0.001-0.01,0.005-0.019,0.01-0.026c0.005-0.007,0.013-0.012,0.023-0.016
		c0.009-0.003,0.019-0.005,0.029-0.006c0.01-0.001,0.02-0.001,0.029,0c0.009,0,0.017,0.001,0.025,0.002
		c0.007,0.001,0.014,0.002,0.019,0.002c0.011,0.002,0.017,0.003,0.017,0.003s-0.005-0.003-0.015-0.008s-0.025-0.01-0.044-0.015
		c-0.009-0.002-0.02-0.004-0.031-0.005s-0.024,0-0.037,0.003c-0.013,0.003-0.027,0.01-0.037,0.021
		c-0.005,0.006-0.009,0.012-0.013,0.019c-0.003,0.007-0.005,0.014-0.006,0.021c-0.001,0.004-0.001,0.007-0.001,0.01
		c0,0.003,0,0.007,0,0.01c0,0.006,0,0.013,0,0.019c0,0.012,0.002,0.025,0.004,0.036c0.002,0.012,0.005,0.023,0.008,0.033
		c0.003,0.01,0.007,0.02,0.011,0.029c0.004,0.009,0.008,0.016,0.013,0.023c0.004,0.006,0.008,0.012,0.012,0.016
		c0.004,0.004,0.007,0.007,0.009,0.009c0.002,0.002,0.003,0.003,0.003,0.003s0-0.001-0.001-0.004
		c-0.001-0.003-0.003-0.007-0.004-0.012c-0.003-0.01-0.007-0.025-0.011-0.042c-0.004-0.017-0.007-0.038-0.008-0.059
		c-0.001-0.011-0.002-0.022-0.002-0.034c0-0.006,0-0.011,0-0.017c0-0.003,0-0.006,0-0.008C5.258,11.072,5.258,11.07,5.258,11.067z"
		/>
	<path fill="#3D78E5" d="M5.337,11.109v-0.002c0-0.002,0-0.003,0-0.004c0.001-0.005,0.003-0.01,0.007-0.013s0.008-0.005,0.014-0.007
		c0.006-0.001,0.011-0.002,0.017-0.002c0.011,0,0.021,0,0.028,0.001c0.003,0,0.006,0,0.008,0.001c0.002,0,0.003,0,0.003,0
		s-0.001-0.001-0.002-0.002c-0.002-0.001-0.004-0.002-0.007-0.004c-0.006-0.003-0.015-0.007-0.028-0.01
		c-0.006-0.001-0.013-0.002-0.021-0.002c-0.008,0-0.017,0.002-0.025,0.008c-0.008,0.005-0.014,0.015-0.016,0.024
		c0,0.002-0.001,0.005-0.001,0.007l0,0.003l0,0.002v0.001v0v0v0.001l0,0.006v0.003v0.001l0,0.002l0.001,0.007
		c0,0.002,0.001,0.005,0.002,0.006c0.001,0.004,0.002,0.008,0.004,0.012c0.003,0.008,0.007,0.015,0.012,0.021
		c0.002,0.003,0.004,0.006,0.007,0.009c0.003,0.003,0.005,0.006,0.007,0.008c0.002,0.003,0.005,0.005,0.007,0.007
		c0.002,0.002,0.005,0.004,0.007,0.006c0.005,0.004,0.009,0.007,0.013,0.01c0.004,0.003,0.008,0.005,0.011,0.006
		c0.003,0.002,0.006,0.003,0.007,0.004c0.002,0.001,0.003,0.001,0.003,0.001s-0.002-0.003-0.007-0.008
		c-0.002-0.003-0.005-0.006-0.007-0.01c-0.003-0.004-0.006-0.008-0.009-0.012c-0.002-0.002-0.003-0.005-0.005-0.007
		c-0.002-0.003-0.003-0.005-0.005-0.008c-0.002-0.003-0.003-0.005-0.005-0.008c-0.002-0.003-0.003-0.006-0.005-0.009
		c-0.002-0.003-0.003-0.006-0.004-0.009c-0.001-0.002-0.001-0.003-0.002-0.005c-0.001-0.002-0.001-0.003-0.002-0.005
		c-0.002-0.003-0.002-0.006-0.003-0.01c-0.001-0.002-0.001-0.003-0.001-0.005l-0.001-0.004l0-0.001v-0.001l0-0.003l0-0.006V11.109
		L5.337,11.109z"/>
	<path fill="#3D78E5" d="M5.468,11.461c-0.002,0.003-0.004,0.005-0.006,0.007l-0.006,0.008c-0.002,0.003-0.004,0.005-0.006,0.008
		c-0.001,0.001-0.002,0.003-0.003,0.004l-0.002,0.004L5.44,11.5l-0.004,0.008c-0.003,0.006-0.005,0.012-0.008,0.017
		c-0.003,0.006-0.004,0.012-0.007,0.018c-0.001,0.003-0.002,0.006-0.003,0.009l-0.002,0.009l-0.003,0.009l-0.002,0.009L5.41,11.591
		l-0.001,0.005c0,0.002,0,0.003,0,0.005L5.407,11.62c0,0.007,0,0.013-0.001,0.019l0,0.01c0,0.003,0,0.006,0,0.01l0.002,0.038
		c0,0.006,0,0.012,0,0.018s0,0.012-0.001,0.018l-0.001,0.009L5.405,11.75c-0.001,0.006-0.002,0.012-0.003,0.018
		c-0.001,0.006-0.002,0.012-0.004,0.018c-0.002,0.006-0.003,0.012-0.004,0.018l-0.002,0.009l-0.003,0.009
		c-0.002,0.006-0.004,0.012-0.006,0.017c-0.004,0.012-0.008,0.023-0.013,0.035c-0.009,0.023-0.02,0.045-0.032,0.067
		c-0.003,0.005-0.005,0.01-0.008,0.015c0.007-0.033,0.002-0.07,0.002-0.07s-0.015,0.044-0.03,0.07
		c-0.019,0.033-0.064,0.07-0.068,0.073c-0.002,0.002-0.004,0.003-0.006,0.004l-0.006,0.004c-0.004,0.003-0.008,0.006-0.013,0.008
		l-0.012,0.008c-0.004,0.003-0.009,0.005-0.013,0.008c-0.004,0.003-0.009,0.005-0.013,0.008l-0.013,0.007
		c0.005-0.002,0.01-0.004,0.014-0.006c0.005-0.002,0.009-0.004,0.014-0.006c0.005-0.002,0.009-0.004,0.014-0.006l0.014-0.007
		c0.005-0.002,0.009-0.005,0.013-0.007l0.007-0.004c0.002-0.001,0.004-0.003,0.007-0.004c0.004-0.003,0.009-0.006,0.013-0.008
		l0.012-0.009l0.003-0.002l0,0l0,0l0,0l0.001-0.001l0.002-0.001c0.002-0.002,0.004-0.003,0.006-0.005l0.006-0.006
		c0.002-0.002,0.004-0.004,0.005-0.006c0.002-0.002,0.003-0.004,0.005-0.006c0.002-0.002,0.003-0.004,0.005-0.006l0.004-0.006
		l0-0.001l-0.006,0.031l-0.009,0.05l0.031-0.041c0.008-0.011,0.015-0.021,0.022-0.032c0.007-0.011,0.013-0.022,0.02-0.033
		c0.006-0.011,0.012-0.023,0.018-0.034c0.003-0.006,0.005-0.012,0.008-0.017c0.002-0.006,0.005-0.012,0.007-0.018
		c0.005-0.012,0.009-0.024,0.013-0.036c0.002-0.006,0.004-0.012,0.006-0.018l0.003-0.009l0.002-0.009
		c0.002-0.006,0.003-0.013,0.004-0.019c0.001-0.006,0.002-0.013,0.003-0.019c0.001-0.006,0.002-0.013,0.002-0.019l0.001-0.01l0-0.01
		c0-0.007,0-0.013,0-0.019c0-0.007,0-0.013-0.001-0.02l-0.003-0.037c0-0.003-0.001-0.006-0.001-0.009l0-0.009
		c0-0.006,0-0.012,0-0.018l0.001-0.018c0-0.002,0-0.003,0-0.005l0-0.004l0.001-0.009l0.001-0.009l0.002-0.009
		c0.001-0.006,0.002-0.012,0.004-0.018c0.002-0.006,0.003-0.012,0.005-0.018c0.002-0.006,0.004-0.012,0.006-0.017l0.003-0.009
		l0.004-0.008l0.002-0.004c0.001-0.001,0.002-0.003,0.002-0.004c0.002-0.003,0.003-0.006,0.004-0.008
		c0.007-0.011,0.013-0.021,0.022-0.03C5.477,11.452,5.473,11.457,5.468,11.461z"/>
	<path fill="#3D78E5" d="M6.096,11.631c-0.001,0.002-0.002,0.004-0.004,0.008c-0.002,0.003-0.004,0.008-0.006,0.013
		c-0.002,0.005-0.005,0.01-0.007,0.016c-0.001,0.003-0.003,0.006-0.004,0.009c-0.002,0.003-0.003,0.006-0.004,0.01
		c-0.003,0.007-0.007,0.013-0.01,0.02c-0.002,0.003-0.004,0.007-0.005,0.01c-0.002,0.003-0.004,0.007-0.006,0.01
		c-0.002,0.003-0.004,0.007-0.006,0.01c-0.002,0.003-0.005,0.006-0.007,0.009L6.032,11.75l-0.002,0.002c0,0,0,0.001-0.001,0.001
		l-0.001,0.001c-0.002,0.001-0.003,0.003-0.005,0.004L6.023,11.76l0,0L6.02,11.762c-0.002,0.001-0.003,0.002-0.005,0.003
		c-0.002,0.001-0.003,0.002-0.005,0.003c-0.003,0.002-0.006,0.003-0.01,0.005c-0.003,0.002-0.007,0.002-0.01,0.004
		c-0.003,0.001-0.007,0.002-0.01,0.003c-0.003,0.001-0.007,0.002-0.01,0.002c-0.003,0.001-0.006,0.001-0.01,0.002
		c-0.006,0.001-0.012,0.001-0.017,0.002c-0.005,0-0.01,0.001-0.014,0.001c-0.004,0-0.007,0-0.009,0s-0.003,0-0.003,0
		s0.001,0.001,0.003,0.002c0.002,0.001,0.005,0.002,0.009,0.004c0.004,0.001,0.008,0.003,0.014,0.004s0.012,0.003,0.019,0.004
		c0.007,0.001,0.015,0.001,0.023,0.001c0.004,0,0.008-0.001,0.013-0.001c0.002,0,0.004-0.001,0.006-0.001
		c0.002,0,0.004-0.001,0.006-0.002c0.004-0.001,0.009-0.003,0.013-0.005c0.002-0.001,0.005-0.002,0.007-0.003
		c0.002-0.001,0.004-0.003,0.006-0.004l0.003-0.002l0,0l0.001-0.001l0.001,0l0.001-0.001c0.002-0.001,0.003-0.003,0.005-0.004
		c0.002-0.001,0.003-0.004,0.005-0.005l0.005-0.006c0.003-0.004,0.006-0.008,0.008-0.012c0.002-0.004,0.004-0.008,0.007-0.012
		c0.002-0.004,0.004-0.008,0.006-0.012c0.002-0.004,0.003-0.008,0.005-0.012c0.003-0.008,0.005-0.016,0.007-0.023
		c0.002-0.007,0.003-0.014,0.004-0.021c0.001-0.007,0.002-0.013,0.002-0.018c0-0.005,0.001-0.01,0.001-0.014
		c0-0.004,0-0.007,0-0.009c0-0.003,0-0.004,0-0.004S6.096,11.629,6.096,11.631z"/>
	<path fill="#3D78E5" d="M6.098,11.5c-0.013,0.021-0.063-0.003-0.063-0.003s0.008,0.034,0.028,0.046
		c0.016,0.01,0.047,0.018,0.046,0.026s-0.014,0.013-0.014,0.013S6.1,11.601,6.113,11.6s0.045-0.056,0.044-0.096
		c0-0.021-0.065-0.088-0.121-0.134c-0.048-0.039-0.088-0.06-0.088-0.06S6.111,11.479,6.098,11.5z"/>
	<path fill="#3D78E5" d="M4.762,10.92c0.036-0.024,0.074-0.047,0.112-0.067c0.019-0.01,0.038-0.021,0.058-0.03
		s0.039-0.019,0.06-0.027c0.04-0.017,0.081-0.031,0.123-0.042c0.021-0.006,0.042-0.01,0.063-0.014
		c0.005-0.001,0.011-0.002,0.016-0.003c0.005-0.001,0.01-0.002,0.016-0.002l0.008-0.001l0.004,0l0.004,0
		c0.005,0,0.011-0.001,0.016-0.001c0.021-0.002,0.043-0.002,0.064-0.001c0.021,0.001,0.042,0.003,0.063,0.008
		c0.041,0.008,0.081,0.023,0.115,0.046c0.017,0.012,0.033,0.025,0.046,0.041c0.007,0.008,0.013,0.016,0.019,0.024
		c0.003,0.004,0.005,0.008,0.008,0.013c0.001,0.002,0.002,0.004,0.003,0.006l0.002,0.003c0,0.001,0.001,0.002,0.001,0.003
		l0.029,0.077l0.002-0.082c0-0.005,0-0.01,0-0.016c0-0.005,0-0.01,0-0.015c0-0.01-0.001-0.021-0.002-0.031
		c0-0.005-0.001-0.01-0.002-0.016c-0.001-0.005-0.002-0.011-0.003-0.016l-0.001-0.004l0-0.002l-0.001-0.001l-0.002-0.008
		c-0.001-0.005-0.003-0.01-0.004-0.015c-0.001-0.005-0.003-0.01-0.004-0.015l-0.005-0.015c-0.002-0.005-0.003-0.01-0.005-0.015
		c-0.002-0.005-0.004-0.01-0.006-0.015c-0.001-0.003-0.002-0.005-0.003-0.007c0.007,0.006,0.014,0.012,0.02,0.018
		c0.009,0.009,0.018,0.019,0.026,0.03c0.004,0.005,0.008,0.011,0.011,0.016c0.003,0.006,0.007,0.011,0.01,0.017
		c0.001,0.003,0.003,0.005,0.004,0.009l0.002,0.005l0,0.001l0,0.001l0.001,0.002c0.003,0.006,0.005,0.012,0.007,0.019l0.003,0.01
		l0.003,0.01c0.002,0.007,0.003,0.013,0.005,0.02c0.003,0.013,0.006,0.027,0.008,0.04l0.004,0.02
		c0.001,0.007,0.002,0.014,0.003,0.02l0.005,0.034l0.019-0.029l0.008-0.013l0.008-0.013c0.003-0.004,0.005-0.008,0.008-0.013
		l0.008-0.013l0.008-0.013c0.002-0.004,0.005-0.009,0.007-0.013l0.004-0.007l0.003-0.007l0.003-0.007l0.002-0.004l0.002-0.003
		c0.004-0.009,0.008-0.018,0.012-0.028c0.004-0.009,0.007-0.019,0.01-0.028c0.003-0.01,0.006-0.019,0.008-0.029
		c0-0.001,0.001-0.003,0.001-0.004c0.002,0.004,0.003,0.007,0.004,0.011c0.002,0.006,0.004,0.012,0.006,0.018
		c0.002,0.006,0.003,0.012,0.005,0.018c0.001,0.006,0.003,0.012,0.004,0.019C5.8,10.801,5.8,10.808,5.801,10.814
		c0,0.003,0,0.006,0.001,0.009c0,0.003,0,0.006,0,0.009v0.01v0.002v0.001v0.001l0,0.005c0,0.006-0.001,0.013-0.002,0.019
		c-0.001,0.006-0.002,0.013-0.004,0.019c-0.002,0.006-0.003,0.012-0.005,0.018c-0.001,0.007-0.003,0.013-0.006,0.019
		c-0.005,0.012-0.01,0.023-0.017,0.035c-0.006,0.011-0.013,0.022-0.021,0.032c0.009-0.01,0.017-0.02,0.024-0.031
		c0.007-0.011,0.014-0.022,0.019-0.034c0.011-0.023,0.019-0.049,0.022-0.075l0-0.005l0-0.001v-0.001l0-0.002l0-0.01
		c0-0.006,0-0.013,0-0.019c0-0.006-0.001-0.013-0.001-0.02c0-0.007-0.002-0.013-0.003-0.02c-0.001-0.006-0.002-0.013-0.004-0.019
		c-0.001-0.003-0.002-0.006-0.002-0.01c-0.001-0.003-0.002-0.007-0.003-0.01c-0.002-0.006-0.004-0.013-0.007-0.019
		c-0.002-0.006-0.005-0.012-0.008-0.019l-0.011-0.021l-0.005,0.024c-0.001,0.004-0.002,0.009-0.003,0.014
		c-0.001,0.005-0.003,0.009-0.004,0.014c-0.003,0.009-0.006,0.018-0.009,0.028c-0.003,0.009-0.007,0.018-0.011,0.027
		c-0.004,0.009-0.008,0.018-0.012,0.026l-0.002,0.003l-0.002,0.003l-0.004,0.006L5.72,10.829l-0.004,0.006
		c-0.002,0.004-0.005,0.008-0.007,0.012l-0.008,0.012l-0.008,0.012c-0.002,0.003-0.004,0.006-0.006,0.008
		c0-0.003-0.001-0.006-0.001-0.008c-0.002-0.014-0.005-0.028-0.008-0.042c-0.001-0.007-0.003-0.014-0.005-0.021l-0.003-0.01
		l-0.003-0.01c-0.002-0.007-0.005-0.014-0.007-0.021l-0.001-0.003l-0.001-0.002l0-0.001l-0.002-0.005
		c-0.001-0.003-0.003-0.007-0.005-0.01c-0.003-0.007-0.007-0.013-0.011-0.019c-0.004-0.006-0.008-0.013-0.012-0.018
		C5.62,10.698,5.61,10.687,5.6,10.677c-0.01-0.01-0.022-0.02-0.034-0.029c-0.006-0.005-0.012-0.009-0.019-0.013
		c-0.003-0.002-0.006-0.004-0.01-0.006l-0.005-0.003c-0.002-0.001-0.003-0.002-0.006-0.003l-0.042-0.019l0.022,0.041
		c0.002,0.004,0.004,0.008,0.006,0.013c0.002,0.004,0.004,0.009,0.006,0.013c0.004,0.009,0.008,0.018,0.012,0.027
		c0.002,0.004,0.004,0.009,0.005,0.014c0.002,0.005,0.003,0.009,0.005,0.014l0.004,0.014c0.001,0.005,0.003,0.009,0.004,0.014
		s0.003,0.009,0.004,0.014l0.002,0.007l0,0.002l0,0.002l0.001,0.004c0.001,0.005,0.002,0.009,0.002,0.014
		C5.56,10.8,5.56,10.805,5.56,10.81c0,0,0,0,0,0.001c-0.002-0.002-0.004-0.004-0.005-0.006c-0.015-0.017-0.033-0.032-0.052-0.045
		c-0.019-0.013-0.04-0.023-0.061-0.032c-0.021-0.008-0.044-0.015-0.066-0.019c-0.023-0.004-0.045-0.006-0.068-0.007
		c-0.023-0.001-0.045,0-0.068,0.002c-0.006,0-0.011,0.001-0.017,0.002l-0.004,0l-0.004,0.001l-0.008,0.001
		c-0.006,0.001-0.011,0.002-0.017,0.002c-0.006,0.001-0.011,0.002-0.017,0.003c-0.022,0.004-0.044,0.01-0.065,0.016
		c-0.043,0.013-0.085,0.028-0.125,0.047c-0.04,0.019-0.079,0.039-0.117,0.062c-0.019,0.011-0.037,0.023-0.055,0.036
		s-0.036,0.025-0.054,0.038c-0.022,0.017-0.043,0.035-0.064,0.053c-0.001,0.002-0.002,0.003-0.003,0.005
		c0.006-0.005,0.012-0.009,0.018-0.014C4.726,10.944,4.744,10.932,4.762,10.92z"/>
	<path fill="#3D78E5" d="M5.655,11.705l-0.001-0.012l-0.002-0.012c-0.001-0.008-0.002-0.016-0.004-0.024
		c-0.002-0.008-0.003-0.016-0.005-0.024c-0.002-0.008-0.004-0.016-0.006-0.023l-0.003-0.012L5.63,11.587
		c-0.002-0.008-0.006-0.015-0.008-0.023c-0.003-0.008-0.006-0.015-0.01-0.023L5.591,11.5c-0.002-0.004-0.004-0.007-0.005-0.01
		l-0.005-0.01c-0.003-0.007-0.006-0.014-0.009-0.021l-0.008-0.022c-0.001-0.002-0.001-0.004-0.002-0.005l-0.002-0.006l-0.003-0.011
		l-0.003-0.011l-0.002-0.011c-0.002-0.008-0.003-0.015-0.004-0.023c-0.001-0.008-0.002-0.015-0.003-0.023
		c0-0.008-0.001-0.015-0.001-0.023v-0.012L5.546,11.3l0-0.006c0-0.002,0-0.004,0.001-0.006c0-0.004,0.001-0.008,0.002-0.012
		c0.002-0.015,0.006-0.031,0.012-0.045c-0.004,0.007-0.007,0.014-0.01,0.021c-0.001,0.004-0.003,0.007-0.004,0.011l-0.004,0.011
		c-0.001,0.004-0.002,0.008-0.003,0.012c0,0.002-0.001,0.004-0.001,0.006l-0.001,0.006l-0.002,0.012l-0.002,0.011
		c-0.001,0.008-0.001,0.016-0.001,0.024c0,0.008,0,0.016,0.001,0.024c0,0.004,0,0.008,0.001,0.012l0.002,0.012l0.002,0.012
		l0.002,0.012l0.002,0.012l0.001,0.006c0,0.002,0.001,0.004,0.002,0.006l0.006,0.023c0.002,0.008,0.005,0.015,0.008,0.023
		l0.004,0.011c0.001,0.004,0.003,0.007,0.005,0.011l0.019,0.043c0.003,0.007,0.006,0.014,0.008,0.021
		c0.002,0.007,0.005,0.014,0.007,0.022l0.003,0.011l0.003,0.011c0.002,0.007,0.003,0.015,0.005,0.022
		c0.002,0.007,0.003,0.015,0.004,0.023c0.001,0.008,0.002,0.015,0.003,0.023l0.001,0.011l0.001,0.011
		c0.001,0.008,0.001,0.015,0.002,0.023c0.001,0.015,0.001,0.031,0.001,0.046c0,0.031-0.002,0.061-0.006,0.092
		c-0.001,0.007-0.002,0.014-0.003,0.021c-0.007-0.041-0.031-0.083-0.031-0.083s0.003,0.058-0.003,0.094
		c-0.007,0.047-0.042,0.11-0.046,0.115c-0.002,0.003-0.003,0.005-0.005,0.008l-0.005,0.008c-0.004,0.005-0.007,0.01-0.011,0.015
		l-0.011,0.015c-0.004,0.005-0.008,0.01-0.011,0.015c-0.004,0.005-0.008,0.01-0.012,0.015l-0.012,0.015
		c0.005-0.004,0.009-0.008,0.014-0.013c0.005-0.004,0.009-0.009,0.014-0.013s0.009-0.009,0.013-0.014l0.013-0.014
		c0.004-0.005,0.008-0.01,0.012-0.015l0.006-0.007c0.002-0.002,0.004-0.005,0.006-0.008c0.004-0.005,0.008-0.01,0.012-0.015
		l0.01-0.016l0.003-0.004l0,0l0-0.001l0,0l0.001-0.001l0.001-0.002c0.002-0.003,0.003-0.006,0.004-0.009l0.004-0.009
		c0.001-0.003,0.002-0.006,0.003-0.009c0.001-0.003,0.002-0.006,0.003-0.009c0.001-0.003,0.002-0.006,0.003-0.009l0.002-0.009
		l0-0.001l0.008,0.039l0.012,0.062l0.017-0.062c0.004-0.016,0.008-0.031,0.011-0.047c0.003-0.016,0.006-0.031,0.008-0.047
		s0.004-0.032,0.005-0.048c0.001-0.008,0.001-0.016,0.001-0.024c0-0.008,0-0.016,0-0.024c0-0.016,0-0.032-0.001-0.048
		C5.657,11.721,5.656,11.713,5.655,11.705z"/>
	<path fill="#3D78E5" d="M5.866,11.108c-0.004-0.004-0.009-0.009-0.013-0.014c-0.005-0.004-0.009-0.009-0.014-0.013
		c-0.005-0.004-0.01-0.008-0.014-0.012c-0.005-0.004-0.01-0.008-0.015-0.012c-0.005-0.004-0.01-0.008-0.015-0.011
		c-0.005-0.004-0.01-0.007-0.016-0.011s-0.01-0.007-0.016-0.01c0.009,0.008,0.019,0.017,0.027,0.025
		c0.004,0.004,0.009,0.009,0.013,0.013c0.004,0.005,0.009,0.009,0.013,0.013c0.004,0.004,0.008,0.009,0.012,0.014
		c0.004,0.005,0.008,0.009,0.012,0.014c0.004,0.005,0.008,0.009,0.011,0.014c0.004,0.005,0.007,0.01,0.011,0.015
		c0.004,0.005,0.007,0.01,0.01,0.015c0.003,0.005,0.006,0.01,0.009,0.015l0.009,0.016c0.003,0.005,0.006,0.01,0.008,0.016
		c0.003,0.005,0.005,0.011,0.008,0.016s0.005,0.011,0.008,0.016c0.001,0.002,0.001,0.003,0.002,0.005
		c-0.002,0-0.003-0.001-0.004-0.001c-0.004-0.001-0.008-0.002-0.012-0.003c-0.004-0.001-0.008-0.002-0.012-0.003l-0.012-0.002
		c-0.004-0.001-0.008-0.001-0.012-0.002L5.853,11.22l-0.002,0l-0.002,0l-0.003,0l-0.006-0.001l-0.012-0.001
		c-0.004,0-0.008,0-0.012,0s-0.008,0-0.012,0s-0.008,0-0.012,0s-0.008,0.001-0.013,0.001c-0.004,0-0.008,0.001-0.013,0.002
		c-0.002,0-0.004,0-0.007,0.001c-0.002,0-0.004,0.001-0.007,0.002l-0.047,0.014l0.047,0.008c0.003,0.001,0.007,0.002,0.011,0.002
		c0.004,0.001,0.008,0.002,0.011,0.003c0.007,0.002,0.015,0.005,0.022,0.008c0.004,0.002,0.007,0.003,0.01,0.005
		c0.004,0.002,0.007,0.003,0.01,0.005c0.007,0.004,0.013,0.008,0.019,0.013c0.001,0.001,0.003,0.002,0.004,0.004l0.001,0.001l0,0
		l0,0l0.002,0.002c0.001,0.001,0.003,0.003,0.004,0.004l0.004,0.004c0.001,0.001,0.002,0.003,0.004,0.005
		c0.001,0.002,0.002,0.003,0.003,0.005c0.002,0.003,0.004,0.006,0.006,0.01c0.002,0.003,0.004,0.007,0.005,0.01
		c0.002,0.004,0.003,0.007,0.004,0.011c0.003,0.007,0.005,0.015,0.006,0.023c0-0.004,0-0.008,0-0.012
		c0-0.004-0.001-0.008-0.002-0.012c-0.001-0.004-0.002-0.008-0.003-0.012c-0.001-0.004-0.002-0.008-0.004-0.012
		c-0.002-0.004-0.003-0.008-0.005-0.011C5.87,11.3,5.869,11.299,5.868,11.297s-0.002-0.004-0.003-0.006l-0.004-0.005
		c-0.001-0.002-0.002-0.003-0.004-0.005l-0.002-0.002l0,0l-0.001-0.001l-0.001-0.001c-0.001-0.002-0.003-0.003-0.004-0.005
		c-0.006-0.006-0.013-0.012-0.02-0.017c-0.006-0.004-0.013-0.008-0.019-0.012c0.002,0,0.004,0,0.005,0c0.004,0,0.008,0,0.011,0.001
		l0.011,0.001l0.011,0.002l0.011,0.002c0.004,0.001,0.008,0.001,0.011,0.002l0.011,0.002c0.004,0.001,0.007,0.002,0.011,0.002
		c0.004,0.001,0.007,0.002,0.011,0.003c0.004,0.001,0.007,0.002,0.011,0.003c0.004,0.001,0.007,0.002,0.011,0.004
		c0.004,0.001,0.007,0.002,0.01,0.004l0.032,0.014l-0.013-0.031c-0.002-0.006-0.005-0.012-0.008-0.017
		c-0.003-0.006-0.005-0.011-0.008-0.017c-0.003-0.006-0.006-0.011-0.009-0.017c-0.003-0.006-0.006-0.011-0.009-0.016
		c-0.003-0.005-0.006-0.011-0.01-0.016l-0.01-0.015c-0.004-0.006-0.007-0.01-0.011-0.016c-0.004-0.005-0.008-0.01-0.012-0.015
		C5.875,11.117,5.871,11.113,5.866,11.108z"/>
	<path fill="#3D78E5" d="M5.23,10.8c0.023-0.003,0.045-0.005,0.067-0.004l0.008,0c0.003,0,0.005,0.001,0.008,0.001
		s0.005,0,0.008,0.001c0.003,0,0.005,0.001,0.008,0.001c0.003,0,0.006,0.001,0.008,0.001c0.003,0,0.005,0.001,0.008,0.002
		c0.005,0.001,0.01,0.003,0.015,0.004c0.02,0.006,0.039,0.013,0.056,0.023c0.017,0.009,0.032,0.02,0.045,0.031
		c0.013,0.011,0.023,0.022,0.032,0.033c0.009,0.011,0.016,0.021,0.021,0.029c0.005,0.009,0.009,0.015,0.011,0.02
		c0.002,0.005,0.003,0.007,0.003,0.007s-0.001-0.003-0.002-0.008c-0.002-0.005-0.004-0.013-0.008-0.022
		c-0.004-0.009-0.01-0.02-0.018-0.032c-0.008-0.012-0.018-0.025-0.03-0.037c-0.006-0.006-0.013-0.013-0.021-0.019
		c-0.008-0.006-0.016-0.012-0.025-0.017c-0.018-0.011-0.037-0.02-0.059-0.027c-0.005-0.002-0.011-0.003-0.017-0.005
		c-0.003-0.001-0.006-0.001-0.008-0.002c-0.003-0.001-0.006-0.001-0.008-0.002c-0.003,0-0.006-0.001-0.008-0.002
		c-0.003,0-0.006-0.001-0.009-0.001c-0.003,0-0.006-0.001-0.009-0.001c-0.003,0-0.006,0-0.009-0.001
		c-0.024-0.001-0.048,0-0.072,0.004c-0.024,0.003-0.047,0.008-0.069,0.014c-0.023,0.006-0.045,0.013-0.065,0.02
		c-0.021,0.007-0.04,0.015-0.059,0.023s-0.036,0.016-0.051,0.023c-0.016,0.008-0.03,0.015-0.043,0.022
		c-0.013,0.007-0.023,0.013-0.032,0.018c-0.018,0.011-0.028,0.017-0.028,0.017s0.003-0.001,0.008-0.004
		c0.005-0.002,0.012-0.005,0.022-0.009c0.009-0.004,0.021-0.009,0.034-0.014c0.013-0.005,0.028-0.011,0.044-0.018
		c0.016-0.006,0.034-0.013,0.053-0.02c0.019-0.007,0.039-0.013,0.059-0.02s0.042-0.013,0.064-0.018
		C5.185,10.807,5.207,10.803,5.23,10.8z"/>
	<path fill="#3D78E5" d="M3.692,10.754c-0.063-0.033-0.132-0.036-0.2-0.038c-0.104-0.003-0.208-0.001-0.312-0.002
		c-0.017,0-0.02,0.006-0.02,0.021c0.001,0.083,0,0.165,0,0.248c0,0.083,0,0.167,0,0.25c0,0.016,0.005,0.02,0.02,0.02
		c0.092,0,0.183,0.002,0.275,0.003c0.049,0.001,0.098-0.004,0.147-0.013c0.067-0.011,0.125-0.038,0.167-0.092
		c0.054-0.069,0.072-0.147,0.051-0.233C3.801,10.846,3.76,10.789,3.692,10.754z"/>
	<path fill="#3D78E5" d="M13.028,0.5H2.972c-0.489,0-0.886,0.397-0.886,0.886v13.229c0,0.489,0.397,0.886,0.886,0.886h10.055
		c0.489,0,0.886-0.397,0.886-0.886V1.386C13.913,0.897,13.517,0.5,13.028,0.5z M11.15,4.748l0.161,0.009v3.579H11.15V4.748z
		 M10.821,4.748l0.161,0.009v3.579h-0.161V4.748z M10.535,4.748l0.161,0.009v3.579h-0.161V4.748z M9.539,4.748L9.7,4.757v3.579
		H9.539V4.748z M9.253,4.748l0.161,0.009v3.579H9.253V4.748z M8.924,4.748l0.161,0.009v3.579H8.924V4.748z M8.572,4.748l0.161,0.009
		v3.579H8.572V4.748z M7.291,4.748l0.161,0.009v3.579H7.291V4.748z M6.961,4.748l0.161,0.009v3.579H6.961V4.748z M6.014,4.748
		l0.161,0.009v3.579H6.014V4.748z M5.685,4.748l0.161,0.009v3.579H5.685V4.748z M5.399,4.748L5.56,4.757v3.579H5.399V4.748z
		 M5.069,4.748L5.23,4.757v3.579H5.069V4.748z M4.733,4.748l0.161,0.009v3.579H4.733V4.748z M3.788,4.748l0.161,0.009v3.579H3.788
		V4.748z M3.941,11.194c-0.057,0.102-0.149,0.159-0.261,0.188c-0.052,0.013-0.105,0.018-0.159,0.021
		c-0.114,0.007-0.229,0.006-0.344,0.007c-0.019,0-0.019,0.009-0.019,0.023c0,0.175,0,0.35,0,0.526c0,0.056-0.001,0.113,0,0.169
		c0,0.016-0.006,0.021-0.02,0.021c-0.042,0-0.084,0-0.125,0C3,12.149,3,12.141,3,12.131c0-0.056,0-0.113,0-0.169
		c0-0.203,0-0.406,0-0.609c0-0.256,0-0.513,0-0.769c0-0.019,0.005-0.024,0.024-0.024c0.136,0.001,0.271-0.001,0.406,0.002
		c0.091,0.002,0.182,0.003,0.27,0.028c0.143,0.04,0.268,0.161,0.285,0.326C3.996,11.013,3.99,11.107,3.941,11.194z M4.279,8.337
		H4.117V4.748l0.161,0.009V8.337z M4.564,8.337H4.403V4.748l0.161,0.009V8.337z M6.075,11.858c-0.132,0.171-0.302,0.282-0.518,0.317
		c-0.202,0.032-0.394,0.005-0.573-0.098c-0.105-0.06-0.192-0.142-0.263-0.24c-0.078-0.106-0.125-0.225-0.143-0.356
		c-0.017-0.124-0.008-0.246,0.027-0.366c0.016-0.055,0.058-0.095,0.084-0.145c-0.011,0.008-0.023,0.017-0.034,0.026
		c0.012-0.011,0.025-0.02,0.037-0.031c0.036-0.067,0.06-0.142,0.115-0.198c0.109-0.113,0.242-0.187,0.395-0.224
		c0.066-0.016,0.132-0.023,0.192-0.022c0.183-0.001,0.345,0.042,0.489,0.143c0.184,0.129,0.306,0.302,0.344,0.525
		C6.269,11.432,6.228,11.659,6.075,11.858z M6.507,8.337H6.346V4.748l0.161,0.009V8.337z M6.675,4.748l0.161,0.009v3.579H6.675
		V4.748z M7.546,12.038c-0.1,0.11-0.225,0.158-0.37,0.149c-0.144-0.009-0.259-0.074-0.349-0.186
		c-0.033-0.041-0.062-0.085-0.089-0.131c-0.008-0.014-0.008-0.021,0.007-0.029c0.035-0.019,0.07-0.04,0.104-0.062
		c0.012-0.008,0.017-0.005,0.023,0.007c0.038,0.068,0.083,0.131,0.144,0.181c0.099,0.082,0.224,0.083,0.331,0.024
		c0.092-0.051,0.138-0.131,0.138-0.235c0-0.066-0.029-0.122-0.07-0.172c-0.069-0.085-0.152-0.153-0.238-0.22
		C7.1,11.307,7.023,11.25,6.954,11.182c-0.094-0.092-0.138-0.205-0.124-0.335c0.015-0.128,0.081-0.222,0.196-0.281
		c0.059-0.03,0.122-0.046,0.164-0.044c0.14,0.001,0.238,0.043,0.321,0.122c0.04,0.038,0.075,0.08,0.108,0.124
		c0.008,0.011,0.006,0.015-0.003,0.023c-0.035,0.026-0.07,0.052-0.104,0.079c-0.011,0.009-0.016,0.005-0.023-0.004
		c-0.036-0.048-0.074-0.096-0.124-0.131c-0.086-0.059-0.177-0.069-0.271-0.022C7.02,10.75,6.98,10.84,6.994,10.921
		c0.015,0.09,0.07,0.152,0.138,0.206c0.082,0.064,0.167,0.125,0.248,0.19c0.091,0.073,0.176,0.152,0.229,0.258
		C7.689,11.733,7.665,11.906,7.546,12.038z M7.788,8.337H7.627V4.748l0.161,0.009V8.337z M8.117,8.337H7.956V4.748l0.161,0.009
		V8.337z M8.242,4.748l0.161,0.009v3.579H8.242V4.748z M9.791,10.862c-0.035,0.026-0.07,0.053-0.104,0.08
		c-0.013,0.01-0.017-0.001-0.023-0.007c-0.038-0.045-0.078-0.086-0.125-0.121c-0.095-0.072-0.202-0.112-0.319-0.129
		c-0.159-0.023-0.31,0-0.451,0.077c-0.186,0.101-0.302,0.255-0.34,0.464c-0.028,0.155-0.013,0.308,0.062,0.449
		c0.081,0.153,0.204,0.259,0.367,0.319c0.099,0.036,0.201,0.047,0.305,0.042c0.194-0.01,0.355-0.09,0.487-0.231
		c0.026-0.028,0.026-0.027,0.057-0.004c0.026,0.02,0.052,0.04,0.078,0.059c0.011,0.008,0.014,0.014,0.004,0.026
		c-0.132,0.156-0.299,0.249-0.499,0.285c-0.075,0.014-0.151,0.019-0.228,0.016c-0.19-0.008-0.366-0.059-0.514-0.182
		c-0.129-0.107-0.217-0.241-0.264-0.403c-0.025-0.084-0.036-0.17-0.035-0.257c0.001-0.202,0.061-0.383,0.197-0.536
		c0.139-0.156,0.311-0.25,0.518-0.278c0.024-0.003,0.048-0.006,0.072-0.008c0.024-0.001,0.047,0,0.071,0
		c0.171-0.003,0.331,0.037,0.477,0.129c0.081,0.051,0.151,0.115,0.208,0.192C9.8,10.853,9.798,10.857,9.791,10.862z M10.03,8.337
		H9.869V4.748l0.161,0.009V8.337z M10.205,4.748l0.161,0.009v3.579h-0.161V4.748z M11.43,10.673
		c-0.116,0.191-0.232,0.382-0.348,0.573c-0.026,0.043-0.051,0.086-0.078,0.128c-0.007,0.012-0.011,0.023-0.011,0.037
		c0,0.237,0,0.474,0.001,0.711c0,0.02-0.005,0.027-0.025,0.026c-0.036-0.002-0.072-0.001-0.108,0
		c-0.017,0.001-0.023-0.004-0.022-0.022c0.001-0.071,0-0.142,0-0.213c0-0.168,0-0.335,0-0.503c0-0.015-0.003-0.027-0.011-0.039
		c-0.163-0.263-0.326-0.527-0.489-0.79c-0.003-0.005-0.01-0.011-0.007-0.016c0.004-0.007,0.013-0.003,0.019-0.003
		c0.047,0,0.093,0,0.14,0c0.015,0,0.022,0.005,0.03,0.017c0.127,0.206,0.255,0.411,0.382,0.616c0.004,0.006,0.008,0.011,0.013,0.019
		c0.025-0.042,0.05-0.081,0.074-0.12c0.106-0.173,0.211-0.346,0.317-0.519c0.004-0.007,0.008-0.013,0.017-0.013
		c0.057,0,0.114,0,0.174,0C11.474,10.601,11.452,10.637,11.43,10.673z M11.618,8.337h-0.161V4.748l0.161,0.009V8.337z M11.904,8.337
		h-0.161V4.748l0.161,0.009V8.337z M12.051,4.748l0.161,0.009v3.579h-0.161V4.748z M13,10.697c0.001,0.017-0.007,0.022-0.022,0.022
		c-0.031,0-0.061,0-0.092,0c-0.203,0-0.406,0-0.609,0c-0.029,0-0.029,0-0.029,0.03c0,0.146,0,0.292,0,0.438
		c0,0.02,0.004,0.027,0.026,0.027c0.226-0.001,0.452,0,0.678,0c0.005,0,0.01,0,0.015,0c0.028,0,0.028,0.001,0.028,0.028
		c0,0.035-0.001,0.07,0,0.104c0.001,0.02-0.004,0.026-0.025,0.026c-0.224-0.001-0.448,0-0.672,0c-0.011,0-0.021,0.001-0.031,0
		c-0.015-0.001-0.019,0.004-0.019,0.019c0.001,0.067,0,0.135,0,0.202c0,0.126,0,0.252,0,0.377c0,0.02,0.006,0.024,0.024,0.024
		c0.233-0.001,0.466,0,0.699-0.001c0.017,0,0.024,0.003,0.024,0.023c-0.002,0.039-0.001,0.078,0,0.117
		c0,0.013-0.005,0.018-0.017,0.018c-0.006,0-0.013,0-0.019,0c-0.281,0-0.562,0-0.843,0c-0.027,0-0.027,0-0.027-0.028
		c0-0.256,0-0.512,0-0.768s0-0.512,0-0.768c0-0.019,0.003-0.026,0.024-0.026c0.287,0.001,0.574,0.001,0.861,0
		c0.019,0,0.025,0.004,0.024,0.024C12.998,10.621,12.999,10.659,13,10.697z"/>
	<path fill="#3D78E5" d="M5.851,11.732c-0.003-0.006-0.006-0.012-0.01-0.018l-0.005-0.009c-0.002-0.003-0.004-0.006-0.005-0.009
		l-0.003-0.004c-0.001-0.002-0.003-0.003-0.004-0.005c-0.003-0.003-0.006-0.006-0.008-0.008c-0.006-0.005-0.013-0.008-0.02-0.012
		c-0.007-0.003-0.014-0.005-0.022-0.006c-0.001,0-0.003,0-0.004-0.001c0.001-0.003,0.002-0.006,0.003-0.008
		c0.003-0.008,0.004-0.017,0.005-0.025c0.001-0.008,0.001-0.017,0-0.025c0-0.008-0.002-0.016-0.003-0.024
		c-0.002-0.008-0.004-0.016-0.006-0.024c-0.002-0.008-0.005-0.015-0.008-0.023L5.756,11.52l-0.005-0.011l-0.006-0.01
		c-0.002-0.004-0.004-0.007-0.006-0.011c-0.002-0.004-0.004-0.007-0.006-0.01c-0.002-0.003-0.005-0.007-0.007-0.01
		c-0.005-0.007-0.011-0.013-0.018-0.018c-0.013-0.011-0.028-0.019-0.042-0.026c-0.015-0.007-0.03-0.012-0.045-0.016
		c-0.008-0.002-0.015-0.004-0.023-0.005c-0.008-0.002-0.016-0.003-0.024-0.004c0.015,0.005,0.029,0.011,0.044,0.017
		c0.014,0.006,0.028,0.013,0.041,0.021c0.013,0.008,0.025,0.017,0.036,0.027c0.005,0.005,0.01,0.01,0.013,0.016
		c0.002,0.003,0.003,0.006,0.005,0.009c0.002,0.003,0.004,0.007,0.005,0.01c0.003,0.007,0.006,0.013,0.009,0.02
		c0.003,0.007,0.006,0.014,0.008,0.021c0.003,0.007,0.005,0.014,0.007,0.021c0.002,0.007,0.004,0.014,0.005,0.021
		c0.001,0.007,0.003,0.014,0.003,0.021s0.001,0.014,0,0.021c0,0.007-0.001,0.014-0.003,0.021c-0.001,0.003-0.001,0.007-0.003,0.01
		c-0.007,0.014-0.019,0.028-0.019,0.028l0.026-0.002c0.003,0,0.006,0,0.009,0c0.003,0,0.006,0,0.009,0.001
		c0.006,0.001,0.012,0.002,0.018,0.004c0.006,0.002,0.011,0.005,0.016,0.008c0.002,0.002,0.005,0.003,0.007,0.005
		c0.001,0.001,0.002,0.002,0.003,0.003l0.003,0.004c0.002,0.002,0.004,0.005,0.006,0.008L5.83,11.72l0.013,0.016l0.013,0.016
		c0.004,0.005,0.009,0.011,0.013,0.016c-0.002-0.006-0.005-0.013-0.008-0.019C5.857,11.744,5.854,11.738,5.851,11.732z"/>
</g>
</svg>
