<?xml version="1.0" encoding="utf-8"?>
<!-- Generator: Adobe Illustrator 17.1.0, SVG Export Plug-In . SVG Version: 6.00 Build 0)  -->
<!DOCTYPE svg PUBLIC "-//W3C//DTD SVG 1.1//EN" "http://www.w3.org/Graphics/SVG/1.1/DTD/svg11.dtd">
<svg version="1.1" id="Layer_1" xmlns="http://www.w3.org/2000/svg" xmlns:xlink="http://www.w3.org/1999/xlink" x="0px" y="0px"
	 viewBox="0 137.4 640 191.2" enable-background="new 0 137.4 640 191.2" xml:space="preserve">
<g>
	<path fill="#A8B4BB" stroke="#A8B4BB" stroke-width="0.3" stroke-miterlimit="10" d="M191.7,245.1c-0.5,0.6-1.2,1.1-2,1.4
		s-1.7,0.4-2.6,0.4c-1.1,0-2.2-0.3-3.1-0.9s-1.8-1.6-2.5-2.9c-0.7-1.3-1.2-3.1-1.6-5.2c-0.4-2.1-0.6-4.7-0.6-7.6
		c0-3.1,0.2-5.7,0.7-7.8c0.4-2.1,1-3.8,1.7-5.2c0.7-1.3,1.6-2.3,2.5-2.9c1-0.6,1.9-0.9,2.9-0.9c1,0,1.9,0.1,2.5,0.3
		c0.7,0.2,1.3,0.5,1.7,0.8l-0.6,3.1c-0.4-0.3-0.9-0.6-1.5-0.8c-0.6-0.2-1.2-0.3-2-0.3s-1.5,0.2-2.1,0.7c-0.7,0.5-1.2,1.2-1.8,2.3
		s-0.9,2.4-1.2,4.2c-0.3,1.7-0.4,3.8-0.4,6.3c0,4.5,0.5,7.8,1.6,10.1c1.1,2.3,2.5,3.4,4.3,3.4c0.7,0,1.4-0.1,2-0.4
		c0.6-0.3,1.1-0.6,1.5-1L191.7,245.1z"/>
	<path fill="#A8B4BB" stroke="#A8B4BB" stroke-width="0.3" stroke-miterlimit="10" d="M206.3,237.3H200l-1.8,9h-2.4l6.8-32.7h1.3
		l6.8,32.7h-2.5L206.3,237.3z M200.6,234.3h5.1l-1.9-10l-0.6-4.9h-0.1l-0.6,5L200.6,234.3z"/>
	<path fill="#A8B4BB" stroke="#A8B4BB" stroke-width="0.3" stroke-miterlimit="10" d="M216.7,214.5c0.7-0.2,1.5-0.4,2.3-0.5
		c0.8-0.1,1.6-0.2,2.3-0.2c0.8,0,1.6,0.1,2.4,0.4c0.7,0.3,1.4,0.8,2,1.5c0.6,0.7,1,1.6,1.3,2.7c0.3,1.1,0.5,2.5,0.5,4.2
		c0,2.5-0.4,4.6-1.1,6.1c-0.7,1.5-1.7,2.6-2.9,3.1l1.2,1.7l4.4,12.8h-2.8l-4.8-14l-2.4-0.7v14.7h-2.4V214.5z M219.1,229.3h1.9
		c1.2,0,2.2-0.5,2.9-1.6c0.7-1.1,1.1-2.7,1.1-4.9c0-1.7-0.3-3.1-0.9-4.2c-0.6-1.1-1.5-1.7-2.6-1.7c-0.4,0-0.9,0-1.3,0.1
		c-0.5,0-0.8,0.1-1,0.2V229.3z"/>
	<path fill="#A8B4BB" stroke="#A8B4BB" stroke-width="0.3" stroke-miterlimit="10" d="M235.9,214.5c0.7-0.2,1.5-0.4,2.3-0.5
		c0.8-0.1,1.6-0.2,2.3-0.2c0.8,0,1.6,0.1,2.4,0.4c0.7,0.3,1.4,0.8,2,1.5c0.6,0.7,1,1.6,1.3,2.7c0.3,1.1,0.5,2.5,0.5,4.2
		c0,2.5-0.4,4.6-1.1,6.1c-0.7,1.5-1.7,2.6-2.9,3.1l1.2,1.7l4.4,12.8h-2.8l-4.8-14l-2.4-0.7v14.7h-2.4V214.5z M238.3,229.3h1.9
		c1.2,0,2.2-0.5,2.9-1.6c0.7-1.1,1.1-2.7,1.1-4.9c0-1.7-0.3-3.1-0.9-4.2c-0.6-1.1-1.5-1.7-2.6-1.7c-0.4,0-0.9,0-1.3,0.1
		c-0.5,0-0.8,0.1-1,0.2V229.3z"/>
	<path fill="#A8B4BB" stroke="#A8B4BB" stroke-width="0.3" stroke-miterlimit="10" d="M255.2,214.1h10v3.2h-7.6v10.9h7v3.2h-7v11.8
		h7.7v3.2h-10.1V214.1z"/>
	<path fill="#A8B4BB" stroke="#A8B4BB" stroke-width="0.3" stroke-miterlimit="10" d="M272.8,214.5c0.7-0.2,1.5-0.4,2.3-0.5
		c0.8-0.1,1.6-0.2,2.3-0.2c0.8,0,1.6,0.1,2.4,0.4c0.7,0.3,1.4,0.8,2,1.5c0.6,0.7,1,1.6,1.3,2.7c0.3,1.1,0.5,2.5,0.5,4.2
		c0,2.5-0.4,4.6-1.1,6.1c-0.7,1.5-1.7,2.6-2.9,3.1l1.2,1.7l4.4,12.8h-2.8l-4.8-14l-2.4-0.7v14.7h-2.4V214.5z M275.2,229.3h1.9
		c1.2,0,2.2-0.5,2.9-1.6c0.7-1.1,1.1-2.7,1.1-4.9c0-1.7-0.3-3.1-0.9-4.2c-0.6-1.1-1.5-1.7-2.6-1.7c-0.4,0-0.9,0-1.3,0.1
		c-0.5,0-0.8,0.1-1,0.2V229.3z"/>
	<path fill="#A8B4BB" stroke="#A8B4BB" stroke-width="0.3" stroke-miterlimit="10" d="M299.9,237.3h-6.3l-1.8,9h-2.4l6.8-32.7h1.3
		l6.8,32.7h-2.5L299.9,237.3z M294.2,234.3h5.1l-1.9-10l-0.6-4.9h-0.1l-0.6,5L294.2,234.3z"/>
	<path fill="#A8B4BB" stroke="#A8B4BB" stroke-width="0.3" stroke-miterlimit="10" d="M319.9,214.1h10v3.2h-7.6v10.9h7v3.2h-7v11.8
		h7.7v3.2h-10.1V214.1z"/>
	<path fill="#A8B4BB" stroke="#A8B4BB" stroke-width="0.3" stroke-miterlimit="10" d="M337.3,242.1c0.4,0.4,1,0.8,1.7,1.1
		c0.7,0.4,1.6,0.5,2.5,0.5c1.2,0,2.2-0.4,2.9-1.3c0.7-0.8,1.1-2.2,1.1-4c0-1.2-0.2-2.2-0.6-3.1c-0.4-0.9-1-1.7-1.6-2.5
		c-0.6-0.8-1.3-1.5-2.1-2.2c-0.7-0.7-1.4-1.5-2.1-2.4s-1.2-1.9-1.6-3c-0.4-1.1-0.6-2.5-0.6-4.1c0-2.6,0.5-4.5,1.6-5.7
		c1.1-1.2,2.5-1.9,4.2-1.9c1.1,0,2,0.1,2.9,0.4c0.8,0.3,1.5,0.6,2,1.1l-0.8,3c-0.4-0.3-0.9-0.6-1.7-0.9c-0.7-0.3-1.5-0.4-2.5-0.4
		c-1.2,0-2,0.4-2.6,1.2c-0.6,0.8-0.8,1.8-0.8,3.1c0,1.1,0.2,2,0.6,2.9c0.4,0.8,1,1.6,1.6,2.3c0.6,0.7,1.3,1.5,2.1,2.2
		c0.7,0.8,1.4,1.6,2.1,2.5c0.6,0.9,1.2,2,1.6,3.1c0.4,1.2,0.6,2.5,0.6,4.1c0,2.7-0.6,4.8-1.7,6.3s-2.7,2.3-4.7,2.3
		c-1.3,0-2.3-0.2-3.2-0.5c-0.8-0.3-1.5-0.7-2-1.2L337.3,242.1z"/>
	<path fill="#A8B4BB" stroke="#A8B4BB" stroke-width="0.3" stroke-miterlimit="10" d="M366.9,217.3h-5.5v29H359v-29h-5.5v-3.2h13.4
		V217.3z"/>
	<path fill="#A8B4BB" stroke="#A8B4BB" stroke-width="0.3" stroke-miterlimit="10" d="M373.2,214.5c0.7-0.2,1.5-0.4,2.3-0.5
		c0.8-0.1,1.6-0.2,2.3-0.2c0.8,0,1.6,0.1,2.4,0.4c0.7,0.3,1.4,0.8,2,1.5c0.6,0.7,1,1.6,1.3,2.7c0.3,1.1,0.5,2.5,0.5,4.2
		c0,2.5-0.4,4.6-1.1,6.1c-0.7,1.5-1.7,2.6-2.9,3.1l1.2,1.7l4.4,12.8h-2.8l-4.8-14l-2.4-0.7v14.7h-2.4V214.5z M375.6,229.3h1.9
		c1.2,0,2.2-0.5,2.9-1.6c0.7-1.1,1.1-2.7,1.1-4.9c0-1.7-0.3-3.1-0.9-4.2c-0.6-1.1-1.5-1.7-2.6-1.7c-0.4,0-0.9,0-1.3,0.1
		c-0.5,0-0.8,0.1-1,0.2V229.3z"/>
	<path fill="#A8B4BB" stroke="#A8B4BB" stroke-width="0.3" stroke-miterlimit="10" d="M400.3,237.3H394l-1.8,9h-2.4l6.8-32.7h1.3
		l6.8,32.7h-2.5L400.3,237.3z M394.6,234.3h5.1l-1.9-10l-0.6-4.9h-0.1l-0.6,5L394.6,234.3z"/>
	<path fill="#A8B4BB" stroke="#A8B4BB" stroke-width="0.3" stroke-miterlimit="10" d="M410.8,214.1c0.3-0.1,0.7-0.2,1.1-0.2
		c0.4,0,0.8-0.1,1.3-0.1c0.4,0,0.8,0,1.3,0c0.4,0,0.8,0,1.2,0c1.6,0,2.9,0.4,4,1.1c1.1,0.8,2,1.9,2.7,3.3c0.7,1.4,1.2,3.1,1.5,5.1
		c0.3,2,0.4,4.2,0.4,6.7c0,2.2-0.1,4.3-0.4,6.3c-0.3,2-0.8,3.8-1.5,5.3c-0.7,1.5-1.6,2.8-2.7,3.7c-1.1,0.9-2.5,1.4-4.2,1.4
		c-0.3,0-0.6,0-1.1,0s-0.9,0-1.3-0.1c-0.5,0-0.9-0.1-1.3-0.1s-0.7-0.1-0.9-0.1V214.1z M415.7,216.9c-0.2,0-0.4,0-0.7,0
		c-0.2,0-0.5,0-0.7,0c-0.2,0-0.5,0.1-0.7,0.1c-0.2,0-0.4,0.1-0.5,0.1v26.2c0.1,0,0.2,0.1,0.5,0.1s0.5,0,0.7,0c0.2,0,0.5,0,0.7,0
		c0.2,0,0.4,0,0.5,0c1.2,0,2.2-0.4,2.9-1.1s1.4-1.7,1.9-3c0.5-1.2,0.8-2.7,1-4.3s0.3-3.4,0.3-5.2c0-1.6-0.1-3.2-0.3-4.8
		s-0.5-3-0.9-4.2c-0.4-1.2-1-2.2-1.8-2.9C417.9,217.3,416.9,216.9,415.7,216.9z"/>
	<path fill="#A8B4BB" stroke="#A8B4BB" stroke-width="0.3" stroke-miterlimit="10" d="M439.5,237.3h-6.3l-1.8,9H429l6.8-32.7h1.3
		l6.8,32.7h-2.5L439.5,237.3z M433.8,234.3h5.1l-1.9-10l-0.6-4.9h-0.1l-0.6,5L433.8,234.3z"/>
	<path fill="#A8B4BB" stroke="#A8B4BB" stroke-width="0.3" stroke-miterlimit="10" d="M460.4,237.7c0-1.2,0.1-2.4,0.4-3.5
		c0.3-1.1,0.6-2.1,1-3c0.4-0.9,0.9-1.8,1.4-2.6c0.5-0.8,1.1-1.5,1.6-2.1c-0.4-1.1-0.8-2.2-1.1-3.4c-0.3-1.2-0.5-2.4-0.5-3.7
		c0-0.7,0.1-1.5,0.2-2.2c0.1-0.7,0.4-1.3,0.7-1.9c0.3-0.6,0.7-1,1.2-1.3c0.5-0.3,1.1-0.5,1.8-0.5c0.7,0,1.3,0.2,1.8,0.5
		c0.5,0.3,0.9,0.7,1.2,1.2c0.3,0.5,0.5,1.1,0.7,1.7c0.1,0.6,0.2,1.3,0.2,2c0,1.3-0.3,2.7-0.9,4s-1.5,2.7-2.6,4
		c0.3,0.9,0.6,1.8,0.9,2.7c0.4,0.9,0.7,1.9,1.1,2.8c0.4,0.9,0.8,1.9,1.2,2.8c0.4,0.9,0.8,1.7,1.2,2.5c0.4-0.8,0.7-1.8,1.1-3.1
		c0.3-1.3,0.6-2.5,0.8-3.7l1.9,1.1c-0.1,0.5-0.3,1.1-0.4,1.9c-0.2,0.7-0.4,1.5-0.6,2.2s-0.5,1.5-0.7,2.2c-0.2,0.7-0.5,1.3-0.7,1.7
		c0.7,1.2,1.3,2.1,1.8,2.8c0.5,0.7,1,1.2,1.5,1.7l-1.4,2.4c-1-0.8-2-2.2-3.1-4.3c-0.3,0.6-0.6,1.1-1,1.6c-0.4,0.5-0.8,1-1.2,1.4
		c-0.5,0.4-1,0.7-1.5,1s-1.2,0.4-1.8,0.4c-0.8,0-1.6-0.2-2.4-0.6s-1.4-1-1.9-1.7s-1-1.7-1.3-2.9
		C460.5,240.6,460.4,239.2,460.4,237.7z M470.7,240.3c-0.5-0.9-1-1.8-1.4-2.9s-0.9-2-1.3-3c-0.4-1-0.8-2-1.2-2.9
		c-0.4-1-0.6-1.8-0.9-2.6c-0.4,0.6-0.9,1.2-1.3,1.8c-0.4,0.6-0.7,1.3-1,2c-0.3,0.7-0.5,1.4-0.7,2.3s-0.2,1.7-0.2,2.7
		c0,1,0.1,1.9,0.3,2.7c0.2,0.8,0.5,1.4,0.9,2c0.4,0.5,0.8,0.9,1.3,1.2c0.5,0.3,1,0.4,1.5,0.4c0.4,0,0.8-0.1,1.2-0.3s0.8-0.5,1.1-0.8
		s0.7-0.7,0.9-1.1C470.2,241.2,470.5,240.8,470.7,240.3z M465.5,219.4c0,0.9,0.1,1.8,0.3,2.7c0.2,0.9,0.5,1.8,0.8,2.7
		c0.9-1.1,1.5-2.1,1.8-3c0.3-0.9,0.5-1.7,0.5-2.4c0-0.9-0.1-1.6-0.4-2.2c-0.2-0.6-0.7-0.9-1.3-0.9c-0.6,0-1,0.3-1.3,0.9
		C465.6,217.8,465.5,218.5,465.5,219.4z"/>
	<path fill="#A8B4BB" stroke="#A8B4BB" stroke-width="0.3" stroke-miterlimit="10" d="M494.9,242.1c0.4,0.4,1,0.8,1.7,1.1
		c0.7,0.4,1.6,0.5,2.5,0.5c1.2,0,2.2-0.4,2.9-1.3c0.7-0.8,1.1-2.2,1.1-4c0-1.2-0.2-2.2-0.6-3.1c-0.4-0.9-1-1.7-1.6-2.5
		c-0.6-0.8-1.3-1.5-2.1-2.2c-0.7-0.7-1.4-1.5-2.1-2.4s-1.2-1.9-1.6-3c-0.4-1.1-0.6-2.5-0.6-4.1c0-2.6,0.5-4.5,1.6-5.7
		c1.1-1.2,2.5-1.9,4.2-1.9c1.1,0,2,0.1,2.9,0.4c0.8,0.3,1.5,0.6,2,1.1l-0.8,3c-0.4-0.3-0.9-0.6-1.7-0.9c-0.7-0.3-1.5-0.4-2.5-0.4
		c-1.2,0-2,0.4-2.6,1.2c-0.6,0.8-0.8,1.8-0.8,3.1c0,1.1,0.2,2,0.6,2.9c0.4,0.8,1,1.6,1.6,2.3c0.6,0.7,1.3,1.5,2.1,2.2
		c0.7,0.8,1.4,1.6,2.1,2.5c0.6,0.9,1.2,2,1.6,3.1c0.4,1.2,0.6,2.5,0.6,4.1c0,2.7-0.6,4.8-1.7,6.3s-2.7,2.3-4.7,2.3
		c-1.3,0-2.3-0.2-3.2-0.5c-0.8-0.3-1.5-0.7-2-1.2L494.9,242.1z"/>
	<path fill="#A8B4BB" stroke="#A8B4BB" stroke-width="0.3" stroke-miterlimit="10" d="M513.1,214.1h2.4v32.2h-2.4V214.1z"/>
	<path fill="#A8B4BB" stroke="#A8B4BB" stroke-width="0.3" stroke-miterlimit="10" d="M523.7,242.1c0.4,0.4,1,0.8,1.7,1.1
		c0.7,0.4,1.6,0.5,2.5,0.5c1.2,0,2.2-0.4,2.9-1.3c0.7-0.8,1.1-2.2,1.1-4c0-1.2-0.2-2.2-0.6-3.1c-0.4-0.9-1-1.7-1.6-2.5
		c-0.6-0.8-1.3-1.5-2.1-2.2c-0.7-0.7-1.4-1.5-2.1-2.4s-1.2-1.9-1.6-3c-0.4-1.1-0.6-2.5-0.6-4.1c0-2.6,0.5-4.5,1.6-5.7
		c1.1-1.2,2.5-1.9,4.2-1.9c1.1,0,2,0.1,2.9,0.4c0.8,0.3,1.5,0.6,2,1.1l-0.8,3c-0.4-0.3-0.9-0.6-1.7-0.9c-0.7-0.3-1.5-0.4-2.5-0.4
		c-1.2,0-2,0.4-2.6,1.2c-0.6,0.8-0.8,1.8-0.8,3.1c0,1.1,0.2,2,0.6,2.9c0.4,0.8,1,1.6,1.6,2.3c0.6,0.7,1.3,1.5,2.1,2.2
		c0.7,0.8,1.4,1.6,2.1,2.5c0.6,0.9,1.2,2,1.6,3.1c0.4,1.2,0.6,2.5,0.6,4.1c0,2.7-0.6,4.8-1.7,6.3s-2.7,2.3-4.7,2.3
		c-1.3,0-2.3-0.2-3.2-0.5c-0.8-0.3-1.5-0.7-2-1.2L523.7,242.1z"/>
	<path fill="#A8B4BB" stroke="#A8B4BB" stroke-width="0.3" stroke-miterlimit="10" d="M553.3,217.3h-5.5v29h-2.4v-29h-5.5v-3.2h13.4
		V217.3z"/>
	<path fill="#A8B4BB" stroke="#A8B4BB" stroke-width="0.3" stroke-miterlimit="10" d="M559.7,214.1h10v3.2h-7.6v10.9h7v3.2h-7v11.8
		h7.7v3.2h-10.1V214.1z"/>
	<path fill="#A8B4BB" stroke="#A8B4BB" stroke-width="0.3" stroke-miterlimit="10" d="M591.2,225.2l0.3-4.9h-0.1l-1,4.6l-4.5,14H585
		l-4.7-14l-1-4.6h-0.1l0.4,4.9v21.2h-2.3v-32.2h2l5.4,15.8l0.8,3.8h0.1l0.8-3.8l5.1-15.8h2.1v32.2h-2.4V225.2z"/>
	<path fill="#A8B4BB" stroke="#A8B4BB" stroke-width="0.3" stroke-miterlimit="10" d="M610.1,237.3h-6.3l-1.8,9h-2.4l6.8-32.7h1.3
		l6.8,32.7h-2.5L610.1,237.3z M604.4,234.3h5.1l-1.9-10l-0.6-4.9h-0.1l-0.6,5L604.4,234.3z"/>
	<path fill="#A8B4BB" stroke="#A8B4BB" stroke-width="0.3" stroke-miterlimit="10" d="M620.4,242.1c0.4,0.4,1,0.8,1.7,1.1
		c0.7,0.4,1.6,0.5,2.5,0.5c1.2,0,2.2-0.4,2.9-1.3c0.7-0.8,1.1-2.2,1.1-4c0-1.2-0.2-2.2-0.6-3.1c-0.4-0.9-1-1.7-1.6-2.5
		c-0.6-0.8-1.3-1.5-2.1-2.2c-0.7-0.7-1.4-1.5-2.1-2.4c-0.6-0.9-1.2-1.9-1.6-3c-0.4-1.1-0.6-2.5-0.6-4.1c0-2.6,0.5-4.5,1.6-5.7
		c1.1-1.2,2.5-1.9,4.2-1.9c1.1,0,2,0.1,2.9,0.4s1.5,0.6,2,1.1l-0.8,3c-0.4-0.3-0.9-0.6-1.7-0.9c-0.7-0.3-1.5-0.4-2.5-0.4
		c-1.2,0-2,0.4-2.6,1.2c-0.6,0.8-0.8,1.8-0.8,3.1c0,1.1,0.2,2,0.6,2.9c0.4,0.8,1,1.6,1.6,2.3s1.3,1.5,2.1,2.2
		c0.7,0.8,1.4,1.6,2.1,2.5c0.6,0.9,1.2,2,1.6,3.1c0.4,1.2,0.6,2.5,0.6,4.1c0,2.7-0.6,4.8-1.7,6.3s-2.7,2.3-4.7,2.3
		c-1.3,0-2.3-0.2-3.2-0.5c-0.8-0.3-1.5-0.7-2-1.2L620.4,242.1z"/>
</g>
<linearGradient id="XMLID_3_" gradientUnits="userSpaceOnUse" x1="78.9692" y1="182.8442" x2="78.9692" y2="291.1558">
	<stop  offset="0" style="stop-color:#0095D1"/>
	<stop  offset="0.6659" style="stop-color:#363180"/>
</linearGradient>
<path id="XMLID_2_" fill="url(#XMLID_3_)" d="M42.3,233.1c0,0,5.1-27.9,38.7-43.2c0,0,19.3-8.8,35.3-6.8c0,0,45,2.2,31.7,42.3
	c0,0-6,25.5-35.6,42.5c0,0-14.3,9.5-39.7,7.9l37-29c0,0,9.7,5.6,13.8-4.4c0,0,1.7-9.1-6.8-10.4c0,0-10.6-1.4-9.9,10.4l-82.2,48.7
	l91.4-73.1c0,0,13.1,5.1,14.5-7.9c0,0-1.9-8.4-10.4-7.2c0,0-8,1.4-7.5,11.6l-105.3,62l78.7-63.1c0,0,8.5,4.2,13.1-1.6
	c0,0,3.6-6.7-1.9-11.1c0,0-13.5-6-13.5,8.6L42.3,233.1z"/>
</svg>
