<svg  xmlns="http://www.w3.org/2000/svg">
<symbol viewBox="0 0 16 16" id="logo">
<style type="text/css">
	.st0{fill:url(#XMLID_3_);}
	.st1{fill:#FFFFFF;}
</style>
<linearGradient id="XMLID_3_" gradientUnits="userSpaceOnUse" x1="8" y1="2.3264" x2="8" y2="13.6736">
	<stop  offset="0" style="stop-color:#0095D1"/>
	<stop  offset="0.6659" style="stop-color:#363180"/>
</linearGradient>
<path id="XMLID_1_" class="st0" d="M2.313,13.674l9.412-7.529c0.135,0.073,0.289,0.115,0.453,0.115c0.525,0,0.95-0.425,0.95-0.95
	s-0.425-0.95-0.95-0.95s-0.95,0.425-0.95,0.95c0,0.164,0.042,0.318,0.115,0.453L0.5,12.144l8.298-6.646
	C8.949,5.6,9.132,5.659,9.328,5.659c0.525,0,0.95-0.425,0.95-0.95s-0.425-0.95-0.95-0.95s-0.95,0.425-0.95,0.95
	c0,0.148,0.034,0.288,0.094,0.413L4.167,7.596c0,0,0.534-2.923,4.055-4.526c0,0,2.022-0.922,3.699-0.712
	c0,0,4.715,0.231,3.321,4.432c0,0-0.629,2.672-3.73,4.453c0,0-1.498,0.995-4.16,0.828l3.808-2.985l0.013-0.004
	c0.156,0.112,0.347,0.178,0.554,0.178c0.525,0,0.95-0.425,0.95-0.95s-0.425-0.95-0.95-0.95s-0.95,0.425-0.95,0.95
	c0,0.111,0.019,0.218,0.054,0.317L2.313,13.674z"/>
<path class="st1" d="M29.161,15.208"/>
</symbol>
<symbol id="name" viewBox="-121.167 0 258 16">
	<g>
		<path style="fill:#A8B4BB;" d="M-117.729,12.388c-0.909-1.074-1.362-2.535-1.362-4.383c0-1.853,0.452-3.317,1.358-4.391
			s2.137-1.612,3.693-1.612c1.208,0,2.239,0.345,3.097,1.033c0.858,0.688,1.371,1.586,1.541,2.692h-1.453
			c-0.191-0.741-0.571-1.327-1.143-1.758c-0.571-0.431-1.252-0.647-2.041-0.647c-1.101,0-1.973,0.421-2.616,1.262
			s-0.965,1.983-0.965,3.422c0,1.435,0.322,2.573,0.969,3.414c0.645,0.842,1.52,1.262,2.62,1.262c0.799,0,1.483-0.191,2.053-0.575
			c0.569-0.383,0.943-0.907,1.123-1.568h1.453c-0.191,1.054-0.705,1.894-1.545,2.521c-0.84,0.627-1.867,0.941-3.085,0.941
			C-115.588,14-116.821,13.463-117.729,12.388z"/>
		<path style="fill:#A8B4BB;" d="M-99.556,13.731c-0.233-0.661-0.425-1.208-0.575-1.64c-0.151-0.431-0.344-0.978-0.576-1.641h-4.558
			l-1.152,3.28h-1.501l4.225-11.459h1.414l4.224,11.458h-1.501V13.731z M-103.05,4.122c-0.244,0.688-0.454,1.287-0.631,1.795
			c-0.178,0.508-0.355,1.016-0.532,1.525c-0.178,0.508-0.388,1.107-0.631,1.795h3.716l-1.795-5.115H-103.05z"/>
		<path style="fill:#A8B4BB;" d="M-94.617,9.196c0,0.911,0,1.667,0,2.267c0,0.602,0,1.357,0,2.267h-1.429V2.271h4.376
			c1.107,0,1.992,0.311,2.656,0.933c0.664,0.622,0.996,1.449,0.996,2.481c0,0.8-0.203,1.49-0.612,2.073
			c-0.408,0.582-0.972,0.988-1.691,1.215l2.652,4.757h-1.675l-2.454-4.534h-2.819V9.196z M-94.617,3.542c0,0.593,0,1.107,0,1.541
			s0,0.868,0,1.302c0,0.434,0,0.948,0,1.541h2.819c0.736,0,1.303-0.189,1.704-0.568c0.4-0.378,0.6-0.92,0.6-1.624
			c0-0.688-0.209-1.226-0.627-1.612c-0.418-0.386-0.997-0.579-1.739-0.579C-91.861,3.542-94.617,3.542-94.617,3.542z"/>
		<path style="fill:#A8B4BB;" d="M-83.992,9.196c0,0.911,0,1.667,0,2.267c0,0.602,0,1.357,0,2.267h-1.429V2.271h4.376
			c1.107,0,1.992,0.311,2.656,0.933c0.664,0.622,0.996,1.449,0.996,2.481c0,0.8-0.203,1.49-0.612,2.073
			c-0.408,0.582-0.972,0.988-1.691,1.215l2.652,4.757h-1.675l-2.454-4.534h-2.819V9.196z M-83.992,3.542c0,0.593,0,1.107,0,1.541
			s0,0.868,0,1.302c0,0.434,0,0.948,0,1.541h2.819c0.736,0,1.303-0.189,1.704-0.568c0.4-0.378,0.6-0.92,0.6-1.624
			c0-0.688-0.209-1.226-0.627-1.612c-0.418-0.386-0.997-0.579-1.739-0.579C-81.237,3.542-83.992,3.542-83.992,3.542z"/>
		<path style="fill:#A8B4BB;" d="M-67.697,12.444c0,0.26,0,0.475,0,0.643c0,0.17,0,0.384,0,0.643h-7.1V2.271h7.099v1.287h-5.67v3.676
			h5.376v1.271h-5.376v3.939H-67.697z"/>
		<path style="fill:#A8B4BB;" d="M-63.679,9.196c0,0.911,0,1.667,0,2.267c0,0.602,0,1.357,0,2.267h-1.429V2.271h4.376
			c1.107,0,1.992,0.311,2.656,0.933s0.996,1.449,0.996,2.481c0,0.8-0.203,1.49-0.612,2.073c-0.408,0.582-0.972,0.988-1.691,1.215
			l2.652,4.757h-1.675l-2.454-4.534h-2.819V9.196z M-63.679,3.542c0,0.593,0,1.107,0,1.541s0,0.868,0,1.302c0,0.434,0,0.948,0,1.541
			h2.819c0.736,0,1.303-0.189,1.704-0.568c0.4-0.378,0.6-0.92,0.6-1.624c0-0.688-0.209-1.226-0.627-1.612
			c-0.418-0.386-0.997-0.579-1.739-0.579C-60.923,3.542-63.679,3.542-63.679,3.542z"/>
		<path style="fill:#A8B4BB;" d="M-47.035,13.731c-0.233-0.661-0.425-1.208-0.575-1.64c-0.151-0.431-0.343-0.978-0.576-1.641h-4.558
			l-1.152,3.28h-1.501l4.224-11.458h1.414l4.224,11.458H-47.035z M-50.529,4.122c-0.243,0.688-0.453,1.287-0.631,1.795
			s-0.355,1.016-0.532,1.525c-0.177,0.508-0.388,1.106-0.631,1.794h3.716l-1.795-5.114H-50.529z"/>
		<path style="fill:#A8B4BB;" d="M-31.836,12.444c0,0.26,0,0.475,0,0.643c0,0.17,0,0.384,0,0.643h-7.099V2.271h7.099v1.287h-5.67
			v3.676h5.376v1.271h-5.376v3.939H-31.836z"/>
		<path style="fill:#A8B4BB;" d="M-29.795,10.736c0.291,0,0.532,0,0.723,0c0.191,0,0.432,0,0.723,0c0.09,0.599,0.4,1.075,0.929,1.429
			c0.53,0.356,1.202,0.532,2.017,0.532c0.774,0,1.413-0.187,1.918-0.56c0.505-0.373,0.758-0.843,0.758-1.41
			c0-0.487-0.186-0.891-0.556-1.215c-0.37-0.322-0.95-0.581-1.739-0.779l-1.469-0.381c-1.038-0.264-1.792-0.641-2.264-1.131
			c-0.472-0.489-0.706-1.142-0.706-1.958c0-0.974,0.372-1.761,1.116-2.362C-27.602,2.301-26.624,2-25.411,2
			c1.107,0,2.033,0.297,2.779,0.889c0.746,0.593,1.149,1.353,1.208,2.279h-1.437c-0.101-0.587-0.38-1.047-0.838-1.377
			c-0.457-0.33-1.044-0.496-1.758-0.496c-0.762,0-1.375,0.175-1.839,0.524c-0.463,0.35-0.695,0.815-0.695,1.398
			c0,0.45,0.171,0.815,0.512,1.096c0.342,0.281,0.907,0.521,1.695,0.723l1.199,0.317c1.186,0.297,2.037,0.694,2.553,1.191
			c0.516,0.498,0.775,1.167,0.775,2.009c0,1.054-0.385,1.892-1.156,2.514C-23.183,13.689-24.224,14-25.537,14
			c-1.212,0-2.207-0.296-2.982-0.889C-29.296,12.518-29.721,11.727-29.795,10.736z"/>
		<path style="fill:#A8B4BB;" d="M-14.477,13.731c-0.286,0-0.524,0-0.715,0c-0.19,0-0.429,0-0.715,0V3.558h-3.693V2.271h8.814v1.287
			h-3.693C-14.477,3.558-14.477,13.731-14.477,13.731z"/>
		<path style="fill:#A8B4BB;" d="M-7.148,9.196c0,0.911,0,1.667,0,2.267c0,0.602,0,1.357,0,2.267h-1.429V2.271h4.376
			c1.107,0,1.992,0.311,2.656,0.933s0.996,1.449,0.996,2.481c0,0.8-0.203,1.49-0.612,2.073c-0.408,0.582-0.972,0.988-1.691,1.215
			l2.652,4.757h-1.675l-2.454-4.534h-2.819V9.196z M-7.148,3.542c0,0.593,0,1.107,0,1.541s0,0.868,0,1.302c0,0.434,0,0.948,0,1.541
			h2.819c0.736,0,1.303-0.189,1.704-0.568c0.4-0.378,0.6-0.92,0.6-1.624c0-0.688-0.209-1.226-0.627-1.612
			C-3.071,3.735-3.65,3.542-4.392,3.542C-4.392,3.542-7.148,3.542-7.148,3.542z"/>
		<path style="fill:#A8B4BB;" d="M9.496,13.731c-0.233-0.661-0.425-1.208-0.575-1.64c-0.15-0.431-0.343-0.978-0.575-1.64H3.788
			l-1.152,3.28H1.135L5.359,2.273h1.414l4.224,11.458H9.496V13.731z M6.003,4.122C5.76,4.81,5.549,5.409,5.372,5.917
			C5.194,6.426,5.017,6.934,4.84,7.442C4.663,7.95,4.452,8.549,4.209,9.237h3.716L6.13,4.123H6.003V4.122z"/>
		<path style="fill:#A8B4BB;" d="M13.006,2.271c0.794,0,1.449,0,1.966,0s1.171,0,1.966,0c1.699,0,3.026,0.503,3.978,1.508
			c0.953,1.006,1.429,2.412,1.429,4.216c0,1.805-0.476,3.212-1.425,4.22s-2.278,1.512-3.982,1.512h-3.931V2.271H13.006z
			 M14.435,3.558c0,0.858,0,1.624,0,2.299s0,1.389,0,2.144s0,1.469,0,2.144s0,1.441,0,2.299h2.406c1.282,0,2.275-0.389,2.982-1.167
			c0.707-0.778,1.06-1.866,1.06-3.264c0-1.403-0.357-2.496-1.068-3.28c-0.711-0.784-1.704-1.175-2.974-1.175
			C16.841,3.558,14.435,3.558,14.435,3.558z"/>
		<path style="fill:#A8B4BB;" d="M32.262,13.731c-0.233-0.661-0.425-1.208-0.575-1.64c-0.15-0.431-0.343-0.978-0.575-1.64h-4.558
			l-1.152,3.28h-1.501l4.224-11.458h1.414l4.224,11.458h-1.501V13.731z M28.769,4.122c-0.243,0.688-0.453,1.287-0.631,1.795
			c-0.178,0.508-0.355,1.016-0.532,1.525s-0.388,1.107-0.631,1.795h3.716l-1.795-5.114h-0.127V4.122z"/>
		<path style="fill:#A8B4BB;" d="M48.454,13.731c-0.35-0.381-0.701-0.762-1.056-1.143c-0.487,0.429-1.053,0.762-1.699,1
			c-0.646,0.238-1.315,0.358-2.009,0.358c-1.138,0-2.068-0.306-2.791-0.917c-0.723-0.611-1.084-1.396-1.084-2.354
			c0-0.677,0.187-1.28,0.56-1.806c0.373-0.527,0.944-0.991,1.712-1.394c0.037-0.016,0.082-0.037,0.135-0.063s0.107-0.054,0.163-0.083
			c0.056-0.028,0.105-0.054,0.147-0.075c-0.53-0.556-0.902-1.038-1.116-1.445c-0.214-0.408-0.321-0.82-0.321-1.239
			c0-0.736,0.277-1.347,0.833-1.835c0.556-0.487,1.251-0.731,2.089-0.731c0.847,0,1.546,0.242,2.096,0.727
			c0.55,0.485,0.825,1.103,0.825,1.854c0,0.587-0.191,1.112-0.575,1.572c-0.384,0.46-1.017,0.924-1.902,1.389l2.866,3.081
			c0.18-0.36,0.315-0.784,0.405-1.275c0.09-0.489,0.135-1.092,0.135-1.806v-0.2H49.2v0.206c0,0.889-0.079,1.664-0.238,2.323
			c-0.159,0.659-0.394,1.233-0.706,1.719l1.993,2.137h-1.795V13.731z M41.664,9.323c-0.281,0.387-0.421,0.805-0.421,1.254
			c0,0.641,0.237,1.162,0.71,1.56c0.474,0.4,1.095,0.6,1.862,0.6c0.519,0,1.028-0.097,1.525-0.29
			c0.497-0.192,0.903-0.453,1.215-0.783l-3.24-3.541c-0.026,0.011-0.064,0.027-0.115,0.052c-0.051,0.024-0.103,0.048-0.154,0.071
			c-0.052,0.023-0.099,0.047-0.135,0.067C42.361,8.601,41.946,8.937,41.664,9.323z M45.167,5.718c0.286-0.317,0.429-0.68,0.429-1.088
			c0-0.445-0.146-0.805-0.437-1.079c-0.291-0.275-0.67-0.413-1.135-0.413c-0.455,0-0.829,0.14-1.123,0.421s-0.441,0.643-0.441,1.088
			c0,0.317,0.092,0.633,0.277,0.945c0.186,0.313,0.503,0.694,0.953,1.143C44.388,6.375,44.881,6.035,45.167,5.718z"/>
		<path style="fill:#A8B4BB;" d="M55.975,10.736c0.291,0,0.532,0,0.723,0c0.191,0,0.432,0,0.723,0c0.09,0.599,0.4,1.075,0.929,1.429
			c0.53,0.356,1.202,0.532,2.017,0.532c0.774,0,1.413-0.187,1.918-0.56c0.505-0.373,0.758-0.843,0.758-1.41
			c0-0.487-0.186-0.891-0.556-1.215c-0.37-0.322-0.95-0.581-1.739-0.779l-1.469-0.381c-1.038-0.264-1.792-0.641-2.264-1.131
			c-0.472-0.489-0.706-1.142-0.706-1.958c0-0.974,0.372-1.761,1.116-2.362C58.167,2.301,59.146,2,60.359,2
			c1.107,0,2.033,0.297,2.779,0.889c0.746,0.593,1.149,1.353,1.208,2.279h-1.437c-0.101-0.587-0.38-1.047-0.838-1.377
			c-0.457-0.33-1.044-0.496-1.758-0.496c-0.762,0-1.375,0.175-1.839,0.524c-0.464,0.35-0.695,0.815-0.695,1.398
			c0,0.45,0.171,0.815,0.512,1.096c0.342,0.281,0.907,0.521,1.695,0.723l1.199,0.317c1.186,0.297,2.037,0.694,2.553,1.191
			c0.516,0.498,0.775,1.167,0.775,2.009c0,1.054-0.385,1.892-1.156,2.514C62.586,13.689,61.546,14,60.232,14
			c-1.212,0-2.207-0.296-2.982-0.889C56.474,12.518,56.049,11.727,55.975,10.736z"/>
		<path style="fill:#A8B4BB;" d="M68.314,13.731c-0.286,0-0.524,0-0.715,0c-0.19,0-0.429,0-0.715,0V2.271h1.429V13.731z"/>
		<path style="fill:#A8B4BB;" d="M70.689,10.736c0.291,0,0.532,0,0.723,0s0.432,0,0.723,0c0.09,0.599,0.4,1.075,0.929,1.429
			c0.53,0.356,1.202,0.532,2.017,0.532c0.774,0,1.413-0.187,1.918-0.56c0.505-0.373,0.758-0.843,0.758-1.41
			c0-0.487-0.186-0.891-0.556-1.215c-0.37-0.322-0.95-0.581-1.739-0.779l-1.469-0.381c-1.038-0.264-1.792-0.641-2.264-1.131
			c-0.472-0.489-0.706-1.142-0.706-1.958c0-0.974,0.372-1.761,1.116-2.362C72.881,2.301,73.86,2,75.072,2
			c1.107,0,2.033,0.297,2.779,0.889S79,4.242,79.059,5.168h-1.437c-0.101-0.587-0.38-1.047-0.838-1.377
			c-0.457-0.33-1.044-0.496-1.758-0.496c-0.762,0-1.375,0.175-1.839,0.524s-0.695,0.815-0.695,1.398c0,0.45,0.171,0.815,0.512,1.096
			s0.907,0.521,1.695,0.723l1.199,0.317c1.186,0.297,2.037,0.694,2.553,1.191c0.516,0.498,0.775,1.167,0.775,2.009
			c0,1.054-0.385,1.892-1.156,2.514C77.3,13.689,76.26,14,74.946,14c-1.212,0-2.207-0.296-2.982-0.889
			C71.188,12.518,70.763,11.727,70.689,10.736z"/>
		<path style="fill:#A8B4BB;" d="M86.006,13.731c-0.286,0-0.524,0-0.715,0c-0.19,0-0.429,0-0.715,0V3.558h-3.693V2.271h8.814v1.287
			h-3.693V13.731z"/>
		<path style="fill:#A8B4BB;" d="M99.006,12.444c0,0.26,0,0.475,0,0.643c0,0.17,0,0.384,0,0.643h-7.099V2.271h7.099v1.287h-5.67
			v3.676h5.376v1.271h-5.376v3.939H99.006z"/>
		<path style="fill:#A8B4BB;" d="M112.887,13.731c-0.27,0-0.492,0-0.667,0c-0.175,0-0.397,0-0.667,0V4.979h-0.096l-3.613,8.671
			h-1.208l-3.613-8.671h-0.096v8.75h-1.334V2.271h1.66l3.922,9.481h0.127l3.922-9.481h1.66v11.459H112.887z"/>
		<path style="fill:#A8B4BB;" d="M123.257,13.731c-0.233-0.661-0.425-1.208-0.575-1.64c-0.15-0.431-0.343-0.978-0.575-1.64h-4.558
			l-1.152,3.28h-1.501l4.224-11.458h1.414l4.224,11.458h-1.501V13.731z M119.763,4.122c-0.243,0.688-0.453,1.287-0.631,1.795
			s-0.355,1.016-0.532,1.525s-0.388,1.107-0.631,1.795h3.716l-1.795-5.114h-0.127V4.122z"/>
		<path style="fill:#A8B4BB;" d="M126.219,10.736c0.291,0,0.532,0,0.723,0s0.432,0,0.723,0c0.09,0.599,0.4,1.075,0.929,1.429
			c0.53,0.356,1.202,0.532,2.017,0.532c0.774,0,1.413-0.187,1.918-0.56c0.505-0.373,0.758-0.843,0.758-1.41
			c0-0.487-0.186-0.891-0.556-1.215c-0.37-0.322-0.95-0.581-1.739-0.779l-1.469-0.381c-1.038-0.264-1.792-0.641-2.264-1.131
			c-0.472-0.489-0.706-1.142-0.706-1.958c0-0.974,0.372-1.761,1.116-2.362C128.412,2.301,129.391,2,130.603,2
			c1.107,0,2.033,0.297,2.779,0.889c0.746,0.593,1.149,1.353,1.208,2.279h-1.437c-0.101-0.587-0.38-1.047-0.838-1.377
			c-0.457-0.33-1.044-0.496-1.758-0.496c-0.762,0-1.375,0.175-1.839,0.524s-0.695,0.815-0.695,1.398c0,0.45,0.171,0.815,0.512,1.096
			s0.907,0.521,1.695,0.723l1.199,0.317c1.186,0.297,2.037,0.694,2.553,1.191c0.516,0.498,0.775,1.167,0.775,2.009
			c0,1.054-0.385,1.892-1.156,2.514c-0.77,0.622-1.811,0.933-3.125,0.933c-1.212,0-2.207-0.296-2.982-0.889
			C126.718,12.518,126.293,11.727,126.219,10.736z"/>
	</g>
</symbol>
<symbol viewBox="0 0 16 16" id="poscye-icon">
	<g display="none">
		<path display="inline" fill="#3A7FBC" d="M3.345,15.5c-0.505,0-0.913-0.387-0.913-0.867V1.367c0-0.48,0.408-0.867,0.913-0.867
			h10.173c0.505,0,0.913,0.387,0.913,0.867v13.266c0,0.48-0.408,0.867-0.913,0.867C13.518,15.5,3.345,15.5,3.345,15.5z"/>
	</g>
	<g>
		<path fill="#3D78E5" d="M5.258,11.067c0.001-0.01,0.005-0.019,0.01-0.026c0.005-0.007,0.013-0.012,0.023-0.016
			c0.009-0.003,0.019-0.005,0.029-0.006c0.01-0.001,0.02-0.001,0.029,0c0.009,0,0.017,0.001,0.025,0.002
			c0.007,0.001,0.014,0.002,0.019,0.002c0.011,0.002,0.017,0.003,0.017,0.003s-0.005-0.003-0.015-0.008s-0.025-0.01-0.044-0.015
			c-0.009-0.002-0.02-0.004-0.031-0.005s-0.024,0-0.037,0.003c-0.013,0.003-0.027,0.01-0.037,0.021
			c-0.005,0.006-0.009,0.012-0.013,0.019c-0.003,0.007-0.005,0.014-0.006,0.021c-0.001,0.004-0.001,0.007-0.001,0.01
			c0,0.003,0,0.007,0,0.01c0,0.006,0,0.013,0,0.019c0,0.012,0.002,0.025,0.004,0.036c0.002,0.012,0.005,0.023,0.008,0.033
			c0.003,0.01,0.007,0.02,0.011,0.029c0.004,0.009,0.008,0.016,0.013,0.023c0.004,0.006,0.008,0.012,0.012,0.016
			c0.004,0.004,0.007,0.007,0.009,0.009c0.002,0.002,0.003,0.003,0.003,0.003s0-0.001-0.001-0.004
			c-0.001-0.003-0.003-0.007-0.004-0.012c-0.003-0.01-0.007-0.025-0.011-0.042c-0.004-0.017-0.007-0.038-0.008-0.059
			c-0.001-0.011-0.002-0.022-0.002-0.034c0-0.006,0-0.011,0-0.017c0-0.003,0-0.006,0-0.008C5.258,11.072,5.258,11.07,5.258,11.067z"
			/>
		<path fill="#3D78E5" d="M5.337,11.109v-0.002c0-0.002,0-0.003,0-0.004c0.001-0.005,0.003-0.01,0.007-0.013s0.008-0.005,0.014-0.007
			c0.006-0.001,0.011-0.002,0.017-0.002c0.011,0,0.021,0,0.028,0.001c0.003,0,0.006,0,0.008,0.001c0.002,0,0.003,0,0.003,0
			s-0.001-0.001-0.002-0.002c-0.002-0.001-0.004-0.002-0.007-0.004c-0.006-0.003-0.015-0.007-0.028-0.01
			c-0.006-0.001-0.013-0.002-0.021-0.002c-0.008,0-0.017,0.002-0.025,0.008c-0.008,0.005-0.014,0.015-0.016,0.024
			c0,0.002-0.001,0.005-0.001,0.007l0,0.003l0,0.002v0.001v0v0v0.001l0,0.006v0.003v0.001l0,0.002l0.001,0.007
			c0,0.002,0.001,0.005,0.002,0.006c0.001,0.004,0.002,0.008,0.004,0.012c0.003,0.008,0.007,0.015,0.012,0.021
			c0.002,0.003,0.004,0.006,0.007,0.009c0.003,0.003,0.005,0.006,0.007,0.008c0.002,0.003,0.005,0.005,0.007,0.007
			c0.002,0.002,0.005,0.004,0.007,0.006c0.005,0.004,0.009,0.007,0.013,0.01c0.004,0.003,0.008,0.005,0.011,0.006
			c0.003,0.002,0.006,0.003,0.007,0.004c0.002,0.001,0.003,0.001,0.003,0.001s-0.002-0.003-0.007-0.008
			c-0.002-0.003-0.005-0.006-0.007-0.01c-0.003-0.004-0.006-0.008-0.009-0.012c-0.002-0.002-0.003-0.005-0.005-0.007
			c-0.002-0.003-0.003-0.005-0.005-0.008c-0.002-0.003-0.003-0.005-0.005-0.008c-0.002-0.003-0.003-0.006-0.005-0.009
			c-0.002-0.003-0.003-0.006-0.004-0.009c-0.001-0.002-0.001-0.003-0.002-0.005c-0.001-0.002-0.001-0.003-0.002-0.005
			c-0.002-0.003-0.002-0.006-0.003-0.01c-0.001-0.002-0.001-0.003-0.001-0.005l-0.001-0.004l0-0.001v-0.001l0-0.003l0-0.006V11.109
			L5.337,11.109z"/>
		<path fill="#3D78E5" d="M5.468,11.461c-0.002,0.003-0.004,0.005-0.006,0.007l-0.006,0.008c-0.002,0.003-0.004,0.005-0.006,0.008
			c-0.001,0.001-0.002,0.003-0.003,0.004l-0.002,0.004L5.44,11.5l-0.004,0.008c-0.003,0.006-0.005,0.012-0.008,0.017
			c-0.003,0.006-0.004,0.012-0.007,0.018c-0.001,0.003-0.002,0.006-0.003,0.009l-0.002,0.009l-0.003,0.009l-0.002,0.009L5.41,11.591
			l-0.001,0.005c0,0.002,0,0.003,0,0.005L5.407,11.62c0,0.007,0,0.013-0.001,0.019l0,0.01c0,0.003,0,0.006,0,0.01l0.002,0.038
			c0,0.006,0,0.012,0,0.018s0,0.012-0.001,0.018l-0.001,0.009L5.405,11.75c-0.001,0.006-0.002,0.012-0.003,0.018
			c-0.001,0.006-0.002,0.012-0.004,0.018c-0.002,0.006-0.003,0.012-0.004,0.018l-0.002,0.009l-0.003,0.009
			c-0.002,0.006-0.004,0.012-0.006,0.017c-0.004,0.012-0.008,0.023-0.013,0.035c-0.009,0.023-0.02,0.045-0.032,0.067
			c-0.003,0.005-0.005,0.01-0.008,0.015c0.007-0.033,0.002-0.07,0.002-0.07s-0.015,0.044-0.03,0.07
			c-0.019,0.033-0.064,0.07-0.068,0.073c-0.002,0.002-0.004,0.003-0.006,0.004l-0.006,0.004c-0.004,0.003-0.008,0.006-0.013,0.008
			l-0.012,0.008c-0.004,0.003-0.009,0.005-0.013,0.008c-0.004,0.003-0.009,0.005-0.013,0.008l-0.013,0.007
			c0.005-0.002,0.01-0.004,0.014-0.006c0.005-0.002,0.009-0.004,0.014-0.006c0.005-0.002,0.009-0.004,0.014-0.006l0.014-0.007
			c0.005-0.002,0.009-0.005,0.013-0.007l0.007-0.004c0.002-0.001,0.004-0.003,0.007-0.004c0.004-0.003,0.009-0.006,0.013-0.008
			l0.012-0.009l0.003-0.002l0,0l0,0l0,0l0.001-0.001l0.002-0.001c0.002-0.002,0.004-0.003,0.006-0.005l0.006-0.006
			c0.002-0.002,0.004-0.004,0.005-0.006c0.002-0.002,0.003-0.004,0.005-0.006c0.002-0.002,0.003-0.004,0.005-0.006l0.004-0.006
			l0-0.001l-0.006,0.031l-0.009,0.05l0.031-0.041c0.008-0.011,0.015-0.021,0.022-0.032c0.007-0.011,0.013-0.022,0.02-0.033
			c0.006-0.011,0.012-0.023,0.018-0.034c0.003-0.006,0.005-0.012,0.008-0.017c0.002-0.006,0.005-0.012,0.007-0.018
			c0.005-0.012,0.009-0.024,0.013-0.036c0.002-0.006,0.004-0.012,0.006-0.018l0.003-0.009l0.002-0.009
			c0.002-0.006,0.003-0.013,0.004-0.019c0.001-0.006,0.002-0.013,0.003-0.019c0.001-0.006,0.002-0.013,0.002-0.019l0.001-0.01l0-0.01
			c0-0.007,0-0.013,0-0.019c0-0.007,0-0.013-0.001-0.02l-0.003-0.037c0-0.003-0.001-0.006-0.001-0.009l0-0.009
			c0-0.006,0-0.012,0-0.018l0.001-0.018c0-0.002,0-0.003,0-0.005l0-0.004l0.001-0.009l0.001-0.009l0.002-0.009
			c0.001-0.006,0.002-0.012,0.004-0.018c0.002-0.006,0.003-0.012,0.005-0.018c0.002-0.006,0.004-0.012,0.006-0.017l0.003-0.009
			l0.004-0.008l0.002-0.004c0.001-0.001,0.002-0.003,0.002-0.004c0.002-0.003,0.003-0.006,0.004-0.008
			c0.007-0.011,0.013-0.021,0.022-0.03C5.477,11.452,5.473,11.457,5.468,11.461z"/>
		<path fill="#3D78E5" d="M6.096,11.631c-0.001,0.002-0.002,0.004-0.004,0.008c-0.002,0.003-0.004,0.008-0.006,0.013
			c-0.002,0.005-0.005,0.01-0.007,0.016c-0.001,0.003-0.003,0.006-0.004,0.009c-0.002,0.003-0.003,0.006-0.004,0.01
			c-0.003,0.007-0.007,0.013-0.01,0.02c-0.002,0.003-0.004,0.007-0.005,0.01c-0.002,0.003-0.004,0.007-0.006,0.01
			c-0.002,0.003-0.004,0.007-0.006,0.01c-0.002,0.003-0.005,0.006-0.007,0.009L6.032,11.75l-0.002,0.002c0,0,0,0.001-0.001,0.001
			l-0.001,0.001c-0.002,0.001-0.003,0.003-0.005,0.004L6.023,11.76l0,0L6.02,11.762c-0.002,0.001-0.003,0.002-0.005,0.003
			c-0.002,0.001-0.003,0.002-0.005,0.003c-0.003,0.002-0.006,0.003-0.01,0.005c-0.003,0.002-0.007,0.002-0.01,0.004
			c-0.003,0.001-0.007,0.002-0.01,0.003c-0.003,0.001-0.007,0.002-0.01,0.002c-0.003,0.001-0.006,0.001-0.01,0.002
			c-0.006,0.001-0.012,0.001-0.017,0.002c-0.005,0-0.01,0.001-0.014,0.001c-0.004,0-0.007,0-0.009,0s-0.003,0-0.003,0
			s0.001,0.001,0.003,0.002c0.002,0.001,0.005,0.002,0.009,0.004c0.004,0.001,0.008,0.003,0.014,0.004s0.012,0.003,0.019,0.004
			c0.007,0.001,0.015,0.001,0.023,0.001c0.004,0,0.008-0.001,0.013-0.001c0.002,0,0.004-0.001,0.006-0.001
			c0.002,0,0.004-0.001,0.006-0.002c0.004-0.001,0.009-0.003,0.013-0.005c0.002-0.001,0.005-0.002,0.007-0.003
			c0.002-0.001,0.004-0.003,0.006-0.004l0.003-0.002l0,0l0.001-0.001l0.001,0l0.001-0.001c0.002-0.001,0.003-0.003,0.005-0.004
			c0.002-0.001,0.003-0.004,0.005-0.005l0.005-0.006c0.003-0.004,0.006-0.008,0.008-0.012c0.002-0.004,0.004-0.008,0.007-0.012
			c0.002-0.004,0.004-0.008,0.006-0.012c0.002-0.004,0.003-0.008,0.005-0.012c0.003-0.008,0.005-0.016,0.007-0.023
			c0.002-0.007,0.003-0.014,0.004-0.021c0.001-0.007,0.002-0.013,0.002-0.018c0-0.005,0.001-0.01,0.001-0.014
			c0-0.004,0-0.007,0-0.009c0-0.003,0-0.004,0-0.004S6.096,11.629,6.096,11.631z"/>
		<path fill="#3D78E5" d="M6.098,11.5c-0.013,0.021-0.063-0.003-0.063-0.003s0.008,0.034,0.028,0.046
			c0.016,0.01,0.047,0.018,0.046,0.026s-0.014,0.013-0.014,0.013S6.1,11.601,6.113,11.6s0.045-0.056,0.044-0.096
			c0-0.021-0.065-0.088-0.121-0.134c-0.048-0.039-0.088-0.06-0.088-0.06S6.111,11.479,6.098,11.5z"/>
		<path fill="#3D78E5" d="M4.762,10.92c0.036-0.024,0.074-0.047,0.112-0.067c0.019-0.01,0.038-0.021,0.058-0.03
			s0.039-0.019,0.06-0.027c0.04-0.017,0.081-0.031,0.123-0.042c0.021-0.006,0.042-0.01,0.063-0.014
			c0.005-0.001,0.011-0.002,0.016-0.003c0.005-0.001,0.01-0.002,0.016-0.002l0.008-0.001l0.004,0l0.004,0
			c0.005,0,0.011-0.001,0.016-0.001c0.021-0.002,0.043-0.002,0.064-0.001c0.021,0.001,0.042,0.003,0.063,0.008
			c0.041,0.008,0.081,0.023,0.115,0.046c0.017,0.012,0.033,0.025,0.046,0.041c0.007,0.008,0.013,0.016,0.019,0.024
			c0.003,0.004,0.005,0.008,0.008,0.013c0.001,0.002,0.002,0.004,0.003,0.006l0.002,0.003c0,0.001,0.001,0.002,0.001,0.003
			l0.029,0.077l0.002-0.082c0-0.005,0-0.01,0-0.016c0-0.005,0-0.01,0-0.015c0-0.01-0.001-0.021-0.002-0.031
			c0-0.005-0.001-0.01-0.002-0.016c-0.001-0.005-0.002-0.011-0.003-0.016l-0.001-0.004l0-0.002l-0.001-0.001l-0.002-0.008
			c-0.001-0.005-0.003-0.01-0.004-0.015c-0.001-0.005-0.003-0.01-0.004-0.015l-0.005-0.015c-0.002-0.005-0.003-0.01-0.005-0.015
			c-0.002-0.005-0.004-0.01-0.006-0.015c-0.001-0.003-0.002-0.005-0.003-0.007c0.007,0.006,0.014,0.012,0.02,0.018
			c0.009,0.009,0.018,0.019,0.026,0.03c0.004,0.005,0.008,0.011,0.011,0.016c0.003,0.006,0.007,0.011,0.01,0.017
			c0.001,0.003,0.003,0.005,0.004,0.009l0.002,0.005l0,0.001l0,0.001l0.001,0.002c0.003,0.006,0.005,0.012,0.007,0.019l0.003,0.01
			l0.003,0.01c0.002,0.007,0.003,0.013,0.005,0.02c0.003,0.013,0.006,0.027,0.008,0.04l0.004,0.02
			c0.001,0.007,0.002,0.014,0.003,0.02l0.005,0.034l0.019-0.029l0.008-0.013l0.008-0.013c0.003-0.004,0.005-0.008,0.008-0.013
			l0.008-0.013l0.008-0.013c0.002-0.004,0.005-0.009,0.007-0.013l0.004-0.007l0.003-0.007l0.003-0.007l0.002-0.004l0.002-0.003
			c0.004-0.009,0.008-0.018,0.012-0.028c0.004-0.009,0.007-0.019,0.01-0.028c0.003-0.01,0.006-0.019,0.008-0.029
			c0-0.001,0.001-0.003,0.001-0.004c0.002,0.004,0.003,0.007,0.004,0.011c0.002,0.006,0.004,0.012,0.006,0.018
			c0.002,0.006,0.003,0.012,0.005,0.018c0.001,0.006,0.003,0.012,0.004,0.019C5.8,10.801,5.8,10.808,5.801,10.814
			c0,0.003,0,0.006,0.001,0.009c0,0.003,0,0.006,0,0.009v0.01v0.002v0.001v0.001l0,0.005c0,0.006-0.001,0.013-0.002,0.019
			c-0.001,0.006-0.002,0.013-0.004,0.019c-0.002,0.006-0.003,0.012-0.005,0.018c-0.001,0.007-0.003,0.013-0.006,0.019
			c-0.005,0.012-0.01,0.023-0.017,0.035c-0.006,0.011-0.013,0.022-0.021,0.032c0.009-0.01,0.017-0.02,0.024-0.031
			c0.007-0.011,0.014-0.022,0.019-0.034c0.011-0.023,0.019-0.049,0.022-0.075l0-0.005l0-0.001v-0.001l0-0.002l0-0.01
			c0-0.006,0-0.013,0-0.019c0-0.006-0.001-0.013-0.001-0.02c0-0.007-0.002-0.013-0.003-0.02c-0.001-0.006-0.002-0.013-0.004-0.019
			c-0.001-0.003-0.002-0.006-0.002-0.01c-0.001-0.003-0.002-0.007-0.003-0.01c-0.002-0.006-0.004-0.013-0.007-0.019
			c-0.002-0.006-0.005-0.012-0.008-0.019l-0.011-0.021l-0.005,0.024c-0.001,0.004-0.002,0.009-0.003,0.014
			c-0.001,0.005-0.003,0.009-0.004,0.014c-0.003,0.009-0.006,0.018-0.009,0.028c-0.003,0.009-0.007,0.018-0.011,0.027
			c-0.004,0.009-0.008,0.018-0.012,0.026l-0.002,0.003l-0.002,0.003l-0.004,0.006L5.72,10.829l-0.004,0.006
			c-0.002,0.004-0.005,0.008-0.007,0.012l-0.008,0.012l-0.008,0.012c-0.002,0.003-0.004,0.006-0.006,0.008
			c0-0.003-0.001-0.006-0.001-0.008c-0.002-0.014-0.005-0.028-0.008-0.042c-0.001-0.007-0.003-0.014-0.005-0.021l-0.003-0.01
			l-0.003-0.01c-0.002-0.007-0.005-0.014-0.007-0.021l-0.001-0.003l-0.001-0.002l0-0.001l-0.002-0.005
			c-0.001-0.003-0.003-0.007-0.005-0.01c-0.003-0.007-0.007-0.013-0.011-0.019c-0.004-0.006-0.008-0.013-0.012-0.018
			C5.62,10.698,5.61,10.687,5.6,10.677c-0.01-0.01-0.022-0.02-0.034-0.029c-0.006-0.005-0.012-0.009-0.019-0.013
			c-0.003-0.002-0.006-0.004-0.01-0.006l-0.005-0.003c-0.002-0.001-0.003-0.002-0.006-0.003l-0.042-0.019l0.022,0.041
			c0.002,0.004,0.004,0.008,0.006,0.013c0.002,0.004,0.004,0.009,0.006,0.013c0.004,0.009,0.008,0.018,0.012,0.027
			c0.002,0.004,0.004,0.009,0.005,0.014c0.002,0.005,0.003,0.009,0.005,0.014l0.004,0.014c0.001,0.005,0.003,0.009,0.004,0.014
			s0.003,0.009,0.004,0.014l0.002,0.007l0,0.002l0,0.002l0.001,0.004c0.001,0.005,0.002,0.009,0.002,0.014
			C5.56,10.8,5.56,10.805,5.56,10.81c0,0,0,0,0,0.001c-0.002-0.002-0.004-0.004-0.005-0.006c-0.015-0.017-0.033-0.032-0.052-0.045
			c-0.019-0.013-0.04-0.023-0.061-0.032c-0.021-0.008-0.044-0.015-0.066-0.019c-0.023-0.004-0.045-0.006-0.068-0.007
			c-0.023-0.001-0.045,0-0.068,0.002c-0.006,0-0.011,0.001-0.017,0.002l-0.004,0l-0.004,0.001l-0.008,0.001
			c-0.006,0.001-0.011,0.002-0.017,0.002c-0.006,0.001-0.011,0.002-0.017,0.003c-0.022,0.004-0.044,0.01-0.065,0.016
			c-0.043,0.013-0.085,0.028-0.125,0.047c-0.04,0.019-0.079,0.039-0.117,0.062c-0.019,0.011-0.037,0.023-0.055,0.036
			s-0.036,0.025-0.054,0.038c-0.022,0.017-0.043,0.035-0.064,0.053c-0.001,0.002-0.002,0.003-0.003,0.005
			c0.006-0.005,0.012-0.009,0.018-0.014C4.726,10.944,4.744,10.932,4.762,10.92z"/>
		<path fill="#3D78E5" d="M5.655,11.705l-0.001-0.012l-0.002-0.012c-0.001-0.008-0.002-0.016-0.004-0.024
			c-0.002-0.008-0.003-0.016-0.005-0.024c-0.002-0.008-0.004-0.016-0.006-0.023l-0.003-0.012L5.63,11.587
			c-0.002-0.008-0.006-0.015-0.008-0.023c-0.003-0.008-0.006-0.015-0.01-0.023L5.591,11.5c-0.002-0.004-0.004-0.007-0.005-0.01
			l-0.005-0.01c-0.003-0.007-0.006-0.014-0.009-0.021l-0.008-0.022c-0.001-0.002-0.001-0.004-0.002-0.005l-0.002-0.006l-0.003-0.011
			l-0.003-0.011l-0.002-0.011c-0.002-0.008-0.003-0.015-0.004-0.023c-0.001-0.008-0.002-0.015-0.003-0.023
			c0-0.008-0.001-0.015-0.001-0.023v-0.012L5.546,11.3l0-0.006c0-0.002,0-0.004,0.001-0.006c0-0.004,0.001-0.008,0.002-0.012
			c0.002-0.015,0.006-0.031,0.012-0.045c-0.004,0.007-0.007,0.014-0.01,0.021c-0.001,0.004-0.003,0.007-0.004,0.011l-0.004,0.011
			c-0.001,0.004-0.002,0.008-0.003,0.012c0,0.002-0.001,0.004-0.001,0.006l-0.001,0.006l-0.002,0.012l-0.002,0.011
			c-0.001,0.008-0.001,0.016-0.001,0.024c0,0.008,0,0.016,0.001,0.024c0,0.004,0,0.008,0.001,0.012l0.002,0.012l0.002,0.012
			l0.002,0.012l0.002,0.012l0.001,0.006c0,0.002,0.001,0.004,0.002,0.006l0.006,0.023c0.002,0.008,0.005,0.015,0.008,0.023
			l0.004,0.011c0.001,0.004,0.003,0.007,0.005,0.011l0.019,0.043c0.003,0.007,0.006,0.014,0.008,0.021
			c0.002,0.007,0.005,0.014,0.007,0.022l0.003,0.011l0.003,0.011c0.002,0.007,0.003,0.015,0.005,0.022
			c0.002,0.007,0.003,0.015,0.004,0.023c0.001,0.008,0.002,0.015,0.003,0.023l0.001,0.011l0.001,0.011
			c0.001,0.008,0.001,0.015,0.002,0.023c0.001,0.015,0.001,0.031,0.001,0.046c0,0.031-0.002,0.061-0.006,0.092
			c-0.001,0.007-0.002,0.014-0.003,0.021c-0.007-0.041-0.031-0.083-0.031-0.083s0.003,0.058-0.003,0.094
			c-0.007,0.047-0.042,0.11-0.046,0.115c-0.002,0.003-0.003,0.005-0.005,0.008l-0.005,0.008c-0.004,0.005-0.007,0.01-0.011,0.015
			l-0.011,0.015c-0.004,0.005-0.008,0.01-0.011,0.015c-0.004,0.005-0.008,0.01-0.012,0.015l-0.012,0.015
			c0.005-0.004,0.009-0.008,0.014-0.013c0.005-0.004,0.009-0.009,0.014-0.013s0.009-0.009,0.013-0.014l0.013-0.014
			c0.004-0.005,0.008-0.01,0.012-0.015l0.006-0.007c0.002-0.002,0.004-0.005,0.006-0.008c0.004-0.005,0.008-0.01,0.012-0.015
			l0.01-0.016l0.003-0.004l0,0l0-0.001l0,0l0.001-0.001l0.001-0.002c0.002-0.003,0.003-0.006,0.004-0.009l0.004-0.009
			c0.001-0.003,0.002-0.006,0.003-0.009c0.001-0.003,0.002-0.006,0.003-0.009c0.001-0.003,0.002-0.006,0.003-0.009l0.002-0.009
			l0-0.001l0.008,0.039l0.012,0.062l0.017-0.062c0.004-0.016,0.008-0.031,0.011-0.047c0.003-0.016,0.006-0.031,0.008-0.047
			s0.004-0.032,0.005-0.048c0.001-0.008,0.001-0.016,0.001-0.024c0-0.008,0-0.016,0-0.024c0-0.016,0-0.032-0.001-0.048
			C5.657,11.721,5.656,11.713,5.655,11.705z"/>
		<path fill="#3D78E5" d="M5.866,11.108c-0.004-0.004-0.009-0.009-0.013-0.014c-0.005-0.004-0.009-0.009-0.014-0.013
			c-0.005-0.004-0.01-0.008-0.014-0.012c-0.005-0.004-0.01-0.008-0.015-0.012c-0.005-0.004-0.01-0.008-0.015-0.011
			c-0.005-0.004-0.01-0.007-0.016-0.011s-0.01-0.007-0.016-0.01c0.009,0.008,0.019,0.017,0.027,0.025
			c0.004,0.004,0.009,0.009,0.013,0.013c0.004,0.005,0.009,0.009,0.013,0.013c0.004,0.004,0.008,0.009,0.012,0.014
			c0.004,0.005,0.008,0.009,0.012,0.014c0.004,0.005,0.008,0.009,0.011,0.014c0.004,0.005,0.007,0.01,0.011,0.015
			c0.004,0.005,0.007,0.01,0.01,0.015c0.003,0.005,0.006,0.01,0.009,0.015l0.009,0.016c0.003,0.005,0.006,0.01,0.008,0.016
			c0.003,0.005,0.005,0.011,0.008,0.016s0.005,0.011,0.008,0.016c0.001,0.002,0.001,0.003,0.002,0.005
			c-0.002,0-0.003-0.001-0.004-0.001c-0.004-0.001-0.008-0.002-0.012-0.003c-0.004-0.001-0.008-0.002-0.012-0.003l-0.012-0.002
			c-0.004-0.001-0.008-0.001-0.012-0.002L5.853,11.22l-0.002,0l-0.002,0l-0.003,0l-0.006-0.001l-0.012-0.001
			c-0.004,0-0.008,0-0.012,0s-0.008,0-0.012,0s-0.008,0-0.012,0s-0.008,0.001-0.013,0.001c-0.004,0-0.008,0.001-0.013,0.002
			c-0.002,0-0.004,0-0.007,0.001c-0.002,0-0.004,0.001-0.007,0.002l-0.047,0.014l0.047,0.008c0.003,0.001,0.007,0.002,0.011,0.002
			c0.004,0.001,0.008,0.002,0.011,0.003c0.007,0.002,0.015,0.005,0.022,0.008c0.004,0.002,0.007,0.003,0.01,0.005
			c0.004,0.002,0.007,0.003,0.01,0.005c0.007,0.004,0.013,0.008,0.019,0.013c0.001,0.001,0.003,0.002,0.004,0.004l0.001,0.001l0,0
			l0,0l0.002,0.002c0.001,0.001,0.003,0.003,0.004,0.004l0.004,0.004c0.001,0.001,0.002,0.003,0.004,0.005
			c0.001,0.002,0.002,0.003,0.003,0.005c0.002,0.003,0.004,0.006,0.006,0.01c0.002,0.003,0.004,0.007,0.005,0.01
			c0.002,0.004,0.003,0.007,0.004,0.011c0.003,0.007,0.005,0.015,0.006,0.023c0-0.004,0-0.008,0-0.012
			c0-0.004-0.001-0.008-0.002-0.012c-0.001-0.004-0.002-0.008-0.003-0.012c-0.001-0.004-0.002-0.008-0.004-0.012
			c-0.002-0.004-0.003-0.008-0.005-0.011C5.87,11.3,5.869,11.299,5.868,11.297s-0.002-0.004-0.003-0.006l-0.004-0.005
			c-0.001-0.002-0.002-0.003-0.004-0.005l-0.002-0.002l0,0l-0.001-0.001l-0.001-0.001c-0.001-0.002-0.003-0.003-0.004-0.005
			c-0.006-0.006-0.013-0.012-0.02-0.017c-0.006-0.004-0.013-0.008-0.019-0.012c0.002,0,0.004,0,0.005,0c0.004,0,0.008,0,0.011,0.001
			l0.011,0.001l0.011,0.002l0.011,0.002c0.004,0.001,0.008,0.001,0.011,0.002l0.011,0.002c0.004,0.001,0.007,0.002,0.011,0.002
			c0.004,0.001,0.007,0.002,0.011,0.003c0.004,0.001,0.007,0.002,0.011,0.003c0.004,0.001,0.007,0.002,0.011,0.004
			c0.004,0.001,0.007,0.002,0.01,0.004l0.032,0.014l-0.013-0.031c-0.002-0.006-0.005-0.012-0.008-0.017
			c-0.003-0.006-0.005-0.011-0.008-0.017c-0.003-0.006-0.006-0.011-0.009-0.017c-0.003-0.006-0.006-0.011-0.009-0.016
			c-0.003-0.005-0.006-0.011-0.01-0.016l-0.01-0.015c-0.004-0.006-0.007-0.01-0.011-0.016c-0.004-0.005-0.008-0.01-0.012-0.015
			C5.875,11.117,5.871,11.113,5.866,11.108z"/>
		<path fill="#3D78E5" d="M5.23,10.8c0.023-0.003,0.045-0.005,0.067-0.004l0.008,0c0.003,0,0.005,0.001,0.008,0.001
			s0.005,0,0.008,0.001c0.003,0,0.005,0.001,0.008,0.001c0.003,0,0.006,0.001,0.008,0.001c0.003,0,0.005,0.001,0.008,0.002
			c0.005,0.001,0.01,0.003,0.015,0.004c0.02,0.006,0.039,0.013,0.056,0.023c0.017,0.009,0.032,0.02,0.045,0.031
			c0.013,0.011,0.023,0.022,0.032,0.033c0.009,0.011,0.016,0.021,0.021,0.029c0.005,0.009,0.009,0.015,0.011,0.02
			c0.002,0.005,0.003,0.007,0.003,0.007s-0.001-0.003-0.002-0.008c-0.002-0.005-0.004-0.013-0.008-0.022
			c-0.004-0.009-0.01-0.02-0.018-0.032c-0.008-0.012-0.018-0.025-0.03-0.037c-0.006-0.006-0.013-0.013-0.021-0.019
			c-0.008-0.006-0.016-0.012-0.025-0.017c-0.018-0.011-0.037-0.02-0.059-0.027c-0.005-0.002-0.011-0.003-0.017-0.005
			c-0.003-0.001-0.006-0.001-0.008-0.002c-0.003-0.001-0.006-0.001-0.008-0.002c-0.003,0-0.006-0.001-0.008-0.002
			c-0.003,0-0.006-0.001-0.009-0.001c-0.003,0-0.006-0.001-0.009-0.001c-0.003,0-0.006,0-0.009-0.001
			c-0.024-0.001-0.048,0-0.072,0.004c-0.024,0.003-0.047,0.008-0.069,0.014c-0.023,0.006-0.045,0.013-0.065,0.02
			c-0.021,0.007-0.04,0.015-0.059,0.023s-0.036,0.016-0.051,0.023c-0.016,0.008-0.03,0.015-0.043,0.022
			c-0.013,0.007-0.023,0.013-0.032,0.018c-0.018,0.011-0.028,0.017-0.028,0.017s0.003-0.001,0.008-0.004
			c0.005-0.002,0.012-0.005,0.022-0.009c0.009-0.004,0.021-0.009,0.034-0.014c0.013-0.005,0.028-0.011,0.044-0.018
			c0.016-0.006,0.034-0.013,0.053-0.02c0.019-0.007,0.039-0.013,0.059-0.02s0.042-0.013,0.064-0.018
			C5.185,10.807,5.207,10.803,5.23,10.8z"/>
		<path fill="#3D78E5" d="M3.692,10.754c-0.063-0.033-0.132-0.036-0.2-0.038c-0.104-0.003-0.208-0.001-0.312-0.002
			c-0.017,0-0.02,0.006-0.02,0.021c0.001,0.083,0,0.165,0,0.248c0,0.083,0,0.167,0,0.25c0,0.016,0.005,0.02,0.02,0.02
			c0.092,0,0.183,0.002,0.275,0.003c0.049,0.001,0.098-0.004,0.147-0.013c0.067-0.011,0.125-0.038,0.167-0.092
			c0.054-0.069,0.072-0.147,0.051-0.233C3.801,10.846,3.76,10.789,3.692,10.754z"/>
		<path fill="#3D78E5" d="M13.028,0.5H2.972c-0.489,0-0.886,0.397-0.886,0.886v13.229c0,0.489,0.397,0.886,0.886,0.886h10.055
			c0.489,0,0.886-0.397,0.886-0.886V1.386C13.913,0.897,13.517,0.5,13.028,0.5z M11.15,4.748l0.161,0.009v3.579H11.15V4.748z
			 M10.821,4.748l0.161,0.009v3.579h-0.161V4.748z M10.535,4.748l0.161,0.009v3.579h-0.161V4.748z M9.539,4.748L9.7,4.757v3.579
			H9.539V4.748z M9.253,4.748l0.161,0.009v3.579H9.253V4.748z M8.924,4.748l0.161,0.009v3.579H8.924V4.748z M8.572,4.748l0.161,0.009
			v3.579H8.572V4.748z M7.291,4.748l0.161,0.009v3.579H7.291V4.748z M6.961,4.748l0.161,0.009v3.579H6.961V4.748z M6.014,4.748
			l0.161,0.009v3.579H6.014V4.748z M5.685,4.748l0.161,0.009v3.579H5.685V4.748z M5.399,4.748L5.56,4.757v3.579H5.399V4.748z
			 M5.069,4.748L5.23,4.757v3.579H5.069V4.748z M4.733,4.748l0.161,0.009v3.579H4.733V4.748z M3.788,4.748l0.161,0.009v3.579H3.788
			V4.748z M3.941,11.194c-0.057,0.102-0.149,0.159-0.261,0.188c-0.052,0.013-0.105,0.018-0.159,0.021
			c-0.114,0.007-0.229,0.006-0.344,0.007c-0.019,0-0.019,0.009-0.019,0.023c0,0.175,0,0.35,0,0.526c0,0.056-0.001,0.113,0,0.169
			c0,0.016-0.006,0.021-0.02,0.021c-0.042,0-0.084,0-0.125,0C3,12.149,3,12.141,3,12.131c0-0.056,0-0.113,0-0.169
			c0-0.203,0-0.406,0-0.609c0-0.256,0-0.513,0-0.769c0-0.019,0.005-0.024,0.024-0.024c0.136,0.001,0.271-0.001,0.406,0.002
			c0.091,0.002,0.182,0.003,0.27,0.028c0.143,0.04,0.268,0.161,0.285,0.326C3.996,11.013,3.99,11.107,3.941,11.194z M4.279,8.337
			H4.117V4.748l0.161,0.009V8.337z M4.564,8.337H4.403V4.748l0.161,0.009V8.337z M6.075,11.858c-0.132,0.171-0.302,0.282-0.518,0.317
			c-0.202,0.032-0.394,0.005-0.573-0.098c-0.105-0.06-0.192-0.142-0.263-0.24c-0.078-0.106-0.125-0.225-0.143-0.356
			c-0.017-0.124-0.008-0.246,0.027-0.366c0.016-0.055,0.058-0.095,0.084-0.145c-0.011,0.008-0.023,0.017-0.034,0.026
			c0.012-0.011,0.025-0.02,0.037-0.031c0.036-0.067,0.06-0.142,0.115-0.198c0.109-0.113,0.242-0.187,0.395-0.224
			c0.066-0.016,0.132-0.023,0.192-0.022c0.183-0.001,0.345,0.042,0.489,0.143c0.184,0.129,0.306,0.302,0.344,0.525
			C6.269,11.432,6.228,11.659,6.075,11.858z M6.507,8.337H6.346V4.748l0.161,0.009V8.337z M6.675,4.748l0.161,0.009v3.579H6.675
			V4.748z M7.546,12.038c-0.1,0.11-0.225,0.158-0.37,0.149c-0.144-0.009-0.259-0.074-0.349-0.186
			c-0.033-0.041-0.062-0.085-0.089-0.131c-0.008-0.014-0.008-0.021,0.007-0.029c0.035-0.019,0.07-0.04,0.104-0.062
			c0.012-0.008,0.017-0.005,0.023,0.007c0.038,0.068,0.083,0.131,0.144,0.181c0.099,0.082,0.224,0.083,0.331,0.024
			c0.092-0.051,0.138-0.131,0.138-0.235c0-0.066-0.029-0.122-0.07-0.172c-0.069-0.085-0.152-0.153-0.238-0.22
			C7.1,11.307,7.023,11.25,6.954,11.182c-0.094-0.092-0.138-0.205-0.124-0.335c0.015-0.128,0.081-0.222,0.196-0.281
			c0.059-0.03,0.122-0.046,0.164-0.044c0.14,0.001,0.238,0.043,0.321,0.122c0.04,0.038,0.075,0.08,0.108,0.124
			c0.008,0.011,0.006,0.015-0.003,0.023c-0.035,0.026-0.07,0.052-0.104,0.079c-0.011,0.009-0.016,0.005-0.023-0.004
			c-0.036-0.048-0.074-0.096-0.124-0.131c-0.086-0.059-0.177-0.069-0.271-0.022C7.02,10.75,6.98,10.84,6.994,10.921
			c0.015,0.09,0.07,0.152,0.138,0.206c0.082,0.064,0.167,0.125,0.248,0.19c0.091,0.073,0.176,0.152,0.229,0.258
			C7.689,11.733,7.665,11.906,7.546,12.038z M7.788,8.337H7.627V4.748l0.161,0.009V8.337z M8.117,8.337H7.956V4.748l0.161,0.009
			V8.337z M8.242,4.748l0.161,0.009v3.579H8.242V4.748z M9.791,10.862c-0.035,0.026-0.07,0.053-0.104,0.08
			c-0.013,0.01-0.017-0.001-0.023-0.007c-0.038-0.045-0.078-0.086-0.125-0.121c-0.095-0.072-0.202-0.112-0.319-0.129
			c-0.159-0.023-0.31,0-0.451,0.077c-0.186,0.101-0.302,0.255-0.34,0.464c-0.028,0.155-0.013,0.308,0.062,0.449
			c0.081,0.153,0.204,0.259,0.367,0.319c0.099,0.036,0.201,0.047,0.305,0.042c0.194-0.01,0.355-0.09,0.487-0.231
			c0.026-0.028,0.026-0.027,0.057-0.004c0.026,0.02,0.052,0.04,0.078,0.059c0.011,0.008,0.014,0.014,0.004,0.026
			c-0.132,0.156-0.299,0.249-0.499,0.285c-0.075,0.014-0.151,0.019-0.228,0.016c-0.19-0.008-0.366-0.059-0.514-0.182
			c-0.129-0.107-0.217-0.241-0.264-0.403c-0.025-0.084-0.036-0.17-0.035-0.257c0.001-0.202,0.061-0.383,0.197-0.536
			c0.139-0.156,0.311-0.25,0.518-0.278c0.024-0.003,0.048-0.006,0.072-0.008c0.024-0.001,0.047,0,0.071,0
			c0.171-0.003,0.331,0.037,0.477,0.129c0.081,0.051,0.151,0.115,0.208,0.192C9.8,10.853,9.798,10.857,9.791,10.862z M10.03,8.337
			H9.869V4.748l0.161,0.009V8.337z M10.205,4.748l0.161,0.009v3.579h-0.161V4.748z M11.43,10.673
			c-0.116,0.191-0.232,0.382-0.348,0.573c-0.026,0.043-0.051,0.086-0.078,0.128c-0.007,0.012-0.011,0.023-0.011,0.037
			c0,0.237,0,0.474,0.001,0.711c0,0.02-0.005,0.027-0.025,0.026c-0.036-0.002-0.072-0.001-0.108,0
			c-0.017,0.001-0.023-0.004-0.022-0.022c0.001-0.071,0-0.142,0-0.213c0-0.168,0-0.335,0-0.503c0-0.015-0.003-0.027-0.011-0.039
			c-0.163-0.263-0.326-0.527-0.489-0.79c-0.003-0.005-0.01-0.011-0.007-0.016c0.004-0.007,0.013-0.003,0.019-0.003
			c0.047,0,0.093,0,0.14,0c0.015,0,0.022,0.005,0.03,0.017c0.127,0.206,0.255,0.411,0.382,0.616c0.004,0.006,0.008,0.011,0.013,0.019
			c0.025-0.042,0.05-0.081,0.074-0.12c0.106-0.173,0.211-0.346,0.317-0.519c0.004-0.007,0.008-0.013,0.017-0.013
			c0.057,0,0.114,0,0.174,0C11.474,10.601,11.452,10.637,11.43,10.673z M11.618,8.337h-0.161V4.748l0.161,0.009V8.337z M11.904,8.337
			h-0.161V4.748l0.161,0.009V8.337z M12.051,4.748l0.161,0.009v3.579h-0.161V4.748z M13,10.697c0.001,0.017-0.007,0.022-0.022,0.022
			c-0.031,0-0.061,0-0.092,0c-0.203,0-0.406,0-0.609,0c-0.029,0-0.029,0-0.029,0.03c0,0.146,0,0.292,0,0.438
			c0,0.02,0.004,0.027,0.026,0.027c0.226-0.001,0.452,0,0.678,0c0.005,0,0.01,0,0.015,0c0.028,0,0.028,0.001,0.028,0.028
			c0,0.035-0.001,0.07,0,0.104c0.001,0.02-0.004,0.026-0.025,0.026c-0.224-0.001-0.448,0-0.672,0c-0.011,0-0.021,0.001-0.031,0
			c-0.015-0.001-0.019,0.004-0.019,0.019c0.001,0.067,0,0.135,0,0.202c0,0.126,0,0.252,0,0.377c0,0.02,0.006,0.024,0.024,0.024
			c0.233-0.001,0.466,0,0.699-0.001c0.017,0,0.024,0.003,0.024,0.023c-0.002,0.039-0.001,0.078,0,0.117
			c0,0.013-0.005,0.018-0.017,0.018c-0.006,0-0.013,0-0.019,0c-0.281,0-0.562,0-0.843,0c-0.027,0-0.027,0-0.027-0.028
			c0-0.256,0-0.512,0-0.768s0-0.512,0-0.768c0-0.019,0.003-0.026,0.024-0.026c0.287,0.001,0.574,0.001,0.861,0
			c0.019,0,0.025,0.004,0.024,0.024C12.998,10.621,12.999,10.659,13,10.697z"/>
		<path fill="#3D78E5" d="M5.851,11.732c-0.003-0.006-0.006-0.012-0.01-0.018l-0.005-0.009c-0.002-0.003-0.004-0.006-0.005-0.009
			l-0.003-0.004c-0.001-0.002-0.003-0.003-0.004-0.005c-0.003-0.003-0.006-0.006-0.008-0.008c-0.006-0.005-0.013-0.008-0.02-0.012
			c-0.007-0.003-0.014-0.005-0.022-0.006c-0.001,0-0.003,0-0.004-0.001c0.001-0.003,0.002-0.006,0.003-0.008
			c0.003-0.008,0.004-0.017,0.005-0.025c0.001-0.008,0.001-0.017,0-0.025c0-0.008-0.002-0.016-0.003-0.024
			c-0.002-0.008-0.004-0.016-0.006-0.024c-0.002-0.008-0.005-0.015-0.008-0.023L5.756,11.52l-0.005-0.011l-0.006-0.01
			c-0.002-0.004-0.004-0.007-0.006-0.011c-0.002-0.004-0.004-0.007-0.006-0.01c-0.002-0.003-0.005-0.007-0.007-0.01
			c-0.005-0.007-0.011-0.013-0.018-0.018c-0.013-0.011-0.028-0.019-0.042-0.026c-0.015-0.007-0.03-0.012-0.045-0.016
			c-0.008-0.002-0.015-0.004-0.023-0.005c-0.008-0.002-0.016-0.003-0.024-0.004c0.015,0.005,0.029,0.011,0.044,0.017
			c0.014,0.006,0.028,0.013,0.041,0.021c0.013,0.008,0.025,0.017,0.036,0.027c0.005,0.005,0.01,0.01,0.013,0.016
			c0.002,0.003,0.003,0.006,0.005,0.009c0.002,0.003,0.004,0.007,0.005,0.01c0.003,0.007,0.006,0.013,0.009,0.02
			c0.003,0.007,0.006,0.014,0.008,0.021c0.003,0.007,0.005,0.014,0.007,0.021c0.002,0.007,0.004,0.014,0.005,0.021
			c0.001,0.007,0.003,0.014,0.003,0.021s0.001,0.014,0,0.021c0,0.007-0.001,0.014-0.003,0.021c-0.001,0.003-0.001,0.007-0.003,0.01
			c-0.007,0.014-0.019,0.028-0.019,0.028l0.026-0.002c0.003,0,0.006,0,0.009,0c0.003,0,0.006,0,0.009,0.001
			c0.006,0.001,0.012,0.002,0.018,0.004c0.006,0.002,0.011,0.005,0.016,0.008c0.002,0.002,0.005,0.003,0.007,0.005
			c0.001,0.001,0.002,0.002,0.003,0.003l0.003,0.004c0.002,0.002,0.004,0.005,0.006,0.008L5.83,11.72l0.013,0.016l0.013,0.016
			c0.004,0.005,0.009,0.011,0.013,0.016c-0.002-0.006-0.005-0.013-0.008-0.019C5.857,11.744,5.854,11.738,5.851,11.732z"/>
	</g>
</symbol>
</svg>
