<?xml version="1.0" encoding="utf-8"?>
<!-- Generator: Adobe Illustrator 17.1.0, SVG Export Plug-In . SVG Version: 6.00 Build 0)  -->
<!DOCTYPE svg PUBLIC "-//W3C//DTD SVG 1.1//EN" "http://www.w3.org/Graphics/SVG/1.1/DTD/svg11.dtd" [
	<!ENTITY ns_flows "http://ns.adobe.com/Flows/1.0/">
	<!ENTITY ns_extend "http://ns.adobe.com/Extensibility/1.0/">
	<!ENTITY ns_ai "http://ns.adobe.com/AdobeIllustrator/10.0/">
	<!ENTITY ns_graphs "http://ns.adobe.com/Graphs/1.0/">
]>
<svg version="1.1" id="Layer_1" xmlns:x="&ns_extend;" xmlns:i="&ns_ai;" xmlns:graph="&ns_graphs;"
	 xmlns="http://www.w3.org/2000/svg" xmlns:xlink="http://www.w3.org/1999/xlink" xmlns:a="http://ns.adobe.com/AdobeSVGViewerExtensions/3.0/"
	 x="0px" y="0px" viewBox="-121.167 0 258 16" style="enable-background:new -121.167 0 258 16;" xml:space="preserve">
<g>
	<path style="fill:#A8B4BB;" d="M-117.729,12.388c-0.909-1.074-1.362-2.535-1.362-4.383c0-1.853,0.452-3.317,1.358-4.391
		s2.137-1.612,3.693-1.612c1.208,0,2.239,0.345,3.097,1.033c0.858,0.688,1.371,1.586,1.541,2.692h-1.453
		c-0.191-0.741-0.571-1.327-1.143-1.758c-0.571-0.431-1.252-0.647-2.041-0.647c-1.101,0-1.973,0.421-2.616,1.262
		s-0.965,1.983-0.965,3.422c0,1.435,0.322,2.573,0.969,3.414c0.645,0.842,1.52,1.262,2.62,1.262c0.799,0,1.483-0.191,2.053-0.575
		c0.569-0.383,0.943-0.907,1.123-1.568h1.453c-0.191,1.054-0.705,1.894-1.545,2.521c-0.84,0.627-1.867,0.941-3.085,0.941
		C-115.588,14-116.821,13.463-117.729,12.388z"/>
	<path style="fill:#A8B4BB;" d="M-99.556,13.731c-0.233-0.661-0.425-1.208-0.575-1.64c-0.151-0.431-0.344-0.978-0.576-1.641h-4.558
		l-1.152,3.28h-1.501l4.225-11.459h1.414l4.224,11.458h-1.501V13.731z M-103.05,4.122c-0.244,0.688-0.454,1.287-0.631,1.795
		c-0.178,0.508-0.355,1.016-0.532,1.525c-0.178,0.508-0.388,1.107-0.631,1.795h3.716l-1.795-5.115H-103.05z"/>
	<path style="fill:#A8B4BB;" d="M-94.617,9.196c0,0.911,0,1.667,0,2.267c0,0.602,0,1.357,0,2.267h-1.429V2.271h4.376
		c1.107,0,1.992,0.311,2.656,0.933c0.664,0.622,0.996,1.449,0.996,2.481c0,0.8-0.203,1.49-0.612,2.073
		c-0.408,0.582-0.972,0.988-1.691,1.215l2.652,4.757h-1.675l-2.454-4.534h-2.819V9.196z M-94.617,3.542c0,0.593,0,1.107,0,1.541
		s0,0.868,0,1.302c0,0.434,0,0.948,0,1.541h2.819c0.736,0,1.303-0.189,1.704-0.568c0.4-0.378,0.6-0.92,0.6-1.624
		c0-0.688-0.209-1.226-0.627-1.612c-0.418-0.386-0.997-0.579-1.739-0.579C-91.861,3.542-94.617,3.542-94.617,3.542z"/>
	<path style="fill:#A8B4BB;" d="M-83.992,9.196c0,0.911,0,1.667,0,2.267c0,0.602,0,1.357,0,2.267h-1.429V2.271h4.376
		c1.107,0,1.992,0.311,2.656,0.933c0.664,0.622,0.996,1.449,0.996,2.481c0,0.8-0.203,1.49-0.612,2.073
		c-0.408,0.582-0.972,0.988-1.691,1.215l2.652,4.757h-1.675l-2.454-4.534h-2.819V9.196z M-83.992,3.542c0,0.593,0,1.107,0,1.541
		s0,0.868,0,1.302c0,0.434,0,0.948,0,1.541h2.819c0.736,0,1.303-0.189,1.704-0.568c0.4-0.378,0.6-0.92,0.6-1.624
		c0-0.688-0.209-1.226-0.627-1.612c-0.418-0.386-0.997-0.579-1.739-0.579C-81.237,3.542-83.992,3.542-83.992,3.542z"/>
	<path style="fill:#A8B4BB;" d="M-67.697,12.444c0,0.26,0,0.475,0,0.643c0,0.17,0,0.384,0,0.643h-7.1V2.271h7.099v1.287h-5.67v3.676
		h5.376v1.271h-5.376v3.939H-67.697z"/>
	<path style="fill:#A8B4BB;" d="M-63.679,9.196c0,0.911,0,1.667,0,2.267c0,0.602,0,1.357,0,2.267h-1.429V2.271h4.376
		c1.107,0,1.992,0.311,2.656,0.933s0.996,1.449,0.996,2.481c0,0.8-0.203,1.49-0.612,2.073c-0.408,0.582-0.972,0.988-1.691,1.215
		l2.652,4.757h-1.675l-2.454-4.534h-2.819V9.196z M-63.679,3.542c0,0.593,0,1.107,0,1.541s0,0.868,0,1.302c0,0.434,0,0.948,0,1.541
		h2.819c0.736,0,1.303-0.189,1.704-0.568c0.4-0.378,0.6-0.92,0.6-1.624c0-0.688-0.209-1.226-0.627-1.612
		c-0.418-0.386-0.997-0.579-1.739-0.579C-60.923,3.542-63.679,3.542-63.679,3.542z"/>
	<path style="fill:#A8B4BB;" d="M-47.035,13.731c-0.233-0.661-0.425-1.208-0.575-1.64c-0.151-0.431-0.343-0.978-0.576-1.641h-4.558
		l-1.152,3.28h-1.501l4.224-11.458h1.414l4.224,11.458H-47.035z M-50.529,4.122c-0.243,0.688-0.453,1.287-0.631,1.795
		s-0.355,1.016-0.532,1.525c-0.177,0.508-0.388,1.106-0.631,1.794h3.716l-1.795-5.114H-50.529z"/>
	<path style="fill:#A8B4BB;" d="M-31.836,12.444c0,0.26,0,0.475,0,0.643c0,0.17,0,0.384,0,0.643h-7.099V2.271h7.099v1.287h-5.67
		v3.676h5.376v1.271h-5.376v3.939H-31.836z"/>
	<path style="fill:#A8B4BB;" d="M-29.795,10.736c0.291,0,0.532,0,0.723,0c0.191,0,0.432,0,0.723,0c0.09,0.599,0.4,1.075,0.929,1.429
		c0.53,0.356,1.202,0.532,2.017,0.532c0.774,0,1.413-0.187,1.918-0.56c0.505-0.373,0.758-0.843,0.758-1.41
		c0-0.487-0.186-0.891-0.556-1.215c-0.37-0.322-0.95-0.581-1.739-0.779l-1.469-0.381c-1.038-0.264-1.792-0.641-2.264-1.131
		c-0.472-0.489-0.706-1.142-0.706-1.958c0-0.974,0.372-1.761,1.116-2.362C-27.602,2.301-26.624,2-25.411,2
		c1.107,0,2.033,0.297,2.779,0.889c0.746,0.593,1.149,1.353,1.208,2.279h-1.437c-0.101-0.587-0.38-1.047-0.838-1.377
		c-0.457-0.33-1.044-0.496-1.758-0.496c-0.762,0-1.375,0.175-1.839,0.524c-0.463,0.35-0.695,0.815-0.695,1.398
		c0,0.45,0.171,0.815,0.512,1.096c0.342,0.281,0.907,0.521,1.695,0.723l1.199,0.317c1.186,0.297,2.037,0.694,2.553,1.191
		c0.516,0.498,0.775,1.167,0.775,2.009c0,1.054-0.385,1.892-1.156,2.514C-23.183,13.689-24.224,14-25.537,14
		c-1.212,0-2.207-0.296-2.982-0.889C-29.296,12.518-29.721,11.727-29.795,10.736z"/>
	<path style="fill:#A8B4BB;" d="M-14.477,13.731c-0.286,0-0.524,0-0.715,0c-0.19,0-0.429,0-0.715,0V3.558h-3.693V2.271h8.814v1.287
		h-3.693C-14.477,3.558-14.477,13.731-14.477,13.731z"/>
	<path style="fill:#A8B4BB;" d="M-7.148,9.196c0,0.911,0,1.667,0,2.267c0,0.602,0,1.357,0,2.267h-1.429V2.271h4.376
		c1.107,0,1.992,0.311,2.656,0.933s0.996,1.449,0.996,2.481c0,0.8-0.203,1.49-0.612,2.073c-0.408,0.582-0.972,0.988-1.691,1.215
		l2.652,4.757h-1.675l-2.454-4.534h-2.819V9.196z M-7.148,3.542c0,0.593,0,1.107,0,1.541s0,0.868,0,1.302c0,0.434,0,0.948,0,1.541
		h2.819c0.736,0,1.303-0.189,1.704-0.568c0.4-0.378,0.6-0.92,0.6-1.624c0-0.688-0.209-1.226-0.627-1.612
		C-3.071,3.735-3.65,3.542-4.392,3.542C-4.392,3.542-7.148,3.542-7.148,3.542z"/>
	<path style="fill:#A8B4BB;" d="M9.496,13.731c-0.233-0.661-0.425-1.208-0.575-1.64c-0.15-0.431-0.343-0.978-0.575-1.64H3.788
		l-1.152,3.28H1.135L5.359,2.273h1.414l4.224,11.458H9.496V13.731z M6.003,4.122C5.76,4.81,5.549,5.409,5.372,5.917
		C5.194,6.426,5.017,6.934,4.84,7.442C4.663,7.95,4.452,8.549,4.209,9.237h3.716L6.13,4.123H6.003V4.122z"/>
	<path style="fill:#A8B4BB;" d="M13.006,2.271c0.794,0,1.449,0,1.966,0s1.171,0,1.966,0c1.699,0,3.026,0.503,3.978,1.508
		c0.953,1.006,1.429,2.412,1.429,4.216c0,1.805-0.476,3.212-1.425,4.22s-2.278,1.512-3.982,1.512h-3.931V2.271H13.006z
		 M14.435,3.558c0,0.858,0,1.624,0,2.299s0,1.389,0,2.144s0,1.469,0,2.144s0,1.441,0,2.299h2.406c1.282,0,2.275-0.389,2.982-1.167
		c0.707-0.778,1.06-1.866,1.06-3.264c0-1.403-0.357-2.496-1.068-3.28c-0.711-0.784-1.704-1.175-2.974-1.175
		C16.841,3.558,14.435,3.558,14.435,3.558z"/>
	<path style="fill:#A8B4BB;" d="M32.262,13.731c-0.233-0.661-0.425-1.208-0.575-1.64c-0.15-0.431-0.343-0.978-0.575-1.64h-4.558
		l-1.152,3.28h-1.501l4.224-11.458h1.414l4.224,11.458h-1.501V13.731z M28.769,4.122c-0.243,0.688-0.453,1.287-0.631,1.795
		c-0.178,0.508-0.355,1.016-0.532,1.525s-0.388,1.107-0.631,1.795h3.716l-1.795-5.114h-0.127V4.122z"/>
	<path style="fill:#A8B4BB;" d="M48.454,13.731c-0.35-0.381-0.701-0.762-1.056-1.143c-0.487,0.429-1.053,0.762-1.699,1
		c-0.646,0.238-1.315,0.358-2.009,0.358c-1.138,0-2.068-0.306-2.791-0.917c-0.723-0.611-1.084-1.396-1.084-2.354
		c0-0.677,0.187-1.28,0.56-1.806c0.373-0.527,0.944-0.991,1.712-1.394c0.037-0.016,0.082-0.037,0.135-0.063s0.107-0.054,0.163-0.083
		c0.056-0.028,0.105-0.054,0.147-0.075c-0.53-0.556-0.902-1.038-1.116-1.445c-0.214-0.408-0.321-0.82-0.321-1.239
		c0-0.736,0.277-1.347,0.833-1.835c0.556-0.487,1.251-0.731,2.089-0.731c0.847,0,1.546,0.242,2.096,0.727
		c0.55,0.485,0.825,1.103,0.825,1.854c0,0.587-0.191,1.112-0.575,1.572c-0.384,0.46-1.017,0.924-1.902,1.389l2.866,3.081
		c0.18-0.36,0.315-0.784,0.405-1.275c0.09-0.489,0.135-1.092,0.135-1.806v-0.2H49.2v0.206c0,0.889-0.079,1.664-0.238,2.323
		c-0.159,0.659-0.394,1.233-0.706,1.719l1.993,2.137h-1.795V13.731z M41.664,9.323c-0.281,0.387-0.421,0.805-0.421,1.254
		c0,0.641,0.237,1.162,0.71,1.56c0.474,0.4,1.095,0.6,1.862,0.6c0.519,0,1.028-0.097,1.525-0.29
		c0.497-0.192,0.903-0.453,1.215-0.783l-3.24-3.541c-0.026,0.011-0.064,0.027-0.115,0.052c-0.051,0.024-0.103,0.048-0.154,0.071
		c-0.052,0.023-0.099,0.047-0.135,0.067C42.361,8.601,41.946,8.937,41.664,9.323z M45.167,5.718c0.286-0.317,0.429-0.68,0.429-1.088
		c0-0.445-0.146-0.805-0.437-1.079c-0.291-0.275-0.67-0.413-1.135-0.413c-0.455,0-0.829,0.14-1.123,0.421s-0.441,0.643-0.441,1.088
		c0,0.317,0.092,0.633,0.277,0.945c0.186,0.313,0.503,0.694,0.953,1.143C44.388,6.375,44.881,6.035,45.167,5.718z"/>
	<path style="fill:#A8B4BB;" d="M55.975,10.736c0.291,0,0.532,0,0.723,0c0.191,0,0.432,0,0.723,0c0.09,0.599,0.4,1.075,0.929,1.429
		c0.53,0.356,1.202,0.532,2.017,0.532c0.774,0,1.413-0.187,1.918-0.56c0.505-0.373,0.758-0.843,0.758-1.41
		c0-0.487-0.186-0.891-0.556-1.215c-0.37-0.322-0.95-0.581-1.739-0.779l-1.469-0.381c-1.038-0.264-1.792-0.641-2.264-1.131
		c-0.472-0.489-0.706-1.142-0.706-1.958c0-0.974,0.372-1.761,1.116-2.362C58.167,2.301,59.146,2,60.359,2
		c1.107,0,2.033,0.297,2.779,0.889c0.746,0.593,1.149,1.353,1.208,2.279h-1.437c-0.101-0.587-0.38-1.047-0.838-1.377
		c-0.457-0.33-1.044-0.496-1.758-0.496c-0.762,0-1.375,0.175-1.839,0.524c-0.464,0.35-0.695,0.815-0.695,1.398
		c0,0.45,0.171,0.815,0.512,1.096c0.342,0.281,0.907,0.521,1.695,0.723l1.199,0.317c1.186,0.297,2.037,0.694,2.553,1.191
		c0.516,0.498,0.775,1.167,0.775,2.009c0,1.054-0.385,1.892-1.156,2.514C62.586,13.689,61.546,14,60.232,14
		c-1.212,0-2.207-0.296-2.982-0.889C56.474,12.518,56.049,11.727,55.975,10.736z"/>
	<path style="fill:#A8B4BB;" d="M68.314,13.731c-0.286,0-0.524,0-0.715,0c-0.19,0-0.429,0-0.715,0V2.271h1.429V13.731z"/>
	<path style="fill:#A8B4BB;" d="M70.689,10.736c0.291,0,0.532,0,0.723,0s0.432,0,0.723,0c0.09,0.599,0.4,1.075,0.929,1.429
		c0.53,0.356,1.202,0.532,2.017,0.532c0.774,0,1.413-0.187,1.918-0.56c0.505-0.373,0.758-0.843,0.758-1.41
		c0-0.487-0.186-0.891-0.556-1.215c-0.37-0.322-0.95-0.581-1.739-0.779l-1.469-0.381c-1.038-0.264-1.792-0.641-2.264-1.131
		c-0.472-0.489-0.706-1.142-0.706-1.958c0-0.974,0.372-1.761,1.116-2.362C72.881,2.301,73.86,2,75.072,2
		c1.107,0,2.033,0.297,2.779,0.889S79,4.242,79.059,5.168h-1.437c-0.101-0.587-0.38-1.047-0.838-1.377
		c-0.457-0.33-1.044-0.496-1.758-0.496c-0.762,0-1.375,0.175-1.839,0.524s-0.695,0.815-0.695,1.398c0,0.45,0.171,0.815,0.512,1.096
		s0.907,0.521,1.695,0.723l1.199,0.317c1.186,0.297,2.037,0.694,2.553,1.191c0.516,0.498,0.775,1.167,0.775,2.009
		c0,1.054-0.385,1.892-1.156,2.514C77.3,13.689,76.26,14,74.946,14c-1.212,0-2.207-0.296-2.982-0.889
		C71.188,12.518,70.763,11.727,70.689,10.736z"/>
	<path style="fill:#A8B4BB;" d="M86.006,13.731c-0.286,0-0.524,0-0.715,0c-0.19,0-0.429,0-0.715,0V3.558h-3.693V2.271h8.814v1.287
		h-3.693V13.731z"/>
	<path style="fill:#A8B4BB;" d="M99.006,12.444c0,0.26,0,0.475,0,0.643c0,0.17,0,0.384,0,0.643h-7.099V2.271h7.099v1.287h-5.67
		v3.676h5.376v1.271h-5.376v3.939H99.006z"/>
	<path style="fill:#A8B4BB;" d="M112.887,13.731c-0.27,0-0.492,0-0.667,0c-0.175,0-0.397,0-0.667,0V4.979h-0.096l-3.613,8.671
		h-1.208l-3.613-8.671h-0.096v8.75h-1.334V2.271h1.66l3.922,9.481h0.127l3.922-9.481h1.66v11.459H112.887z"/>
	<path style="fill:#A8B4BB;" d="M123.257,13.731c-0.233-0.661-0.425-1.208-0.575-1.64c-0.15-0.431-0.343-0.978-0.575-1.64h-4.558
		l-1.152,3.28h-1.501l4.224-11.458h1.414l4.224,11.458h-1.501V13.731z M119.763,4.122c-0.243,0.688-0.453,1.287-0.631,1.795
		s-0.355,1.016-0.532,1.525s-0.388,1.107-0.631,1.795h3.716l-1.795-5.114h-0.127V4.122z"/>
	<path style="fill:#A8B4BB;" d="M126.219,10.736c0.291,0,0.532,0,0.723,0s0.432,0,0.723,0c0.09,0.599,0.4,1.075,0.929,1.429
		c0.53,0.356,1.202,0.532,2.017,0.532c0.774,0,1.413-0.187,1.918-0.56c0.505-0.373,0.758-0.843,0.758-1.41
		c0-0.487-0.186-0.891-0.556-1.215c-0.37-0.322-0.95-0.581-1.739-0.779l-1.469-0.381c-1.038-0.264-1.792-0.641-2.264-1.131
		c-0.472-0.489-0.706-1.142-0.706-1.958c0-0.974,0.372-1.761,1.116-2.362C128.412,2.301,129.391,2,130.603,2
		c1.107,0,2.033,0.297,2.779,0.889c0.746,0.593,1.149,1.353,1.208,2.279h-1.437c-0.101-0.587-0.38-1.047-0.838-1.377
		c-0.457-0.33-1.044-0.496-1.758-0.496c-0.762,0-1.375,0.175-1.839,0.524s-0.695,0.815-0.695,1.398c0,0.45,0.171,0.815,0.512,1.096
		s0.907,0.521,1.695,0.723l1.199,0.317c1.186,0.297,2.037,0.694,2.553,1.191c0.516,0.498,0.775,1.167,0.775,2.009
		c0,1.054-0.385,1.892-1.156,2.514c-0.77,0.622-1.811,0.933-3.125,0.933c-1.212,0-2.207-0.296-2.982-0.889
		C126.718,12.518,126.293,11.727,126.219,10.736z"/>
</g>
</svg>
