<svg id="d6736e07-d284-4579-806d-0c7b1ca89ff6" data-name="Layer 1" xmlns="http://www.w3.org/2000/svg" xmlns:xlink="http://www.w3.org/1999/xlink" viewBox="0 0 23.78438 18"><defs><linearGradient id="b1165b4d-0fb4-4d48-8228-5b8482f0bee2" x1="13.5" y1="18.99997" x2="13.5" y2="0.99997" gradientTransform="matrix(1, 0, 0, -1, 0, 19.99997)" gradientUnits="userSpaceOnUse"><stop offset="0" stop-color="#0995d0"/><stop offset="0.6659" stop-color="#363280"/></linearGradient></defs><title>logo</title><path d="M24.98359,8.07885a12.27071,12.27071,0,0,1-5.91595,7.06021,11.3087,11.3087,0,0,1-6.59317,1.31552l6.07163-4.7561a1.44341,1.44341,0,1,0-.46705-1.06643,1.27412,1.27412,0,0,0,.03114.29579L4.48794,19,19.56582,6.94237a1.44611,1.44611,0,0,0,.91853.31915A1.46342,1.46342,0,1,0,19.02093,5.7981a1.5559,1.5559,0,0,0,.07785.47483L1.60781,16.56356,14.67738,6.08611a1.15851,1.15851,0,0,0,.685.218A1.18709,1.18709,0,1,0,14.1792,5.12087a1.145,1.145,0,0,0,.0467.32694L7.43035,9.35544s.84847-4.63156,6.4297-7.177a13.02993,13.02993,0,0,1,5.86146-1.1287C19.71372,1.04977,27.19428,1.41562,24.98359,8.07885Z" transform="translate(-1.60781 -1)" style="fill:url(#b1165b4d-0fb4-4d48-8228-5b8482f0bee2)"/></svg>