<?xml version="1.0" encoding="utf-8"?>
<!-- Generator: Adobe Illustrator 17.1.0, SVG Export Plug-In . SVG Version: 6.00 Build 0)  -->
<!DOCTYPE svg PUBLIC "-//W3C//DTD SVG 1.1//EN" "http://www.w3.org/Graphics/SVG/1.1/DTD/svg11.dtd">
<svg version="1.1" id="Layer_1" xmlns="http://www.w3.org/2000/svg" xmlns:xlink="http://www.w3.org/1999/xlink" x="0px" y="0px"
	 width="100%" height="100%" viewBox="0 0 365 275" enable-background="new 0 0 365 275" xml:space="preserve">
<style  type="text/css">
	.correct {
	    transform: translate(182.5px,137.5px);
	}
	.cye-circle-path {
	  transform: translate(-182.5px,-137.5px);
		transform-origin: 0 0;
	}
	#cye-circle {
	  animation: clockwise 1s infinite linear;
	}
	@keyframes clockwise {
		0%   { transform: rotate(0deg); }
		100% { transform: rotate(360deg); }
	}
</style>
<g class="correct">
	<g id="cye-circle">
		<path class="cye-circle-path" fill="#015EAF" d="M155.8,250.2c0,0-0.6-0.1-1.8-0.2c-0.6-0.1-1.4-0.2-2.3-0.2c-0.9-0.1-1.8-0.3-3-0.5
			c-1.1-0.2-2.4-0.5-3.7-0.6c-0.6-0.2-1.4-0.3-2.1-0.5s-1.5-0.5-2.3-0.6c-3.1-0.7-6.4-1.8-10.1-3.4c-3.6-1.5-7.5-3.3-11.5-5.5
			c-3.9-2.3-7.9-4.9-11.8-8c-3.9-3-7.7-6.5-11.2-10.4c-3.6-3.8-6.8-8-9.7-12.4c-2.9-4.4-5.6-9-7.7-13.8c-0.5-1.2-1-2.4-1.6-3.6
			c-0.5-1.2-0.9-2.4-1.4-3.6c-0.4-1.3-0.9-2.4-1.3-3.6c-0.4-1.3-0.7-2.4-1-3.6c-1.3-4.8-2.2-9.4-2.8-13.9c-0.4-2.3-0.5-4.4-0.5-6.6
			c-0.1-1.1-0.1-2.1-0.1-3.1c-0.1-0.6,0-1-0.1-1.5v-0.5v-0.3V154v-0.6c0-1.9,0.2-3.8,0.2-5.5c0.2-1.7,0.4-3.5,0.6-5.1
			c0.1-0.7,0.2-1.5,0.3-2.4c0.2-0.6,0.3-1.5,0.5-2.1c0.3-1.4,0.5-2.6,0.6-3.7c0.5-2.2,1.1-3.9,1.4-5c0.4-1.2,0.5-1.7,0.5-1.7
			s0,0.6,0,1.8c-0.1,1.2-0.1,2.9-0.3,5.1c0,1.1,0,2.4,0,3.7c0,0.6,0,1.4,0,2.1c0,0.7,0.1,1.5,0.1,2.2c0.2,1.6,0.1,3.1,0.3,4.9
			c0.2,1.7,0.4,3.6,0.5,5.5l0.1,0.6v0.2c0-0.2,0,0,0-0.1v0.1v0.1l0.1,0.5c0.1,0.6,0.2,0.9,0.2,1.5c0.2,0.9,0.3,1.9,0.4,2.9
			c0.4,2,0.6,4,1.2,6.1c0.9,4.1,2,8.5,3.6,12.8c0.4,1.2,0.8,2.2,1.2,3.2c0.5,1.1,0.8,2.2,1.4,3.3c0.9,2.2,1.9,4.3,3,6.5
			c2.1,4.3,4.6,8.6,7.3,12.7c2.7,4.1,5.8,7.9,8.9,11.6c1.6,1.8,3.2,3.5,4.9,5.2c0.8,0.8,1.7,1.6,2.5,2.4c0.9,0.7,1.7,1.6,2.6,2.4
			c3.5,3.1,7,5.9,10.5,8.2c3.6,2.4,6.9,4.5,10.3,6.3c1.7,0.8,3.2,1.7,4.8,2.5c1.5,0.7,3,1.5,4.4,2.1c0.6,0.4,1.4,0.6,2.1,0.9
			c0.6,0.3,1.4,0.6,1.9,0.7c1.3,0.6,2.3,1,3.4,1.4c1.1,0.5,2,0.7,2.8,1.1c0.8,0.3,1.5,0.6,2.2,0.7C155.3,250,155.8,250.2,155.8,250.2
			z"/>
		<path class="cye-circle-path" fill="#015EAF" d="M291.9,131.5c0,0,0.6,2.4,1.4,6.7c0.4,2.1,0.8,4.7,1.1,7.7c0.1,1.5,0.3,3.1,0.4,4.9l0.1,0.4
			c0,0.1,0,0.1,0,0.3v0.2l0.1,0.6c0,0.5,0.1,0.8,0,1.4c0.1,0.8,0,1.7,0.1,2.7c-0.2,3.8-0.4,7.8-1,12.2c-0.6,4.3-1.6,8.8-2.9,13.3
			c-1.4,4.5-3.1,9.2-5.2,13.7c-2.2,4.5-4.7,8.8-7.5,13.1c-2.8,4.1-6,8.2-9.4,11.7c-1.7,1.7-3.4,3.6-5.2,5.1c-0.9,0.8-1.8,1.7-2.7,2.4
			c-0.8,0.7-1.8,1.6-2.8,2.3c-3.8,2.9-7.5,5.5-11.3,7.5c-1.8,1.1-3.7,2.1-5.6,2.9c-0.8,0.5-1.8,0.8-2.8,1.3c-0.9,0.4-1.7,0.7-2.7,1.2
			c-1.7,0.7-3.3,1.3-5,1.9c-0.7,0.3-1.6,0.6-2.4,0.7s-1.5,0.5-2.3,0.6c-1.5,0.4-2.8,0.7-4.1,1c-0.6,0.2-1.3,0.3-1.7,0.4
			c-0.6,0.1-1.2,0.2-1.7,0.4c-2.1,0.5-3.8,0.6-4.9,0.6c-1.2,0.1-1.7,0.2-1.7,0.2s0.6-0.3,1.6-0.6c0.6-0.3,1.2-0.5,2-0.6
			c0.7-0.3,1.7-0.6,2.7-1.1c0.6-0.3,1-0.4,1.6-0.6c0.6-0.3,1.1-0.5,1.7-0.7c1.2-0.5,2.4-1,3.8-1.7c0.7-0.4,1.4-0.6,2-1
			c0.6-0.4,1.5-0.7,2.1-1.1c0.7-0.5,1.5-0.7,2.3-1.2s1.5-0.8,2.3-1.3c3.1-1.8,6.4-3.8,9.7-6.1c3.4-2.3,6.8-4.9,10.1-8
			c0.8-0.7,1.6-1.6,2.5-2.3c0.8-0.7,1.6-1.6,2.5-2.4c1.6-1.6,3.1-3.2,4.8-4.9c3.1-3.5,6-7.1,8.6-11.1c2.7-3.8,5.1-8,7.1-12.1
			c1-2.1,2.1-4.1,2.9-6.2c0.5-1.1,0.9-2.1,1.3-3.1c0.5-1.1,0.8-2.1,1.2-3.1c1.5-4.1,2.8-8.3,3.8-12.3c0.3-1,0.5-2,0.7-3
			c0.2-1,0.4-1.9,0.6-2.9c0.5-1.9,0.6-3.7,1-5.4c0.3-1.7,0.6-3.6,0.7-5.1c0.2-1.6,0.2-3.3,0.4-4.6c0.1-3,0.2-5.5,0.3-7.7
			c0-2.2,0.1-3.9,0.1-5C291.9,132.1,291.9,131.5,291.9,131.5z"/>
		<path class="cye-circle-path" fill="#015EAF" d="M98.5,73.2c0,0,0.5-0.6,1.2-1.9c0.5-0.5,0.8-1.4,1.5-2.4c0.6-0.9,1.2-1.9,2-3c0.7-1.1,1.6-2.4,2.6-3.7
			c1-1.4,2.2-2.6,3.3-4.2c1.3-1.4,2.6-2.9,4.1-4.5c1.5-1.5,3.2-3,4.9-4.6c3.5-3,7.5-6.3,12.3-9.2c4.5-3,9.6-5.6,15.2-7.8
			c1.4-0.5,2.8-1.1,4.2-1.6c1.5-0.6,2.9-0.9,4.3-1.4c0.7-0.3,1.5-0.5,2.3-0.6c0.8-0.3,1.5-0.5,2.3-0.6c1.5-0.5,3-0.7,4.5-1.1
			c6.1-1.2,12.6-1.8,18.9-1.9h0.6h0.6l1.2,0.1l2.4,0.1l2.4,0.1l2.4,0.3c1.6,0.2,3.3,0.3,4.8,0.6c1.5,0.3,3.1,0.6,4.6,0.7
			c1.6,0.3,3.1,0.6,4.5,1c1.5,0.5,3,0.6,4.5,1.2c1.5,0.5,2.9,0.8,4.4,1.4c1.4,0.5,2.8,1.1,4.2,1.6c0.6,0.3,1.5,0.5,2.1,0.7
			c0.6,0.4,1.4,0.5,2,0.9c1.4,0.5,2.6,1.2,3.9,1.8c2.6,1.5,5,2.6,7.3,4.2c1.2,0.7,2.4,1.4,3.4,2.2c1.1,0.7,2.1,1.5,3.2,2.4
			c0.6,0.5,1,0.7,1.6,1.1c0.6,0.5,1,0.7,1.5,1.2c1,0.7,1.9,1.5,2.8,2.4c1.7,1.5,3.4,3.1,4.9,4.6c1.5,1.6,2.8,3,4.1,4.5
			c1.3,1.5,2.4,2.8,3.4,4.1s1.8,2.6,2.7,3.6c1.6,2.2,2.6,4,3.4,5.2c0.7,1.3,1.2,1.9,1.2,1.9s-0.6-0.5-1.5-1.6c-1-1.1-2.4-2.7-4.2-4.6
			c-1-0.9-1.9-2-3.1-3.1c-1.2-1.1-2.5-2.4-3.9-3.6c-1.4-1.2-2.9-2.4-4.5-3.7c-1.7-1.3-3.4-2.6-5.2-3.8c-0.9-0.5-1.9-1.4-2.8-1.9
			c-0.6-0.4-1-0.6-1.5-1c-0.6-0.4-1-0.5-1.5-0.9c-1.1-0.5-2.1-1.3-3.2-1.9c-1.1-0.5-2.3-1.2-3.3-1.7c-2.3-1.3-4.6-2.3-7.1-3.4
			c-1.3-0.5-2.6-1-3.8-1.5c-0.6-0.3-1.4-0.5-1.9-0.7c-0.6-0.3-1.4-0.5-2-0.6c-5.2-1.9-10.8-3.1-16.6-4.2c-1.5-0.3-2.9-0.5-4.3-0.5
			c-1.4-0.2-2.8-0.3-4.3-0.5l-2.2-0.2l-2.4-0.1l-2.4-0.1l-1.2-0.1h-0.6h-0.6c-2.9,0.1-6,0.1-8.8,0.5c-2.9,0.2-5.9,0.6-8.7,1.1
			c-5.7,1-11.4,2.4-16.5,4.2c-5.1,1.8-10.2,4-14.7,6.5c-4.6,2.4-8.6,5.1-12.4,7.6c-1.7,1.5-3.5,2.7-5.1,3.9c-1.6,1.4-3.1,2.6-4.5,3.8
			c-1.5,1.4-2.6,2.5-3.8,3.6c-1.2,1.1-2.2,2.3-3.1,3.2c-1.9,1.9-3.2,3.6-4.2,4.6C99.1,72.7,98.5,73.2,98.5,73.2z"/>
	</g>
</g>
<path id="XMLID_2_" fill="#015EAF" d="M144.3,133.3c0,0,5.3-29.2,40.4-45c0,0,20.2-9.2,36.8-7.1c0,0,46.9,2.4,33,44.2
	c0,0-6.3,26.7-37.1,44.4c0,0-14.9,9.9-41.4,8.2l38.7-30.3c0,0,10.1,5.8,14.4-4.6c0,0,1.7-9.5-7.1-10.8c0,0-11.1-1.5-10.4,10.8
	L125.7,194l95.4-76.3c0,0,13.6,5.3,15.2-8.2c0,0-2-8.7-10.8-7.5c0,0-8.3,1.5-7.8,12.1l-109.9,64.7l82.1-66c0,0,8.8,4.3,13.7-1.7
	c0,0,3.8-7-2-11.6c0,0-14.2-6.3-14.2,8.9L144.3,133.3z"/>
</svg>
