<?xml version="1.0" encoding="utf-8"?>
<!-- Generator: Adobe Illustrator 17.1.0, SVG Export Plug-In . SVG Version: 6.00 Build 0)  -->
<!DOCTYPE svg PUBLIC "-//W3C//DTD SVG 1.1//EN" "http://www.w3.org/Graphics/SVG/1.1/DTD/svg11.dtd">
<svg version="1.1" id="Layer_1" xmlns="http://www.w3.org/2000/svg" xmlns:xlink="http://www.w3.org/1999/xlink" x="0px" y="0px"
	 viewBox="0 0 1366 768" enable-background="new 0 0 1366 768" xml:space="preserve">
<g>
	<path fill="#A8B4BB" stroke="#A8B4BB" stroke-width="0.3" stroke-miterlimit="10" d="M409.2,547.2c-1.1,1.3-2.6,2.3-4.3,3
		c-1.7,0.6-3.6,0.9-5.5,0.9c-2.3,0-4.7-0.6-6.6-1.9c-1.9-1.3-3.8-3.4-5.3-6.2c-1.5-2.8-2.6-6.6-3.4-11.1c-0.9-4.5-1.3-10-1.3-16.2
		c0-6.6,0.4-12.2,1.5-16.6c0.9-4.5,2.1-8.1,3.6-11.1c1.5-2.8,3.4-4.9,5.3-6.2c2.1-1.3,4.1-1.9,6.2-1.9s4.1,0.2,5.3,0.6
		c1.5,0.4,2.8,1.1,3.6,1.7l-1.3,6.6c-0.9-0.6-1.9-1.3-3.2-1.7c-1.3-0.4-2.6-0.6-4.3-0.6c-1.7,0-3.2,0.4-4.5,1.5
		c-1.5,1.1-2.6,2.6-3.8,4.9s-1.9,5.1-2.6,9c-0.6,3.6-0.9,8.1-0.9,13.4c0,9.6,1.1,16.6,3.4,21.6c2.3,4.9,5.3,7.3,9.2,7.3
		c1.5,0,3-0.2,4.3-0.9s2.3-1.3,3.2-2.1L409.2,547.2z"/>
	<path fill="#A8B4BB" stroke="#A8B4BB" stroke-width="0.3" stroke-miterlimit="10" d="M440.3,530.6h-13.4l-3.8,19.2h-5.1l14.5-69.8
		h2.8l14.5,69.8h-5.3L440.3,530.6z M428.2,524.2H439l-4.1-21.3l-1.3-10.5h-0.2l-1.3,10.7L428.2,524.2z"/>
	<path fill="#A8B4BB" stroke="#A8B4BB" stroke-width="0.3" stroke-miterlimit="10" d="M462.5,481.9c1.5-0.4,3.2-0.9,4.9-1.1
		c1.7-0.2,3.4-0.4,4.9-0.4c1.7,0,3.4,0.2,5.1,0.9c1.5,0.6,3,1.7,4.3,3.2c1.3,1.5,2.1,3.4,2.8,5.8c0.6,2.3,1.1,5.3,1.1,9
		c0,5.3-0.9,9.8-2.3,13c-1.5,3.2-3.6,5.5-6.2,6.6l2.6,3.6l9.4,27.3h-6l-10.2-29.9l-5.1-1.5v31.4h-5.1V481.9z M467.6,513.5h4.1
		c2.6,0,4.7-1.1,6.2-3.4c1.5-2.3,2.3-5.8,2.3-10.5c0-3.6-0.6-6.6-1.9-9c-1.3-2.3-3.2-3.6-5.5-3.6c-0.9,0-1.9,0-2.8,0.2
		c-1.1,0-1.7,0.2-2.1,0.4v25.8H467.6z"/>
	<path fill="#A8B4BB" stroke="#A8B4BB" stroke-width="0.3" stroke-miterlimit="10" d="M503.5,481.9c1.5-0.4,3.2-0.9,4.9-1.1
		s3.4-0.4,4.9-0.4c1.7,0,3.4,0.2,5.1,0.9c1.5,0.6,3,1.7,4.3,3.2c1.3,1.5,2.1,3.4,2.8,5.8c0.6,2.3,1.1,5.3,1.1,9
		c0,5.3-0.9,9.8-2.3,13c-1.5,3.2-3.6,5.5-6.2,6.6l2.6,3.6l9.4,27.3h-6l-10.2-29.9l-5.1-1.5v31.4h-5.1V481.9z M508.6,513.5h4.1
		c2.6,0,4.7-1.1,6.2-3.4c1.5-2.3,2.3-5.8,2.3-10.5c0-3.6-0.6-6.6-1.9-9c-1.3-2.3-3.2-3.6-5.5-3.6c-0.9,0-1.9,0-2.8,0.2
		c-1.1,0-1.7,0.2-2.1,0.4v25.8H508.6z"/>
	<path fill="#A8B4BB" stroke="#A8B4BB" stroke-width="0.3" stroke-miterlimit="10" d="M544.7,481.1H566v6.8h-16.2v23.3h14.9v6.8
		h-14.9v25.2h16.4v6.8h-21.6L544.7,481.1L544.7,481.1z"/>
	<path fill="#A8B4BB" stroke="#A8B4BB" stroke-width="0.3" stroke-miterlimit="10" d="M582.3,481.9c1.5-0.4,3.2-0.9,4.9-1.1
		c1.7-0.2,3.4-0.4,4.9-0.4c1.7,0,3.4,0.2,5.1,0.9c1.5,0.6,3,1.7,4.3,3.2c1.3,1.5,2.1,3.4,2.8,5.8c0.6,2.3,1.1,5.3,1.1,9
		c0,5.3-0.9,9.8-2.3,13c-1.5,3.2-3.6,5.5-6.2,6.6l2.6,3.6l9.4,27.3h-6l-10.2-29.9l-5.1-1.5v31.4h-5.1V481.9z M587.4,513.5h4.1
		c2.6,0,4.7-1.1,6.2-3.4c1.5-2.3,2.3-5.8,2.3-10.5c0-3.6-0.6-6.6-1.9-9c-1.3-2.3-3.2-3.6-5.5-3.6c-0.9,0-1.9,0-2.8,0.2
		c-1.1,0-1.7,0.2-2.1,0.4v25.8H587.4z"/>
	<path fill="#A8B4BB" stroke="#A8B4BB" stroke-width="0.3" stroke-miterlimit="10" d="M640.1,530.6h-13.4l-3.8,19.2h-5.1l14.5-69.8
		h2.8l14.5,69.8h-5.3L640.1,530.6z M627.9,524.2h10.9l-4.1-21.3l-1.3-10.5h-0.2L632,503L627.9,524.2z"/>
	<path fill="#A8B4BB" stroke="#A8B4BB" stroke-width="0.3" stroke-miterlimit="10" d="M682.8,481.1h21.3v6.8h-16.2v23.3h14.9v6.8
		h-14.9v25.2h16.4v6.8h-21.6V481.1z"/>
	<path fill="#A8B4BB" stroke="#A8B4BB" stroke-width="0.3" stroke-miterlimit="10" d="M719.9,540.8c0.9,0.9,2.1,1.7,3.6,2.3
		c1.5,0.9,3.4,1.1,5.3,1.1c2.6,0,4.7-0.9,6.2-2.8c1.5-1.7,2.3-4.7,2.3-8.5c0-2.6-0.4-4.7-1.3-6.6c-0.9-1.9-2.1-3.6-3.4-5.3
		c-1.3-1.7-2.8-3.2-4.5-4.7c-1.5-1.5-3-3.2-4.5-5.1c-1.5-1.9-2.6-4.1-3.4-6.4c-0.9-2.3-1.3-5.3-1.3-8.8c0-5.5,1.1-9.6,3.4-12.2
		c2.3-2.6,5.3-4.1,9-4.1c2.3,0,4.3,0.2,6.2,0.9c1.7,0.6,3.2,1.3,4.3,2.3l-1.7,6.4c-0.9-0.6-1.9-1.3-3.6-1.9
		c-1.5-0.6-3.2-0.9-5.3-0.9c-2.6,0-4.3,0.9-5.5,2.6c-1.3,1.7-1.7,3.8-1.7,6.6c0,2.3,0.4,4.3,1.3,6.2c0.9,1.7,2.1,3.4,3.4,4.9
		s2.8,3.2,4.5,4.7c1.5,1.7,3,3.4,4.5,5.3c1.3,1.9,2.6,4.3,3.4,6.6c0.9,2.6,1.3,5.3,1.3,8.8c0,5.8-1.3,10.2-3.6,13.4
		c-2.3,3.2-5.8,4.9-10,4.9c-2.8,0-4.9-0.4-6.8-1.1c-1.7-0.6-3.2-1.5-4.3-2.6L719.9,540.8z"/>
	<path fill="#A8B4BB" stroke="#A8B4BB" stroke-width="0.3" stroke-miterlimit="10" d="M783.1,487.9h-11.7v61.9h-5.1v-61.9h-11.7
		v-6.8h28.6V487.9z"/>
	<path fill="#A8B4BB" stroke="#A8B4BB" stroke-width="0.3" stroke-miterlimit="10" d="M796.5,481.9c1.5-0.4,3.2-0.9,4.9-1.1
		c1.7-0.2,3.4-0.4,4.9-0.4c1.7,0,3.4,0.2,5.1,0.9c1.5,0.6,3,1.7,4.3,3.2c1.3,1.5,2.1,3.4,2.8,5.8c0.6,2.3,1.1,5.3,1.1,9
		c0,5.3-0.9,9.8-2.3,13c-1.5,3.2-3.6,5.5-6.2,6.6l2.6,3.6l9.4,27.3h-6l-10.2-29.9l-5.1-1.5v31.4h-5.1V481.9z M801.7,513.5h4.1
		c2.6,0,4.7-1.1,6.2-3.4c1.5-2.3,2.3-5.8,2.3-10.5c0-3.6-0.6-6.6-1.9-9c-1.3-2.3-3.2-3.6-5.5-3.6c-0.9,0-1.9,0-2.8,0.2
		c-1.1,0-1.7,0.2-2.1,0.4v25.8H801.7z"/>
	<path fill="#A8B4BB" stroke="#A8B4BB" stroke-width="0.3" stroke-miterlimit="10" d="M854.4,530.6h-13.4l-3.8,19.2H832l14.5-69.8
		h2.8l14.5,69.8h-5.3L854.4,530.6z M842.2,524.2h10.9l-4.1-21.3l-1.3-10.5h-0.2l-1.3,10.7L842.2,524.2z"/>
	<path fill="#A8B4BB" stroke="#A8B4BB" stroke-width="0.3" stroke-miterlimit="10" d="M876.8,481.1c0.6-0.2,1.5-0.4,2.3-0.4
		c0.9,0,1.7-0.2,2.8-0.2c0.9,0,1.7,0,2.8,0c0.9,0,1.7,0,2.6,0c3.4,0,6.2,0.9,8.5,2.3c2.3,1.7,4.3,4.1,5.8,7c1.5,3,2.6,6.6,3.2,10.9
		c0.6,4.3,0.9,9,0.9,14.3c0,4.7-0.2,9.2-0.9,13.4c-0.6,4.3-1.7,8.1-3.2,11.3c-1.5,3.2-3.4,6-5.8,7.9c-2.3,1.9-5.3,3-9,3
		c-0.6,0-1.3,0-2.3,0c-1.1,0-1.9,0-2.8-0.2c-1.1,0-1.9-0.2-2.8-0.2c-0.9,0-1.5-0.2-1.9-0.2v-68.9H876.8z M887.3,487
		c-0.4,0-0.9,0-1.5,0c-0.4,0-1.1,0-1.5,0c-0.4,0-1.1,0.2-1.5,0.2c-0.4,0-0.9,0.2-1.1,0.2v55.9c0.2,0,0.4,0.2,1.1,0.2
		c0.6,0,1.1,0,1.5,0c0.4,0,1.1,0,1.5,0c0.4,0,0.9,0,1.1,0c2.6,0,4.7-0.9,6.2-2.3s3-3.6,4.1-6.4c1.1-2.6,1.7-5.8,2.1-9.2
		c0.4-3.4,0.6-7.3,0.6-11.1c0-3.4-0.2-6.8-0.6-10.2c-0.4-3.4-1.1-6.4-1.9-9c-0.9-2.6-2.1-4.7-3.8-6.2C892,487.9,889.8,487,887.3,487
		z"/>
	<path fill="#A8B4BB" stroke="#A8B4BB" stroke-width="0.3" stroke-miterlimit="10" d="M938.1,530.6h-13.4l-3.8,19.2h-5.1l14.5-69.8
		h2.8l14.5,69.8h-5.3L938.1,530.6z M925.9,524.2h10.9l-4.1-21.3l-1.3-10.5h-0.2l-1.3,10.7L925.9,524.2z"/>
	<path fill="#A8B4BB" stroke="#A8B4BB" stroke-width="0.3" stroke-miterlimit="10" d="M982.7,531.4c0-2.6,0.2-5.1,0.9-7.5
		s1.3-4.5,2.1-6.4c0.9-1.9,1.9-3.8,3-5.5s2.3-3.2,3.4-4.5c-0.9-2.3-1.7-4.7-2.3-7.3s-1.1-5.1-1.1-7.9c0-1.5,0.2-3.2,0.4-4.7
		s0.9-2.8,1.5-4.1c0.6-1.3,1.5-2.1,2.6-2.8s2.3-1.1,3.8-1.1c1.5,0,2.8,0.4,3.8,1.1s1.9,1.5,2.6,2.6c0.6,1.1,1.1,2.3,1.5,3.6
		c0.2,1.3,0.4,2.8,0.4,4.3c0,2.8-0.6,5.8-1.9,8.5c-1.3,2.8-3.2,5.8-5.5,8.5c0.6,1.9,1.3,3.8,1.9,5.8c0.9,1.9,1.5,4.1,2.3,6
		s1.7,4.1,2.6,6c0.9,1.9,1.7,3.6,2.6,5.3c0.9-1.7,1.5-3.8,2.3-6.6c0.6-2.8,1.3-5.3,1.7-7.9l4.1,2.3c-0.2,1.1-0.6,2.3-0.9,4.1
		c-0.4,1.5-0.9,3.2-1.3,4.7c-0.4,1.5-1.1,3.2-1.5,4.7c-0.4,1.5-1.1,2.8-1.5,3.6c1.5,2.6,2.8,4.5,3.8,6s2.1,2.6,3.2,3.6l-3,5.1
		c-2.1-1.7-4.3-4.7-6.6-9.2c-0.6,1.3-1.3,2.3-2.1,3.4c-0.9,1.1-1.7,2.1-2.6,3c-1.1,0.9-2.1,1.5-3.2,2.1s-2.6,0.9-3.8,0.9
		c-1.7,0-3.4-0.4-5.1-1.3c-1.7-0.9-3-2.1-4.1-3.6c-1.1-1.5-2.1-3.6-2.8-6.2C982.9,537.6,982.7,534.6,982.7,531.4z M1004.7,537
		c-1.1-1.9-2.1-3.8-3-6.2c-0.9-2.3-1.9-4.3-2.8-6.4c-0.9-2.1-1.7-4.3-2.6-6.2c-0.9-2.1-1.3-3.8-1.9-5.5c-0.9,1.3-1.9,2.6-2.8,3.8
		c-0.9,1.3-1.5,2.8-2.1,4.3c-0.6,1.5-1.1,3-1.5,4.9c-0.4,1.9-0.4,3.6-0.4,5.8s0.2,4.1,0.6,5.8s1.1,3,1.9,4.3
		c0.9,1.1,1.7,1.9,2.8,2.6s2.1,0.9,3.2,0.9c0.9,0,1.7-0.2,2.6-0.6c0.9-0.4,1.7-1.1,2.3-1.7c0.6-0.6,1.5-1.5,1.9-2.3
		C1003.6,538.9,1004.2,538,1004.7,537z M993.6,492.4c0,1.9,0.2,3.8,0.6,5.8c0.4,1.9,1.1,3.8,1.7,5.8c1.9-2.3,3.2-4.5,3.8-6.4
		c0.6-1.9,1.1-3.6,1.1-5.1c0-1.9-0.2-3.4-0.9-4.7c-0.4-1.3-1.5-1.9-2.8-1.9c-1.3,0-2.1,0.6-2.8,1.9
		C993.8,489,993.6,490.5,993.6,492.4z"/>
	<path fill="#A8B4BB" stroke="#A8B4BB" stroke-width="0.3" stroke-miterlimit="10" d="M1056.3,540.8c0.9,0.9,2.1,1.7,3.6,2.3
		c1.5,0.9,3.4,1.1,5.3,1.1c2.6,0,4.7-0.9,6.2-2.8c1.5-1.7,2.3-4.7,2.3-8.5c0-2.6-0.4-4.7-1.3-6.6c-0.9-1.9-2.1-3.6-3.4-5.3
		c-1.3-1.7-2.8-3.2-4.5-4.7c-1.5-1.5-3-3.2-4.5-5.1c-1.5-1.9-2.6-4.1-3.4-6.4c-0.9-2.3-1.3-5.3-1.3-8.8c0-5.5,1.1-9.6,3.4-12.2
		c2.3-2.6,5.3-4.1,9-4.1c2.3,0,4.3,0.2,6.2,0.9c1.7,0.6,3.2,1.3,4.3,2.3l-1.7,6.4c-0.9-0.6-1.9-1.3-3.6-1.9
		c-1.5-0.6-3.2-0.9-5.3-0.9c-2.6,0-4.3,0.9-5.5,2.6c-1.3,1.7-1.7,3.8-1.7,6.6c0,2.3,0.4,4.3,1.3,6.2c0.9,1.7,2.1,3.4,3.4,4.9
		s2.8,3.2,4.5,4.7c1.5,1.7,3,3.4,4.5,5.3c1.3,1.9,2.6,4.3,3.4,6.6c0.9,2.6,1.3,5.3,1.3,8.8c0,5.8-1.3,10.2-3.6,13.4
		c-2.3,3.2-5.8,4.9-10,4.9c-2.8,0-4.9-0.4-6.8-1.1c-1.7-0.6-3.2-1.5-4.3-2.6L1056.3,540.8z"/>
	<path fill="#A8B4BB" stroke="#A8B4BB" stroke-width="0.3" stroke-miterlimit="10" d="M1095.1,481.1h5.1v68.7h-5.1V481.1z"/>
	<path fill="#A8B4BB" stroke="#A8B4BB" stroke-width="0.3" stroke-miterlimit="10" d="M1117.8,540.8c0.9,0.9,2.1,1.7,3.6,2.3
		c1.5,0.9,3.4,1.1,5.3,1.1c2.6,0,4.7-0.9,6.2-2.8c1.5-1.7,2.3-4.7,2.3-8.5c0-2.6-0.4-4.7-1.3-6.6c-0.9-1.9-2.1-3.6-3.4-5.3
		c-1.3-1.7-2.8-3.2-4.5-4.7c-1.5-1.5-3-3.2-4.5-5.1c-1.5-1.9-2.6-4.1-3.4-6.4c-0.9-2.3-1.3-5.3-1.3-8.8c0-5.5,1.1-9.6,3.4-12.2
		c2.3-2.6,5.3-4.1,9-4.1c2.3,0,4.3,0.2,6.2,0.9c1.7,0.6,3.2,1.3,4.3,2.3l-1.7,6.4c-0.9-0.6-1.9-1.3-3.6-1.9
		c-1.5-0.6-3.2-0.9-5.3-0.9c-2.6,0-4.3,0.9-5.5,2.6c-1.3,1.7-1.7,3.8-1.7,6.6c0,2.3,0.4,4.3,1.3,6.2c0.9,1.7,2.1,3.4,3.4,4.9
		c1.3,1.5,2.8,3.2,4.5,4.7c1.5,1.7,3,3.4,4.5,5.3c1.3,1.9,2.6,4.3,3.4,6.6c0.9,2.6,1.3,5.3,1.3,8.8c0,5.8-1.3,10.2-3.6,13.4
		c-2.3,3.2-5.8,4.9-10,4.9c-2.8,0-4.9-0.4-6.8-1.1c-1.7-0.6-3.2-1.5-4.3-2.6L1117.8,540.8z"/>
	<path fill="#A8B4BB" stroke="#A8B4BB" stroke-width="0.3" stroke-miterlimit="10" d="M1180.9,487.9h-11.7v61.9h-5.1v-61.9h-11.7
		v-6.8h28.6V487.9z"/>
	<path fill="#A8B4BB" stroke="#A8B4BB" stroke-width="0.3" stroke-miterlimit="10" d="M1194.6,481.1h21.3v6.8h-16.2v23.3h14.9v6.8
		h-14.9v25.2h16.4v6.8h-21.6L1194.6,481.1L1194.6,481.1z"/>
	<path fill="#A8B4BB" stroke="#A8B4BB" stroke-width="0.3" stroke-miterlimit="10" d="M1261.8,504.8l0.6-10.5h-0.2l-2.1,9.8
		l-9.6,29.9h-1.9l-10-29.9l-2.1-9.8h-0.2l0.9,10.5V550h-4.9v-68.7h4.3L1248,515l1.7,8.1h0.2l1.7-8.1l10.9-33.7h4.5V550h-5.1
		L1261.8,504.8L1261.8,504.8z"/>
	<path fill="#A8B4BB" stroke="#A8B4BB" stroke-width="0.3" stroke-miterlimit="10" d="M1302.2,530.6h-13.4l-3.8,19.2h-5.1l14.5-69.8
		h2.8l14.5,69.8h-5.3L1302.2,530.6z M1290,524.2h10.9l-4.1-21.3l-1.3-10.5h-0.2l-1.3,10.7L1290,524.2z"/>
	<path fill="#A8B4BB" stroke="#A8B4BB" stroke-width="0.3" stroke-miterlimit="10" d="M1324.2,540.8c0.9,0.9,2.1,1.7,3.6,2.3
		c1.5,0.9,3.4,1.1,5.3,1.1c2.6,0,4.7-0.9,6.2-2.8c1.5-1.7,2.3-4.7,2.3-8.5c0-2.6-0.4-4.7-1.3-6.6c-0.9-1.9-2.1-3.6-3.4-5.3
		c-1.3-1.7-2.8-3.2-4.5-4.7c-1.5-1.5-3-3.2-4.5-5.1c-1.3-1.9-2.6-4.1-3.4-6.4c-0.9-2.3-1.3-5.3-1.3-8.8c0-5.5,1.1-9.6,3.4-12.2
		c2.3-2.6,5.3-4.1,9-4.1c2.3,0,4.3,0.2,6.2,0.9c1.9,0.6,3.2,1.3,4.3,2.3l-1.7,6.4c-0.9-0.6-1.9-1.3-3.6-1.9
		c-1.5-0.6-3.2-0.9-5.3-0.9c-2.6,0-4.3,0.9-5.5,2.6c-1.3,1.7-1.7,3.8-1.7,6.6c0,2.3,0.4,4.3,1.3,6.2c0.9,1.7,2.1,3.4,3.4,4.9
		c1.3,1.5,2.8,3.2,4.5,4.7c1.5,1.7,3,3.4,4.5,5.3c1.3,1.9,2.6,4.3,3.4,6.6c0.9,2.6,1.3,5.3,1.3,8.8c0,5.8-1.3,10.2-3.6,13.4
		c-2.3,3.2-5.8,4.9-10,4.9c-2.8,0-4.9-0.4-6.8-1.1c-1.7-0.6-3.2-1.5-4.3-2.6L1324.2,540.8z"/>
</g>
<linearGradient id="SVGID_1_" gradientUnits="userSpaceOnUse" x1="168.3575" y1="414.2612" x2="168.3575" y2="645.41">
	<stop  offset="0" style="stop-color:#0095D1"/>
	<stop  offset="0.6659" style="stop-color:#363180"/>
</linearGradient>
<path fill="url(#SVGID_1_)" d="M315.9,505.2c0,0-12.8,54.4-76,90.7c0,0-30.5,20.3-84.7,16.9l78-61.1c3.3,3,7.7,4.8,12.5,4.8
	c10.2,0,18.5-8.3,18.5-18.5c0-10.2-8.3-18.5-18.5-18.5c-10.2,0-18.5,8.3-18.5,18.5c0,1.3,0.1,2.5,0.4,3.8l-175,103.7l193.7-154.9
	c3.2,2.6,7.3,4.1,11.8,4.1c10.4,0,18.8-8.4,18.8-18.8c0-10.4-8.4-18.8-18.8-18.8c-10.4,0-18.8,8.4-18.8,18.8c0,2.2,0.4,4.2,1,6.1
	L15.6,614.2l167.9-134.6c2.5,1.8,5.5,2.8,8.8,2.8c8.4,0,15.3-6.8,15.3-15.2c0-8.4-6.8-15.3-15.3-15.3c-8.4,0-15.2,6.8-15.2,15.3
	c0,1.5,0.2,2.8,0.6,4.2l-87.3,50.2c0,0,10.9-59.5,82.6-92.2c0,0,41.2-18.8,75.3-14.5C248.2,414.9,344.3,419.6,315.9,505.2z"/>
</svg>
