<?xml version="1.0" encoding="utf-8"?>
<!-- Generator: Adobe Illustrator 22.0.1, SVG Export Plug-In . SVG Version: 6.00 Build 0)  -->
<svg version="1.1" id="Layer_1" xmlns="http://www.w3.org/2000/svg" xmlns:xlink="http://www.w3.org/1999/xlink" x="0px" y="0px"
	 viewBox="0 0 300 300" style="enable-background:new 0 0 300 300;" xml:space="preserve">
<style type="text/css">
	.st0{fill:url(#SVGID_1_);}
</style>
<linearGradient id="SVGID_1_" gradientUnits="userSpaceOnUse" x1="150" y1="263.5199" x2="150" y2="36.4801" gradientTransform="matrix(1 0 0 -1 0 300)">
	<stop  offset="0" style="stop-color:#0095D1"/>
	<stop  offset="0.6659" style="stop-color:#363180"/>
</linearGradient>
<path class="st0" d="M294.8,125.8c0,0-12.6,53.4-74.6,89.1c0,0-29.9,19.9-83.2,16.6l76.6-60c3.2,2.9,7.6,4.7,12.3,4.7
	c10,0,18.2-8.1,18.2-18.2s-8.1-18.2-18.2-18.2s-18.2,8.1-18.2,18.2c0,1.3,0.1,2.5,0.4,3.7L36.3,263.5l190.2-152.1
	c3.1,2.6,7.2,4,11.6,4c10.2,0,18.5-8.2,18.5-18.5s-8.2-18.5-18.5-18.5c-10.2,0-18.5,8.2-18.5,18.5c0,2.2,0.4,4.1,1,6L0,232.8
	l164.9-132.2c2.5,1.8,5.4,2.7,8.6,2.7c8.2,0,15-6.7,15-14.9c0-8.2-6.7-15-15-15c-8.2,0-14.9,6.7-14.9,15c0,1.5,0.2,2.7,0.6,4.1
	l-85.7,49.3c0,0,10.7-58.4,81.1-90.5c0,0,40.5-18.5,73.9-14.2C228.4,37.1,322.7,41.7,294.8,125.8z"/>
</svg>
