<?xml version="1.0" encoding="utf-8"?>
<!-- Generator: Adobe Illustrator 17.1.0, SVG Export Plug-In . SVG Version: 6.00 Build 0)  -->
<!DOCTYPE svg PUBLIC "-//W3C//DTD SVG 1.1//EN" "http://www.w3.org/Graphics/SVG/1.1/DTD/svg11.dtd">
<svg version="1.1" id="Layer_1" xmlns="http://www.w3.org/2000/svg" xmlns:xlink="http://www.w3.org/1999/xlink" x="0px" y="0px"
	 viewBox="100 120 440 240" style="enable-background:new 100 120 440 240;" xml:space="preserve">
<style type="text/css">
	.st0{fill:#A8B4BB;stroke:#A8B4BB;stroke-width:0.3;stroke-miterlimit:10;}
	.st1{fill:url(#XMLID_2_);}
</style>
<g>
	<path class="st0" d="M115.8,304.4c-0.4,0.4-0.8,0.8-1.4,1c-0.6,0.2-1.2,0.3-1.8,0.3c-0.8,0-1.5-0.2-2.2-0.6c-0.7-0.4-1.2-1.1-1.7-2
		s-0.9-2.1-1.1-3.6c-0.3-1.5-0.4-3.2-0.4-5.3c0-2.1,0.2-3.9,0.5-5.4c0.3-1.5,0.7-2.7,1.2-3.6c0.5-0.9,1.1-1.6,1.8-2s1.3-0.6,2-0.6
		c0.7,0,1.3,0.1,1.8,0.2c0.5,0.1,0.9,0.3,1.2,0.5l-0.4,2.2c-0.3-0.2-0.6-0.4-1-0.5c-0.4-0.1-0.9-0.2-1.4-0.2c-0.5,0-1,0.2-1.5,0.5
		c-0.5,0.3-0.9,0.9-1.2,1.6c-0.4,0.7-0.6,1.7-0.8,2.9c-0.2,1.2-0.3,2.7-0.3,4.4c0,3.1,0.4,5.5,1.1,7c0.7,1.6,1.7,2.4,3,2.4
		c0.5,0,1-0.1,1.4-0.3s0.7-0.4,1-0.7L115.8,304.4z"/>
	<path class="st0" d="M130.4,299H126l-1.2,6.3h-1.7l4.7-22.8h0.9l4.7,22.8h-1.8L130.4,299z M126.5,296.9h3.6l-1.4-7l-0.4-3.4h0
		l-0.4,3.4L126.5,296.9z"/>
	<path class="st0" d="M142.1,283.1c0.5-0.2,1-0.3,1.6-0.4c0.6-0.1,1.1-0.1,1.6-0.1c0.6,0,1.1,0.1,1.7,0.3c0.5,0.2,1,0.5,1.4,1
		c0.4,0.5,0.7,1.1,0.9,1.9c0.2,0.8,0.3,1.8,0.3,2.9c0,1.8-0.3,3.2-0.8,4.3s-1.2,1.8-2,2.1l0.8,1.2l3.1,8.9h-1.9l-3.3-9.8l-1.7-0.5
		v10.2h-1.7V283.1z M143.8,293.4h1.3c0.8,0,1.5-0.4,2-1.1s0.7-1.9,0.7-3.4c0-1.2-0.2-2.1-0.6-2.9c-0.4-0.8-1-1.2-1.8-1.2
		c-0.3,0-0.6,0-0.9,0s-0.6,0.1-0.7,0.1V293.4z"/>
	<path class="st0" d="M160,283.1c0.5-0.2,1-0.3,1.6-0.4c0.6-0.1,1.1-0.1,1.6-0.1c0.6,0,1.1,0.1,1.7,0.3c0.5,0.2,1,0.5,1.4,1
		c0.4,0.5,0.7,1.1,0.9,1.9c0.2,0.8,0.3,1.8,0.3,2.9c0,1.8-0.3,3.2-0.8,4.3s-1.2,1.8-2,2.1l0.8,1.2l3.1,8.9h-1.9l-3.3-9.8l-1.7-0.5
		v10.2H160V283.1z M161.6,293.4h1.3c0.8,0,1.5-0.4,2-1.1s0.7-1.9,0.7-3.4c0-1.2-0.2-2.1-0.6-2.9c-0.4-0.8-1-1.2-1.8-1.2
		c-0.3,0-0.6,0-0.9,0s-0.6,0.1-0.7,0.1V293.4z"/>
	<path class="st0" d="M177.8,282.8h6.9v2.2h-5.3v7.6h4.8v2.2h-4.8v8.2h5.4v2.2h-7V282.8z"/>
	<path class="st0" d="M194.5,283.1c0.5-0.2,1-0.3,1.6-0.4c0.6-0.1,1.1-0.1,1.6-0.1c0.6,0,1.1,0.1,1.7,0.3c0.5,0.2,1,0.5,1.4,1
		c0.4,0.5,0.7,1.1,0.9,1.9c0.2,0.8,0.3,1.8,0.3,2.9c0,1.8-0.3,3.2-0.8,4.3s-1.2,1.8-2,2.1l0.8,1.2l3.1,8.9h-1.9l-3.3-9.8l-1.7-0.5
		v10.2h-1.7V283.1z M196.2,293.4h1.3c0.8,0,1.5-0.4,2-1.1s0.7-1.9,0.7-3.4c0-1.2-0.2-2.1-0.6-2.9c-0.4-0.8-1-1.2-1.8-1.2
		c-0.3,0-0.6,0-0.9,0s-0.6,0.1-0.7,0.1V293.4z"/>
	<path class="st0" d="M217.8,299h-4.4l-1.2,6.3h-1.7l4.7-22.8h0.9l4.7,22.8h-1.8L217.8,299z M213.9,296.9h3.6l-1.4-7l-0.4-3.4h0
		l-0.4,3.4L213.9,296.9z"/>
	<path class="st0" d="M240.7,282.8h6.9v2.2h-5.3v7.6h4.8v2.2h-4.8v8.2h5.4v2.2h-7V282.8z"/>
	<path class="st0" d="M257.3,302.3c0.3,0.3,0.7,0.5,1.2,0.8c0.5,0.2,1.1,0.4,1.8,0.4c0.8,0,1.5-0.3,2-0.9s0.8-1.5,0.8-2.8
		c0-0.8-0.1-1.6-0.4-2.2c-0.3-0.6-0.7-1.2-1.1-1.7c-0.4-0.5-0.9-1-1.4-1.5c-0.5-0.5-1-1.1-1.4-1.7c-0.4-0.6-0.8-1.3-1.1-2.1
		s-0.4-1.7-0.4-2.8c0-1.8,0.4-3.1,1.1-4c0.8-0.9,1.7-1.3,2.9-1.3c0.7,0,1.4,0.1,2,0.3c0.6,0.2,1,0.4,1.4,0.7l-0.5,2.1
		c-0.3-0.2-0.7-0.4-1.1-0.6c-0.5-0.2-1.1-0.3-1.7-0.3c-0.8,0-1.4,0.3-1.8,0.8c-0.4,0.6-0.6,1.3-0.6,2.1c0,0.7,0.1,1.4,0.4,2
		s0.7,1.1,1.1,1.6c0.4,0.5,0.9,1,1.4,1.6c0.5,0.5,1,1.1,1.4,1.7c0.4,0.6,0.8,1.4,1.1,2.2c0.3,0.8,0.4,1.8,0.4,2.9
		c0,1.9-0.4,3.3-1.2,4.4c-0.8,1.1-1.9,1.6-3.3,1.6c-0.9,0-1.6-0.1-2.2-0.4c-0.6-0.2-1-0.5-1.4-0.8L257.3,302.3z"/>
	<path class="st0" d="M282.3,285h-3.8v20.2h-1.7V285h-3.8v-2.2h9.3V285z"/>
	<path class="st0" d="M291.2,283.1c0.5-0.2,1-0.3,1.6-0.4c0.6-0.1,1.1-0.1,1.6-0.1c0.6,0,1.1,0.1,1.7,0.3c0.5,0.2,1,0.5,1.4,1
		c0.4,0.5,0.7,1.1,0.9,1.9c0.2,0.8,0.3,1.8,0.3,2.9c0,1.8-0.3,3.2-0.8,4.3s-1.2,1.8-2,2.1l0.8,1.2l3.1,8.9h-1.9l-3.3-9.8l-1.7-0.5
		v10.2h-1.7V283.1z M292.8,293.4h1.3c0.8,0,1.5-0.4,2-1.1s0.7-1.9,0.7-3.4c0-1.2-0.2-2.1-0.6-2.9c-0.4-0.8-1-1.2-1.8-1.2
		c-0.3,0-0.6,0-0.9,0s-0.6,0.1-0.7,0.1V293.4z"/>
	<path class="st0" d="M314.5,299h-4.4l-1.2,6.3h-1.7l4.7-22.8h0.9l4.7,22.8h-1.8L314.5,299z M310.5,296.9h3.6l-1.4-7l-0.4-3.4h0
		l-0.4,3.4L310.5,296.9z"/>
	<path class="st0" d="M326.2,282.8c0.2-0.1,0.5-0.1,0.8-0.1c0.3,0,0.6-0.1,0.9-0.1c0.3,0,0.6,0,0.9,0c0.3,0,0.6,0,0.8,0
		c1.1,0,2,0.3,2.8,0.8c0.8,0.5,1.4,1.3,1.9,2.3s0.8,2.2,1,3.6s0.3,2.9,0.3,4.6c0,1.5-0.1,3-0.3,4.4c-0.2,1.4-0.5,2.6-1,3.7
		c-0.5,1.1-1.1,1.9-1.9,2.6c-0.8,0.6-1.8,1-2.9,1c-0.2,0-0.4,0-0.7,0c-0.3,0-0.6,0-0.9-0.1c-0.3,0-0.6-0.1-0.9-0.1
		c-0.3,0-0.5-0.1-0.6-0.1V282.8z M329.6,284.8c-0.1,0-0.3,0-0.5,0c-0.2,0-0.3,0-0.5,0c-0.2,0-0.3,0-0.5,0.1c-0.1,0-0.3,0-0.3,0.1
		v18.2c0.1,0,0.2,0,0.3,0s0.3,0,0.5,0s0.3,0,0.5,0c0.2,0,0.3,0,0.3,0c0.8,0,1.5-0.3,2.1-0.8c0.5-0.5,1-1.2,1.3-2.1
		c0.3-0.9,0.5-1.9,0.7-3c0.1-1.1,0.2-2.4,0.2-3.6c0-1.1-0.1-2.2-0.2-3.3c-0.1-1.1-0.3-2.1-0.6-2.9c-0.3-0.8-0.7-1.5-1.2-2
		C331.2,285,330.5,284.8,329.6,284.8z"/>
	<path class="st0" d="M350.6,299h-4.4l-1.2,6.3h-1.7l4.7-22.8h0.9l4.7,22.8h-1.8L350.6,299z M346.7,296.9h3.6l-1.4-7l-0.4-3.4h0
		L348,290L346.7,296.9z"/>
	<path class="st0" d="M374.1,299.2c0-0.9,0.1-1.7,0.3-2.4c0.2-0.8,0.4-1.5,0.7-2.1s0.6-1.2,1-1.8c0.4-0.5,0.8-1,1.1-1.4
		c-0.3-0.8-0.6-1.6-0.8-2.4c-0.2-0.8-0.3-1.7-0.3-2.6c0-0.5,0-1,0.1-1.5c0.1-0.5,0.3-0.9,0.5-1.3c0.2-0.4,0.5-0.7,0.8-0.9
		c0.3-0.2,0.8-0.4,1.2-0.4c0.5,0,0.9,0.1,1.3,0.3s0.6,0.5,0.8,0.8c0.2,0.3,0.4,0.7,0.5,1.2s0.1,0.9,0.1,1.4c0,0.9-0.2,1.9-0.6,2.8
		s-1,1.9-1.8,2.8c0.2,0.6,0.4,1.2,0.7,1.9c0.2,0.7,0.5,1.3,0.8,2c0.3,0.7,0.6,1.3,0.8,1.9c0.3,0.6,0.6,1.2,0.9,1.7
		c0.3-0.5,0.5-1.2,0.8-2.1c0.2-0.9,0.4-1.8,0.6-2.6l1.3,0.7c-0.1,0.4-0.2,0.8-0.3,1.3c-0.1,0.5-0.3,1-0.4,1.6
		c-0.2,0.5-0.3,1-0.5,1.5c-0.2,0.5-0.3,0.9-0.5,1.2c0.5,0.8,0.9,1.5,1.2,1.9c0.3,0.5,0.7,0.9,1,1.2l-1,1.7c-0.7-0.6-1.4-1.5-2.2-3
		c-0.2,0.4-0.4,0.8-0.7,1.1s-0.5,0.7-0.9,0.9c-0.3,0.3-0.7,0.5-1.1,0.7c-0.4,0.2-0.8,0.3-1.3,0.3c-0.6,0-1.1-0.1-1.6-0.4
		s-1-0.7-1.3-1.2c-0.4-0.5-0.7-1.2-0.9-2C374.2,301.2,374.1,300.3,374.1,299.2z M381.3,301.1c-0.3-0.6-0.7-1.3-1-2s-0.6-1.4-0.9-2.1
		s-0.6-1.4-0.8-2c-0.2-0.7-0.5-1.3-0.6-1.8c-0.3,0.4-0.6,0.9-0.9,1.3c-0.3,0.4-0.5,0.9-0.7,1.4c-0.2,0.5-0.4,1-0.5,1.6
		c-0.1,0.6-0.2,1.2-0.2,1.9c0,0.7,0.1,1.3,0.2,1.9c0.1,0.5,0.4,1,0.6,1.4c0.3,0.4,0.6,0.6,0.9,0.8c0.3,0.2,0.7,0.3,1.1,0.3
		c0.3,0,0.6-0.1,0.8-0.2s0.5-0.3,0.8-0.6s0.5-0.5,0.7-0.8S381.1,301.4,381.3,301.1z M377.7,286.5c0,0.6,0.1,1.3,0.2,1.9
		s0.3,1.3,0.5,1.9c0.6-0.8,1-1.4,1.3-2.1c0.2-0.6,0.3-1.2,0.3-1.7c0-0.6-0.1-1.1-0.3-1.6c-0.2-0.4-0.5-0.7-0.9-0.7
		c-0.4,0-0.7,0.2-0.9,0.6C377.8,285.4,377.7,285.9,377.7,286.5z"/>
	<path class="st0" d="M407,302.3c0.3,0.3,0.7,0.5,1.2,0.8c0.5,0.2,1.1,0.4,1.8,0.4c0.8,0,1.5-0.3,2-0.9s0.8-1.5,0.8-2.8
		c0-0.8-0.1-1.6-0.4-2.2c-0.3-0.6-0.7-1.2-1.1-1.7c-0.4-0.5-0.9-1-1.4-1.5c-0.5-0.5-1-1.1-1.4-1.7c-0.4-0.6-0.8-1.3-1.1-2.1
		c-0.3-0.8-0.4-1.7-0.4-2.8c0-1.8,0.4-3.1,1.1-4c0.8-0.9,1.7-1.3,2.9-1.3c0.7,0,1.4,0.1,2,0.3c0.6,0.2,1,0.4,1.4,0.7l-0.5,2.1
		c-0.3-0.2-0.7-0.4-1.1-0.6c-0.5-0.2-1.1-0.3-1.7-0.3c-0.8,0-1.4,0.3-1.8,0.8c-0.4,0.6-0.6,1.3-0.6,2.1c0,0.7,0.1,1.4,0.4,2
		c0.3,0.6,0.7,1.1,1.1,1.6s0.9,1,1.4,1.6c0.5,0.5,1,1.1,1.4,1.7c0.4,0.6,0.8,1.4,1.1,2.2c0.3,0.8,0.4,1.8,0.4,2.9
		c0,1.9-0.4,3.3-1.2,4.4c-0.8,1.1-1.9,1.6-3.3,1.6c-0.9,0-1.6-0.1-2.2-0.4c-0.6-0.2-1-0.5-1.4-0.8L407,302.3z"/>
	<path class="st0" d="M424.1,282.8h1.7v22.4h-1.7V282.8z"/>
	<path class="st0" d="M436,302.3c0.3,0.3,0.7,0.5,1.2,0.8c0.5,0.2,1.1,0.4,1.8,0.4c0.8,0,1.5-0.3,2-0.9s0.8-1.5,0.8-2.8
		c0-0.8-0.1-1.6-0.4-2.2c-0.3-0.6-0.7-1.2-1.1-1.7c-0.4-0.5-0.9-1-1.4-1.5c-0.5-0.5-1-1.1-1.4-1.7c-0.4-0.6-0.8-1.3-1.1-2.1
		c-0.3-0.8-0.4-1.7-0.4-2.8c0-1.8,0.4-3.1,1.1-4c0.8-0.9,1.7-1.3,2.9-1.3c0.7,0,1.4,0.1,2,0.3c0.6,0.2,1,0.4,1.4,0.7l-0.5,2.1
		c-0.3-0.2-0.7-0.4-1.1-0.6c-0.5-0.2-1.1-0.3-1.7-0.3c-0.8,0-1.4,0.3-1.8,0.8c-0.4,0.6-0.6,1.3-0.6,2.1c0,0.7,0.1,1.4,0.4,2
		c0.3,0.6,0.7,1.1,1.1,1.6s0.9,1,1.4,1.6c0.5,0.5,1,1.1,1.4,1.7c0.4,0.6,0.8,1.4,1.1,2.2c0.3,0.8,0.4,1.8,0.4,2.9
		c0,1.9-0.4,3.3-1.2,4.4c-0.8,1.1-1.9,1.6-3.3,1.6c-0.9,0-1.6-0.1-2.2-0.4c-0.6-0.2-1-0.5-1.4-0.8L436,302.3z"/>
	<path class="st0" d="M461,285h-3.8v20.2h-1.7V285h-3.8v-2.2h9.3V285z"/>
	<path class="st0" d="M469.9,282.8h6.9v2.2h-5.3v7.6h4.8v2.2h-4.8v8.2h5.4v2.2h-7V282.8z"/>
	<path class="st0" d="M496.3,290.5l0.2-3.4h-0.1l-0.7,3.2l-3.1,9.7H492l-3.3-9.7l-0.7-3.2h-0.1l0.3,3.4v14.7h-1.6v-22.4h1.4l3.8,11
		l0.6,2.6h0l0.5-2.7l3.6-11h1.5v22.4h-1.7V290.5z"/>
	<path class="st0" d="M514,299h-4.4l-1.2,6.3h-1.7l4.7-22.8h0.9l4.7,22.8h-1.8L514,299z M510,296.9h3.6l-1.4-7l-0.4-3.4h0l-0.4,3.4
		L510,296.9z"/>
	<path class="st0" d="M525.5,302.3c0.3,0.3,0.7,0.5,1.2,0.8c0.5,0.2,1.1,0.4,1.8,0.4c0.8,0,1.5-0.3,2-0.9s0.8-1.5,0.8-2.8
		c0-0.8-0.1-1.6-0.4-2.2c-0.3-0.6-0.7-1.2-1.1-1.7c-0.4-0.5-0.9-1-1.4-1.5c-0.5-0.5-1-1.1-1.4-1.7c-0.4-0.6-0.8-1.3-1.1-2.1
		c-0.3-0.8-0.4-1.7-0.4-2.8c0-1.8,0.4-3.1,1.1-4c0.8-0.9,1.7-1.3,2.9-1.3c0.7,0,1.4,0.1,2,0.3c0.6,0.2,1,0.4,1.4,0.7l-0.5,2.1
		c-0.3-0.2-0.7-0.4-1.1-0.6c-0.5-0.2-1.1-0.3-1.7-0.3c-0.8,0-1.4,0.3-1.8,0.8c-0.4,0.6-0.6,1.3-0.6,2.1c0,0.7,0.1,1.4,0.4,2
		c0.3,0.6,0.7,1.1,1.1,1.6s0.9,1,1.4,1.6c0.5,0.5,1,1.1,1.4,1.7c0.4,0.6,0.8,1.4,1.1,2.2c0.3,0.8,0.4,1.8,0.4,2.9
		c0,1.9-0.4,3.3-1.2,4.4c-0.8,1.1-1.9,1.6-3.3,1.6c-0.9,0-1.6-0.1-2.2-0.4c-0.6-0.2-1-0.5-1.4-0.8L525.5,302.3z"/>
</g>
<linearGradient id="XMLID_2_" gradientUnits="userSpaceOnUse" x1="320" y1="167.1898" x2="320" y2="250.5812">
	<stop  offset="0" style="stop-color:#0095D1"/>
	<stop  offset="0.6659" style="stop-color:#363180"/>
</linearGradient>
<path id="XMLID_3_" class="st1" d="M292.9,205.9c0,0,3.8-21.4,28.6-33.2c0,0,14.3-6.8,26.1-5.3c0,0,33.2,1.7,23.4,32.6
	c0,0-4.5,19.7-26.3,32.7c0,0-10.5,7.3-29.3,6.1l27.3-22.3c0,0,7.1,4.3,10.2-3.4c0,0,1.3-7-5-8c0,0-7.9-1.1-7.3,8l-60.8,37.5
	l67.6-56.3c0,0,9.7,3.9,10.7-6.1c0,0-1.4-6.4-7.7-5.5c0,0-5.9,1.1-5.5,8.9l-77.8,47.7l58.1-48.6c0,0,6.3,3.2,9.7-1.3
	c0,0,2.7-5.2-1.4-8.6c0,0-10-4.6-10,6.6L292.9,205.9z"/>
</svg>
